<?xml version="1.0" encoding="utf-8" standalone="no"?>
<!DOCTYPE svg PUBLIC "-//W3C//DTD SVG 1.1//EN"
  "http://www.w3.org/Graphics/SVG/1.1/DTD/svg11.dtd">
<svg xmlns:xlink="http://www.w3.org/1999/xlink" width="1080pt" height="792pt" viewBox="0 0 1080 792" xmlns="http://www.w3.org/2000/svg" version="1.1">
 <metadata>
  <rdf:RDF xmlns:dc="http://purl.org/dc/elements/1.1/" xmlns:cc="http://creativecommons.org/ns#" xmlns:rdf="http://www.w3.org/1999/02/22-rdf-syntax-ns#">
   <cc:Work>
    <dc:type rdf:resource="http://purl.org/dc/dcmitype/StillImage"/>
    <dc:date>2022-04-29T18:18:36.463621</dc:date>
    <dc:format>image/svg+xml</dc:format>
    <dc:creator>
     <cc:Agent>
      <dc:title>Matplotlib v3.5.1, https://matplotlib.org/</dc:title>
     </cc:Agent>
    </dc:creator>
   </cc:Work>
  </rdf:RDF>
 </metadata>
 <defs>
  <style type="text/css">*{stroke-linejoin: round; stroke-linecap: butt}</style>
 </defs>
 <g id="figure_1">
  <g id="patch_1">
   <path d="M 0 792 
L 1080 792 
L 1080 0 
L 0 0 
z
" style="fill: #232323"/>
  </g>
  <g id="axes_1">
   <g id="patch_2">
    <path d="M 135 693 
L 972 693 
L 972 95.04 
L 135 95.04 
z
" style="fill: #232323"/>
   </g>
   <g id="matplotlib.axis_1">
    <g id="xtick_1">
     <g id="line2d_1">
      <path d="M 173.045455 693 
L 173.045455 95.04 
" clip-path="url(#p3e21d2b178)" style="fill: none; stroke: #303030; stroke-width: 1.12; stroke-linecap: square"/>
     </g>
     <g id="line2d_2"/>
     <g id="text_1">
      <!-- 3000 -->
      <g style="fill: #bbbbbb" transform="translate(150.33133 712.163211)scale(0.1785 -0.1785)">
       <defs>
        <path id="DejaVuSans-33" d="M 2597 2516 
Q 3050 2419 3304 2112 
Q 3559 1806 3559 1356 
Q 3559 666 3084 287 
Q 2609 -91 1734 -91 
Q 1441 -91 1130 -33 
Q 819 25 488 141 
L 488 750 
Q 750 597 1062 519 
Q 1375 441 1716 441 
Q 2309 441 2620 675 
Q 2931 909 2931 1356 
Q 2931 1769 2642 2001 
Q 2353 2234 1838 2234 
L 1294 2234 
L 1294 2753 
L 1863 2753 
Q 2328 2753 2575 2939 
Q 2822 3125 2822 3475 
Q 2822 3834 2567 4026 
Q 2313 4219 1838 4219 
Q 1578 4219 1281 4162 
Q 984 4106 628 3988 
L 628 4550 
Q 988 4650 1302 4700 
Q 1616 4750 1894 4750 
Q 2613 4750 3031 4423 
Q 3450 4097 3450 3541 
Q 3450 3153 3228 2886 
Q 3006 2619 2597 2516 
z
" transform="scale(0.015625)"/>
        <path id="DejaVuSans-30" d="M 2034 4250 
Q 1547 4250 1301 3770 
Q 1056 3291 1056 2328 
Q 1056 1369 1301 889 
Q 1547 409 2034 409 
Q 2525 409 2770 889 
Q 3016 1369 3016 2328 
Q 3016 3291 2770 3770 
Q 2525 4250 2034 4250 
z
M 2034 4750 
Q 2819 4750 3233 4129 
Q 3647 3509 3647 2328 
Q 3647 1150 3233 529 
Q 2819 -91 2034 -91 
Q 1250 -91 836 529 
Q 422 1150 422 2328 
Q 422 3509 836 4129 
Q 1250 4750 2034 4750 
z
" transform="scale(0.015625)"/>
       </defs>
       <use xlink:href="#DejaVuSans-33"/>
       <use xlink:href="#DejaVuSans-30" x="63.623047"/>
       <use xlink:href="#DejaVuSans-30" x="127.246094"/>
       <use xlink:href="#DejaVuSans-30" x="190.869141"/>
      </g>
     </g>
    </g>
    <g id="xtick_2">
     <g id="line2d_3">
      <path d="M 325.379607 693 
L 325.379607 95.04 
" clip-path="url(#p3e21d2b178)" style="fill: none; stroke: #303030; stroke-width: 1.12; stroke-linecap: square"/>
     </g>
     <g id="line2d_4"/>
     <g id="text_2">
      <!-- 3200 -->
      <g style="fill: #bbbbbb" transform="translate(302.665482 712.163211)scale(0.1785 -0.1785)">
       <defs>
        <path id="DejaVuSans-32" d="M 1228 531 
L 3431 531 
L 3431 0 
L 469 0 
L 469 531 
Q 828 903 1448 1529 
Q 2069 2156 2228 2338 
Q 2531 2678 2651 2914 
Q 2772 3150 2772 3378 
Q 2772 3750 2511 3984 
Q 2250 4219 1831 4219 
Q 1534 4219 1204 4116 
Q 875 4013 500 3803 
L 500 4441 
Q 881 4594 1212 4672 
Q 1544 4750 1819 4750 
Q 2544 4750 2975 4387 
Q 3406 4025 3406 3419 
Q 3406 3131 3298 2873 
Q 3191 2616 2906 2266 
Q 2828 2175 2409 1742 
Q 1991 1309 1228 531 
z
" transform="scale(0.015625)"/>
       </defs>
       <use xlink:href="#DejaVuSans-33"/>
       <use xlink:href="#DejaVuSans-32" x="63.623047"/>
       <use xlink:href="#DejaVuSans-30" x="127.246094"/>
       <use xlink:href="#DejaVuSans-30" x="190.869141"/>
      </g>
     </g>
    </g>
    <g id="xtick_3">
     <g id="line2d_5">
      <path d="M 477.713759 693 
L 477.713759 95.04 
" clip-path="url(#p3e21d2b178)" style="fill: none; stroke: #303030; stroke-width: 1.12; stroke-linecap: square"/>
     </g>
     <g id="line2d_6"/>
     <g id="text_3">
      <!-- 3400 -->
      <g style="fill: #bbbbbb" transform="translate(454.999634 712.163211)scale(0.1785 -0.1785)">
       <defs>
        <path id="DejaVuSans-34" d="M 2419 4116 
L 825 1625 
L 2419 1625 
L 2419 4116 
z
M 2253 4666 
L 3047 4666 
L 3047 1625 
L 3713 1625 
L 3713 1100 
L 3047 1100 
L 3047 0 
L 2419 0 
L 2419 1100 
L 313 1100 
L 313 1709 
L 2253 4666 
z
" transform="scale(0.015625)"/>
       </defs>
       <use xlink:href="#DejaVuSans-33"/>
       <use xlink:href="#DejaVuSans-34" x="63.623047"/>
       <use xlink:href="#DejaVuSans-30" x="127.246094"/>
       <use xlink:href="#DejaVuSans-30" x="190.869141"/>
      </g>
     </g>
    </g>
    <g id="xtick_4">
     <g id="line2d_7">
      <path d="M 630.047912 693 
L 630.047912 95.04 
" clip-path="url(#p3e21d2b178)" style="fill: none; stroke: #303030; stroke-width: 1.12; stroke-linecap: square"/>
     </g>
     <g id="line2d_8"/>
     <g id="text_4">
      <!-- 3600 -->
      <g style="fill: #bbbbbb" transform="translate(607.333787 712.163211)scale(0.1785 -0.1785)">
       <defs>
        <path id="DejaVuSans-36" d="M 2113 2584 
Q 1688 2584 1439 2293 
Q 1191 2003 1191 1497 
Q 1191 994 1439 701 
Q 1688 409 2113 409 
Q 2538 409 2786 701 
Q 3034 994 3034 1497 
Q 3034 2003 2786 2293 
Q 2538 2584 2113 2584 
z
M 3366 4563 
L 3366 3988 
Q 3128 4100 2886 4159 
Q 2644 4219 2406 4219 
Q 1781 4219 1451 3797 
Q 1122 3375 1075 2522 
Q 1259 2794 1537 2939 
Q 1816 3084 2150 3084 
Q 2853 3084 3261 2657 
Q 3669 2231 3669 1497 
Q 3669 778 3244 343 
Q 2819 -91 2113 -91 
Q 1303 -91 875 529 
Q 447 1150 447 2328 
Q 447 3434 972 4092 
Q 1497 4750 2381 4750 
Q 2619 4750 2861 4703 
Q 3103 4656 3366 4563 
z
" transform="scale(0.015625)"/>
       </defs>
       <use xlink:href="#DejaVuSans-33"/>
       <use xlink:href="#DejaVuSans-36" x="63.623047"/>
       <use xlink:href="#DejaVuSans-30" x="127.246094"/>
       <use xlink:href="#DejaVuSans-30" x="190.869141"/>
      </g>
     </g>
    </g>
    <g id="xtick_5">
     <g id="line2d_9">
      <path d="M 782.382064 693 
L 782.382064 95.04 
" clip-path="url(#p3e21d2b178)" style="fill: none; stroke: #303030; stroke-width: 1.12; stroke-linecap: square"/>
     </g>
     <g id="line2d_10"/>
     <g id="text_5">
      <!-- 3800 -->
      <g style="fill: #bbbbbb" transform="translate(759.667939 712.163211)scale(0.1785 -0.1785)">
       <defs>
        <path id="DejaVuSans-38" d="M 2034 2216 
Q 1584 2216 1326 1975 
Q 1069 1734 1069 1313 
Q 1069 891 1326 650 
Q 1584 409 2034 409 
Q 2484 409 2743 651 
Q 3003 894 3003 1313 
Q 3003 1734 2745 1975 
Q 2488 2216 2034 2216 
z
M 1403 2484 
Q 997 2584 770 2862 
Q 544 3141 544 3541 
Q 544 4100 942 4425 
Q 1341 4750 2034 4750 
Q 2731 4750 3128 4425 
Q 3525 4100 3525 3541 
Q 3525 3141 3298 2862 
Q 3072 2584 2669 2484 
Q 3125 2378 3379 2068 
Q 3634 1759 3634 1313 
Q 3634 634 3220 271 
Q 2806 -91 2034 -91 
Q 1263 -91 848 271 
Q 434 634 434 1313 
Q 434 1759 690 2068 
Q 947 2378 1403 2484 
z
M 1172 3481 
Q 1172 3119 1398 2916 
Q 1625 2713 2034 2713 
Q 2441 2713 2670 2916 
Q 2900 3119 2900 3481 
Q 2900 3844 2670 4047 
Q 2441 4250 2034 4250 
Q 1625 4250 1398 4047 
Q 1172 3844 1172 3481 
z
" transform="scale(0.015625)"/>
       </defs>
       <use xlink:href="#DejaVuSans-33"/>
       <use xlink:href="#DejaVuSans-38" x="63.623047"/>
       <use xlink:href="#DejaVuSans-30" x="127.246094"/>
       <use xlink:href="#DejaVuSans-30" x="190.869141"/>
      </g>
     </g>
    </g>
    <g id="xtick_6">
     <g id="line2d_11">
      <path d="M 934.716216 693 
L 934.716216 95.04 
" clip-path="url(#p3e21d2b178)" style="fill: none; stroke: #303030; stroke-width: 1.12; stroke-linecap: square"/>
     </g>
     <g id="line2d_12"/>
     <g id="text_6">
      <!-- 4000 -->
      <g style="fill: #bbbbbb" transform="translate(912.002091 712.163211)scale(0.1785 -0.1785)">
       <use xlink:href="#DejaVuSans-34"/>
       <use xlink:href="#DejaVuSans-30" x="63.623047"/>
       <use xlink:href="#DejaVuSans-30" x="127.246094"/>
       <use xlink:href="#DejaVuSans-30" x="190.869141"/>
      </g>
     </g>
    </g>
   </g>
   <g id="matplotlib.axis_2">
    <g id="ytick_1">
     <g id="line2d_13">
      <path d="M 135 665.82 
L 972 665.82 
" clip-path="url(#p3e21d2b178)" style="fill: none; stroke: #303030; stroke-width: 1.12; stroke-linecap: square"/>
     </g>
     <g id="line2d_14"/>
     <g id="text_7">
      <!-- 0 -->
      <g style="fill: #bbbbbb" transform="translate(118.042938 672.601605)scale(0.1785 -0.1785)">
       <use xlink:href="#DejaVuSans-30"/>
      </g>
     </g>
    </g>
    <g id="ytick_2">
     <g id="line2d_15">
      <path d="M 135 577.745767 
L 972 577.745767 
" clip-path="url(#p3e21d2b178)" style="fill: none; stroke: #303030; stroke-width: 1.12; stroke-linecap: square"/>
     </g>
     <g id="line2d_16"/>
     <g id="text_8">
      <!-- 1000 -->
      <g style="fill: #bbbbbb" transform="translate(83.97175 584.527372)scale(0.1785 -0.1785)">
       <defs>
        <path id="DejaVuSans-31" d="M 794 531 
L 1825 531 
L 1825 4091 
L 703 3866 
L 703 4441 
L 1819 4666 
L 2450 4666 
L 2450 531 
L 3481 531 
L 3481 0 
L 794 0 
L 794 531 
z
" transform="scale(0.015625)"/>
       </defs>
       <use xlink:href="#DejaVuSans-31"/>
       <use xlink:href="#DejaVuSans-30" x="63.623047"/>
       <use xlink:href="#DejaVuSans-30" x="127.246094"/>
       <use xlink:href="#DejaVuSans-30" x="190.869141"/>
      </g>
     </g>
    </g>
    <g id="ytick_3">
     <g id="line2d_17">
      <path d="M 135 489.671534 
L 972 489.671534 
" clip-path="url(#p3e21d2b178)" style="fill: none; stroke: #303030; stroke-width: 1.12; stroke-linecap: square"/>
     </g>
     <g id="line2d_18"/>
     <g id="text_9">
      <!-- 2000 -->
      <g style="fill: #bbbbbb" transform="translate(83.97175 496.453139)scale(0.1785 -0.1785)">
       <use xlink:href="#DejaVuSans-32"/>
       <use xlink:href="#DejaVuSans-30" x="63.623047"/>
       <use xlink:href="#DejaVuSans-30" x="127.246094"/>
       <use xlink:href="#DejaVuSans-30" x="190.869141"/>
      </g>
     </g>
    </g>
    <g id="ytick_4">
     <g id="line2d_19">
      <path d="M 135 401.597301 
L 972 401.597301 
" clip-path="url(#p3e21d2b178)" style="fill: none; stroke: #303030; stroke-width: 1.12; stroke-linecap: square"/>
     </g>
     <g id="line2d_20"/>
     <g id="text_10">
      <!-- 3000 -->
      <g style="fill: #bbbbbb" transform="translate(83.97175 408.378906)scale(0.1785 -0.1785)">
       <use xlink:href="#DejaVuSans-33"/>
       <use xlink:href="#DejaVuSans-30" x="63.623047"/>
       <use xlink:href="#DejaVuSans-30" x="127.246094"/>
       <use xlink:href="#DejaVuSans-30" x="190.869141"/>
      </g>
     </g>
    </g>
    <g id="ytick_5">
     <g id="line2d_21">
      <path d="M 135 313.523068 
L 972 313.523068 
" clip-path="url(#p3e21d2b178)" style="fill: none; stroke: #303030; stroke-width: 1.12; stroke-linecap: square"/>
     </g>
     <g id="line2d_22"/>
     <g id="text_11">
      <!-- 4000 -->
      <g style="fill: #bbbbbb" transform="translate(83.97175 320.304673)scale(0.1785 -0.1785)">
       <use xlink:href="#DejaVuSans-34"/>
       <use xlink:href="#DejaVuSans-30" x="63.623047"/>
       <use xlink:href="#DejaVuSans-30" x="127.246094"/>
       <use xlink:href="#DejaVuSans-30" x="190.869141"/>
      </g>
     </g>
    </g>
    <g id="ytick_6">
     <g id="line2d_23">
      <path d="M 135 225.448835 
L 972 225.448835 
" clip-path="url(#p3e21d2b178)" style="fill: none; stroke: #303030; stroke-width: 1.12; stroke-linecap: square"/>
     </g>
     <g id="line2d_24"/>
     <g id="text_12">
      <!-- 5000 -->
      <g style="fill: #bbbbbb" transform="translate(83.97175 232.23044)scale(0.1785 -0.1785)">
       <defs>
        <path id="DejaVuSans-35" d="M 691 4666 
L 3169 4666 
L 3169 4134 
L 1269 4134 
L 1269 2991 
Q 1406 3038 1543 3061 
Q 1681 3084 1819 3084 
Q 2600 3084 3056 2656 
Q 3513 2228 3513 1497 
Q 3513 744 3044 326 
Q 2575 -91 1722 -91 
Q 1428 -91 1123 -41 
Q 819 9 494 109 
L 494 744 
Q 775 591 1075 516 
Q 1375 441 1709 441 
Q 2250 441 2565 725 
Q 2881 1009 2881 1497 
Q 2881 1984 2565 2268 
Q 2250 2553 1709 2553 
Q 1456 2553 1204 2497 
Q 953 2441 691 2322 
L 691 4666 
z
" transform="scale(0.015625)"/>
       </defs>
       <use xlink:href="#DejaVuSans-35"/>
       <use xlink:href="#DejaVuSans-30" x="63.623047"/>
       <use xlink:href="#DejaVuSans-30" x="127.246094"/>
       <use xlink:href="#DejaVuSans-30" x="190.869141"/>
      </g>
     </g>
    </g>
    <g id="ytick_7">
     <g id="line2d_25">
      <path d="M 135 137.374602 
L 972 137.374602 
" clip-path="url(#p3e21d2b178)" style="fill: none; stroke: #303030; stroke-width: 1.12; stroke-linecap: square"/>
     </g>
     <g id="line2d_26"/>
     <g id="text_13">
      <!-- 6000 -->
      <g style="fill: #bbbbbb" transform="translate(83.97175 144.156207)scale(0.1785 -0.1785)">
       <use xlink:href="#DejaVuSans-36"/>
       <use xlink:href="#DejaVuSans-30" x="63.623047"/>
       <use xlink:href="#DejaVuSans-30" x="127.246094"/>
       <use xlink:href="#DejaVuSans-30" x="190.869141"/>
      </g>
     </g>
    </g>
   </g>
   <g id="line2d_27">
    <path d="M 173.045455 606.519801 
L 173.807125 653.458661 
L 174.568796 640.922329 
L 175.330467 568.386568 
L 176.092138 665.04415 
L 176.853808 664.940624 
L 177.615479 635.402972 
L 178.37715 623.451555 
L 179.138821 642.466665 
L 179.900491 626.422792 
L 180.662162 665.82 
L 181.423833 664.54385 
L 182.185504 593.081936 
L 182.947174 567.254055 
L 183.708845 665.778258 
L 184.470516 637.262905 
L 185.232187 561.668171 
L 185.993857 582.027409 
L 186.755528 664.37542 
L 187.517199 552.00734 
L 188.27887 383.854751 
L 189.040541 659.182883 
L 189.802211 650.759414 
L 190.563882 230.066166 
L 191.325553 665.567939 
L 192.087224 611.860198 
L 192.848894 569.821503 
L 193.610565 518.940041 
L 194.372236 599.259727 
L 195.133907 635.717013 
L 195.895577 643.510028 
L 196.657248 662.25647 
L 197.418919 665.82 
L 198.94226 665.82 
L 199.703931 637.296171 
L 200.465602 620.965804 
L 201.227273 617.343507 
L 201.988943 632.357319 
L 202.750614 632.026384 
L 203.512285 665.595077 
L 204.273956 523.444585 
L 205.035627 625.557589 
L 205.797297 648.177419 
L 206.558968 665.565161 
L 207.320639 486.65742 
L 208.08231 601.700181 
L 208.84398 570.747602 
L 209.605651 648.669019 
L 210.367322 654.845044 
L 211.128993 593.565328 
L 211.890663 589.705931 
L 212.652334 665.817201 
L 213.414005 665.516124 
L 214.175676 342.647804 
L 214.937346 647.929197 
L 215.699017 377.666293 
L 216.460688 638.204255 
L 217.222359 306.293986 
L 217.984029 640.753399 
L 218.7457 663.501572 
L 219.507371 609.565836 
L 220.269042 517.165191 
L 221.030713 623.039095 
L 221.792383 194.119901 
L 222.554054 649.182204 
L 223.315725 353.277179 
L 224.077396 590.00216 
L 224.839066 614.363283 
L 225.600737 557.165644 
L 226.362408 515.191034 
L 227.124079 528.78443 
L 227.885749 642.139972 
L 228.64742 591.097891 
L 229.409091 558.378582 
L 230.170762 653.850135 
L 230.932432 360.263335 
L 231.694103 613.958313 
L 232.455774 573.360093 
L 233.217445 499.629266 
L 233.979115 606.518076 
L 234.740786 592.491228 
L 235.502457 647.812616 
L 236.264128 573.187905 
L 237.025799 659.754461 
L 237.787469 499.321947 
L 238.54914 166.192712 
L 239.310811 650.918703 
L 240.072482 624.172475 
L 240.834152 382.02201 
L 241.595823 364.622691 
L 242.357494 571.591654 
L 243.119165 608.642325 
L 243.880835 663.667473 
L 244.642506 644.91621 
L 245.404177 621.637788 
L 246.165848 664.318265 
L 246.927518 331.562035 
L 247.689189 638.121244 
L 248.45086 644.437072 
L 249.212531 618.184501 
L 249.974201 649.528954 
L 250.735872 653.575888 
L 251.497543 471.994326 
L 252.259214 598.694391 
L 253.020885 644.922069 
L 253.782555 610.496636 
L 254.544226 284.153057 
L 255.305897 530.427683 
L 256.067568 546.927917 
L 256.829238 475.329992 
L 257.590909 665.82 
L 258.35258 213.142158 
L 259.114251 646.428754 
L 259.875921 665.604679 
L 260.637592 600.424963 
L 261.399263 643.734353 
L 262.160934 641.290036 
L 262.922604 397.938976 
L 263.684275 613.757204 
L 264.445946 258.698105 
L 265.207617 661.111724 
L 265.969287 559.926375 
L 266.730958 646.863875 
L 267.492629 525.721649 
L 268.2543 645.722168 
L 269.015971 662.520196 
L 269.777641 563.116877 
L 270.539312 630.673129 
L 271.300983 663.202345 
L 272.062654 640.867535 
L 272.824324 610.673712 
L 273.585995 548.695162 
L 274.347666 573.904756 
L 275.109337 356.469991 
L 275.871007 571.327729 
L 276.632678 610.161485 
L 277.394349 604.490044 
L 278.15602 665.819778 
L 278.91769 596.363694 
L 279.679361 579.824952 
L 280.441032 523.830356 
L 281.202703 618.672595 
L 281.964373 635.632191 
L 282.726044 566.826755 
L 283.487715 629.015461 
L 284.249386 656.882261 
L 285.011057 665.797676 
L 285.772727 561.795702 
L 286.534398 653.596988 
L 287.296069 653.252358 
L 288.05774 665.82 
L 288.81941 665.766566 
L 289.581081 648.07435 
L 290.342752 621.19902 
L 291.104423 649.407926 
L 291.866093 560.375926 
L 292.627764 649.855989 
L 293.389435 644.396228 
L 294.151106 625.003696 
L 294.912776 640.926731 
L 295.674447 665.82 
L 296.436118 653.469167 
L 297.197789 503.344353 
L 297.959459 264.978104 
L 298.72113 652.087276 
L 299.482801 665.737251 
L 300.244472 598.315809 
L 301.006143 662.473214 
L 302.529484 635.301036 
L 303.291155 567.289913 
L 304.052826 340.927832 
L 304.814496 538.806466 
L 305.576167 607.549547 
L 307.099509 506.476392 
L 307.861179 665.819516 
L 308.62285 461.717389 
L 309.384521 660.377263 
L 310.146192 655.79232 
L 310.907862 569.450815 
L 311.669533 607.777908 
L 312.431204 606.633581 
L 313.192875 657.827967 
L 314.716216 599.792512 
L 315.477887 632.845496 
L 316.239558 640.557921 
L 317.001229 613.365258 
L 317.762899 593.876618 
L 318.52457 661.825048 
L 319.286241 655.13702 
L 320.047912 612.48719 
L 320.809582 628.953715 
L 321.571253 524.844393 
L 322.332924 619.393359 
L 323.094595 574.657516 
L 324.617936 650.788273 
L 325.379607 519.290136 
L 326.141278 649.143852 
L 326.902948 665.680919 
L 327.664619 615.352863 
L 328.42629 577.582478 
L 329.187961 612.46068 
L 329.949631 611.239044 
L 330.711302 641.7803 
L 331.472973 589.477073 
L 332.234644 660.539726 
L 332.996314 645.055652 
L 333.757985 652.235763 
L 334.519656 631.549867 
L 335.281327 642.743129 
L 336.042998 648.182979 
L 336.804668 620.433096 
L 337.566339 580.247346 
L 338.32801 603.762701 
L 339.089681 638.863472 
L 339.851351 662.348571 
L 340.613022 623.880526 
L 341.374693 650.492144 
L 342.136364 571.720274 
L 342.898034 665.61266 
L 343.659705 665.785774 
L 344.421376 617.844646 
L 345.183047 648.874029 
L 345.944717 665.82 
L 346.706388 588.310617 
L 347.468059 614.467123 
L 348.22973 531.963381 
L 348.9914 661.933977 
L 349.753071 583.604523 
L 350.514742 397.875308 
L 351.276413 616.723605 
L 352.038084 629.386502 
L 352.799754 611.476496 
L 353.561425 555.421579 
L 354.323096 617.83467 
L 355.084767 655.348719 
L 355.846437 647.320992 
L 356.608108 618.756153 
L 357.369779 425.099432 
L 358.13145 660.932801 
L 358.89312 443.221184 
L 359.654791 665.819999 
L 360.416462 643.712525 
L 361.178133 665.651091 
L 361.939803 438.898774 
L 362.701474 451.851079 
L 363.463145 534.255502 
L 364.224816 657.160458 
L 364.986486 663.701498 
L 365.748157 665.82 
L 366.509828 573.218873 
L 367.271499 624.408206 
L 368.03317 665.817381 
L 368.79484 606.836425 
L 369.556511 568.044509 
L 370.318182 658.809964 
L 371.079853 535.104954 
L 371.841523 665.047538 
L 372.603194 654.151505 
L 373.364865 552.561794 
L 374.126536 665.782266 
L 374.888206 636.875589 
L 375.649877 665.819947 
L 376.411548 318.552688 
L 377.173219 633.509591 
L 377.934889 598.384098 
L 378.69656 631.531312 
L 379.458231 589.721691 
L 380.219902 665.82 
L 380.981572 573.648213 
L 381.743243 612.962557 
L 382.504914 615.874177 
L 383.266585 590.930561 
L 384.028256 653.047917 
L 384.789926 620.714798 
L 385.551597 573.406269 
L 386.313268 654.200161 
L 387.074939 614.333375 
L 387.836609 665.82 
L 388.59828 575.278903 
L 390.121622 650.262941 
L 390.883292 572.362615 
L 391.644963 523.881769 
L 392.406634 665.647601 
L 393.168305 551.043693 
L 393.929975 665.810166 
L 394.691646 580.46828 
L 395.453317 452.43075 
L 396.214988 642.985464 
L 396.976658 563.656373 
L 397.738329 645.747882 
L 398.5 665.82 
L 399.261671 550.966402 
L 400.023342 596.460208 
L 400.785012 542.066895 
L 401.546683 664.905266 
L 402.308354 637.854494 
L 403.070025 641.476426 
L 403.831695 637.170705 
L 404.593366 617.157377 
L 405.355037 635.209061 
L 406.116708 534.00367 
L 406.878378 571.18914 
L 407.640049 619.0972 
L 408.40172 653.920154 
L 409.163391 517.552991 
L 409.925061 663.158156 
L 410.686732 665.82 
L 411.448403 605.040217 
L 412.210074 625.71265 
L 412.971744 500.003758 
L 413.733415 615.011154 
L 414.495086 598.552553 
L 415.256757 591.608398 
L 416.018428 579.74671 
L 416.780098 665.82 
L 417.541769 594.885423 
L 418.30344 652.800587 
L 419.065111 612.824976 
L 419.826781 603.96021 
L 420.588452 598.947658 
L 421.350123 600.712335 
L 422.873464 665.82 
L 423.635135 572.886402 
L 424.396806 633.518936 
L 425.158477 633.230613 
L 425.920147 475.125255 
L 426.681818 543.095343 
L 427.443489 274.124549 
L 428.20516 616.940764 
L 428.96683 470.946257 
L 429.728501 519.076585 
L 430.490172 632.249938 
L 431.251843 519.587111 
L 432.013514 585.376165 
L 432.775184 232.109783 
L 433.536855 329.940269 
L 434.298526 569.766204 
L 435.060197 641.207128 
L 435.821867 614.733721 
L 436.583538 653.201215 
L 437.345209 633.225596 
L 438.10688 665.82 
L 438.86855 649.519593 
L 439.630221 643.652047 
L 440.391892 348.151173 
L 441.153563 574.25807 
L 441.915233 664.006601 
L 442.676904 664.217072 
L 443.438575 641.672321 
L 444.200246 645.354706 
L 444.961916 665.713433 
L 445.723587 462.974713 
L 446.485258 567.809873 
L 447.246929 637.298277 
L 448.0086 653.437725 
L 448.77027 618.574124 
L 449.531941 232.012627 
L 450.293612 663.592155 
L 451.055283 511.742976 
L 451.816953 661.69451 
L 452.578624 343.476165 
L 453.340295 660.917763 
L 454.101966 313.974914 
L 454.863636 636.245629 
L 455.625307 617.951167 
L 456.386978 642.363317 
L 457.148649 419.716601 
L 457.910319 642.342236 
L 458.67199 605.157997 
L 459.433661 506.714079 
L 460.195332 620.485943 
L 460.957002 663.201853 
L 462.480344 550.141608 
L 463.242015 665.802566 
L 464.003686 591.014113 
L 464.765356 655.29005 
L 465.527027 632.984293 
L 466.288698 502.163272 
L 467.050369 511.09974 
L 467.812039 568.730921 
L 468.57371 656.565642 
L 469.335381 599.959329 
L 470.097052 608.012143 
L 470.858722 122.22 
L 472.382064 658.518661 
L 473.143735 578.488612 
L 473.905405 545.24246 
L 474.667076 665.82 
L 475.428747 590.336528 
L 476.190418 665.281123 
L 476.952088 623.36715 
L 477.713759 664.824754 
L 478.47543 626.593457 
L 479.237101 532.515315 
L 479.998771 478.175423 
L 480.760442 644.413634 
L 481.522113 665.82 
L 482.283784 539.11872 
L 483.045455 623.865882 
L 483.807125 620.159586 
L 484.568796 665.819988 
L 485.330467 634.704876 
L 486.092138 553.078739 
L 486.853808 653.879219 
L 487.615479 554.877292 
L 488.37715 643.697159 
L 489.138821 649.811388 
L 489.900491 555.977375 
L 491.423833 665.82 
L 492.185504 663.98301 
L 492.947174 530.960173 
L 493.708845 558.708383 
L 494.470516 628.534671 
L 495.232187 640.822771 
L 495.993857 587.315816 
L 496.755528 662.006306 
L 497.517199 408.472266 
L 498.27887 637.919726 
L 499.040541 523.375271 
L 499.802211 594.559105 
L 501.325553 663.302616 
L 502.087224 634.781885 
L 502.848894 657.890025 
L 503.610565 534.72155 
L 504.372236 507.028607 
L 505.133907 661.496953 
L 505.895577 651.717877 
L 506.657248 655.248423 
L 507.418919 564.626739 
L 508.18059 602.652661 
L 508.94226 651.086399 
L 509.703931 518.608935 
L 510.465602 524.700721 
L 511.227273 604.777752 
L 511.988943 570.832069 
L 512.750614 643.581722 
L 513.512285 657.673191 
L 514.273956 665.819992 
L 515.035627 432.631504 
L 515.797297 629.835255 
L 516.558968 591.908072 
L 517.320639 665.74155 
L 518.08231 616.921129 
L 518.84398 665.638342 
L 519.605651 628.729891 
L 520.367322 654.614157 
L 521.128993 665.552965 
L 521.890663 609.019856 
L 522.652334 354.535589 
L 523.414005 615.159701 
L 524.175676 664.759907 
L 524.937346 665.82 
L 525.699017 631.248131 
L 527.222359 540.921847 
L 527.984029 625.367624 
L 528.7457 210.009602 
L 529.507371 664.806622 
L 530.269042 602.24426 
L 531.030713 602.553552 
L 531.792383 662.201973 
L 532.554054 658.056551 
L 533.315725 456.678099 
L 534.077396 490.446906 
L 534.839066 649.181492 
L 535.600737 610.896553 
L 536.362408 625.115237 
L 537.124079 564.284525 
L 537.885749 546.496442 
L 538.64742 252.516087 
L 539.409091 615.066534 
L 540.170762 577.616265 
L 540.932432 632.560747 
L 541.694103 665.680078 
L 542.455774 658.457689 
L 543.217445 664.348863 
L 543.979115 578.661259 
L 544.740786 548.77355 
L 545.502457 543.707369 
L 546.264128 592.804701 
L 547.025799 628.517078 
L 547.787469 629.706238 
L 548.54914 618.156094 
L 549.310811 620.832601 
L 550.072482 612.961897 
L 550.834152 663.050566 
L 551.595823 610.457228 
L 552.357494 645.203969 
L 553.119165 593.736728 
L 553.880835 336.181795 
L 554.642506 407.397224 
L 555.404177 581.784718 
L 556.165848 640.316574 
L 557.689189 665.025656 
L 558.45086 621.340487 
L 559.212531 658.407592 
L 559.974201 615.365903 
L 560.735872 505.075717 
L 561.497543 665.413114 
L 562.259214 553.386081 
L 563.020885 623.160764 
L 563.782555 588.638541 
L 564.544226 665.819996 
L 565.305897 414.665968 
L 566.067568 661.625851 
L 566.829238 631.203773 
L 567.590909 551.239827 
L 568.35258 454.986153 
L 569.114251 655.245169 
L 569.875921 623.289617 
L 570.637592 480.323812 
L 571.399263 632.642307 
L 572.160934 650.104916 
L 572.922604 661.298314 
L 573.684275 597.183834 
L 574.445946 583.259981 
L 575.207617 646.90708 
L 575.969287 600.258482 
L 576.730958 544.999465 
L 577.492629 661.646994 
L 578.2543 521.322496 
L 579.015971 654.431923 
L 579.777641 628.794582 
L 580.539312 661.159701 
L 581.300983 603.008487 
L 582.062654 456.660662 
L 582.824324 646.439883 
L 583.585995 555.170062 
L 584.347666 560.336877 
L 585.109337 525.079602 
L 585.871007 641.046435 
L 586.632678 654.918746 
L 587.394349 662.932245 
L 588.15602 614.787287 
L 588.91769 665.82 
L 589.679361 665.82 
L 590.441032 656.40949 
L 591.202703 600.295975 
L 591.964373 649.649203 
L 592.726044 620.635407 
L 593.487715 345.956399 
L 594.249386 651.700733 
L 595.011057 564.021047 
L 595.772727 651.154709 
L 596.534398 452.182587 
L 597.296069 634.248648 
L 598.05774 665.757977 
L 598.81941 617.353908 
L 599.581081 664.969114 
L 600.342752 623.05165 
L 601.104423 603.173083 
L 601.866093 613.06874 
L 602.627764 581.132239 
L 603.389435 651.25593 
L 604.151106 644.234968 
L 604.912776 603.313432 
L 605.674447 497.405764 
L 606.436118 665.544685 
L 607.959459 624.652653 
L 608.72113 573.64633 
L 609.482801 617.075054 
L 610.244472 651.543469 
L 611.006143 623.175428 
L 611.767813 658.477391 
L 612.529484 641.480306 
L 613.291155 648.896287 
L 614.052826 549.303122 
L 614.814496 567.049656 
L 615.576167 663.370862 
L 616.337838 660.244422 
L 617.099509 598.114624 
L 617.861179 577.054384 
L 618.62285 578.353439 
L 619.384521 612.735668 
L 620.146192 628.942069 
L 620.907862 623.881489 
L 621.669533 544.376801 
L 622.431204 566.918975 
L 623.192875 645.292496 
L 623.954545 665.746199 
L 624.716216 642.793337 
L 625.477887 651.807923 
L 626.239558 614.102345 
L 627.001229 553.841093 
L 627.762899 483.909737 
L 628.52457 636.803132 
L 629.286241 665.82 
L 630.047912 494.971973 
L 630.809582 628.593484 
L 631.571253 543.403612 
L 632.332924 597.870406 
L 633.094595 662.909625 
L 633.856265 655.901762 
L 634.617936 590.169299 
L 635.379607 645.086878 
L 636.141278 488.978585 
L 636.902948 259.711201 
L 637.664619 627.237652 
L 638.42629 600.430963 
L 639.187961 547.436793 
L 639.949631 519.994305 
L 640.711302 635.109021 
L 641.472973 586.010222 
L 642.234644 665.82 
L 642.996314 665.819965 
L 643.757985 653.339072 
L 644.519656 665.808954 
L 645.281327 657.495898 
L 646.042998 651.35491 
L 646.804668 565.114301 
L 647.566339 665.795095 
L 648.32801 216.923528 
L 649.089681 601.647321 
L 649.851351 665.738002 
L 650.613022 616.803479 
L 651.374693 514.237209 
L 652.136364 627.044727 
L 652.898034 479.970995 
L 653.659705 595.575206 
L 654.421376 663.730604 
L 655.183047 524.999276 
L 655.944717 626.669364 
L 656.706388 598.432979 
L 657.468059 238.885933 
L 658.22973 587.690419 
L 658.9914 630.181675 
L 660.514742 544.016299 
L 661.276413 575.458581 
L 662.038084 555.460129 
L 662.799754 604.485403 
L 663.561425 610.764797 
L 664.323096 581.205835 
L 665.084767 662.694271 
L 665.846437 628.420862 
L 666.608108 665.82 
L 667.369779 665.82 
L 668.13145 531.393045 
L 668.89312 665.046815 
L 669.654791 571.320828 
L 670.416462 570.619969 
L 671.178133 665.330897 
L 671.939803 578.087704 
L 672.701474 655.915439 
L 673.463145 557.377907 
L 674.224816 665.82 
L 674.986486 536.052349 
L 675.748157 548.860746 
L 676.509828 421.338187 
L 677.271499 616.493064 
L 678.03317 575.931987 
L 678.79484 640.546676 
L 679.556511 573.279065 
L 680.318182 635.896261 
L 681.079853 169.812357 
L 681.841523 387.610002 
L 682.603194 556.611115 
L 683.364865 312.997784 
L 684.126536 589.344631 
L 684.888206 454.697549 
L 685.649877 593.540741 
L 686.411548 649.202376 
L 687.173219 528.459665 
L 687.934889 567.78072 
L 688.69656 665.82 
L 689.458231 536.050127 
L 690.219902 615.911651 
L 690.981572 657.170836 
L 691.743243 580.539183 
L 692.504914 650.208441 
L 693.266585 566.522009 
L 694.028256 627.870735 
L 694.789926 621.2146 
L 695.551597 643.797395 
L 696.313268 457.790437 
L 697.074939 643.638413 
L 697.836609 611.17276 
L 698.59828 627.511257 
L 699.359951 601.27367 
L 700.121622 605.363829 
L 700.883292 665.807079 
L 701.644963 647.322318 
L 702.406634 522.328554 
L 703.168305 463.817628 
L 703.929975 535.534859 
L 704.691646 660.859099 
L 705.453317 664.845594 
L 706.214988 648.080396 
L 706.976658 608.098521 
L 707.738329 509.66778 
L 708.5 245.872177 
L 709.261671 649.139804 
L 710.023342 578.679974 
L 710.785012 665.82 
L 711.546683 593.261975 
L 712.308354 575.475016 
L 713.070025 476.01122 
L 713.831695 656.130137 
L 714.593366 450.894448 
L 715.355037 661.313453 
L 716.116708 664.964375 
L 716.878378 473.196531 
L 717.640049 549.535494 
L 718.40172 611.443585 
L 719.163391 590.428516 
L 719.925061 546.790847 
L 720.686732 639.387755 
L 721.448403 646.13427 
L 722.210074 639.756528 
L 722.971744 630.214101 
L 723.733415 649.85264 
L 724.495086 550.882448 
L 725.256757 576.666418 
L 726.018428 615.192789 
L 726.780098 614.074986 
L 728.30344 399.381153 
L 729.065111 647.890499 
L 729.826781 641.736138 
L 730.588452 486.289048 
L 731.350123 600.311861 
L 732.111794 610.642806 
L 732.873464 660.734985 
L 733.635135 657.065264 
L 734.396806 655.431634 
L 735.158477 665.82 
L 735.920147 508.357458 
L 736.681818 665.818617 
L 737.443489 540.301301 
L 738.20516 245.871683 
L 738.96683 628.124138 
L 739.728501 665.7916 
L 740.490172 548.675494 
L 741.251843 663.654192 
L 742.013514 636.614307 
L 742.775184 561.225427 
L 743.536855 635.036012 
L 744.298526 591.912013 
L 745.060197 589.74497 
L 745.821867 613.467264 
L 746.583538 665.609991 
L 747.345209 638.491349 
L 748.10688 638.278899 
L 748.86855 619.668397 
L 749.630221 663.463479 
L 750.391892 662.854077 
L 751.153563 641.71258 
L 751.915233 378.125371 
L 752.676904 562.23547 
L 753.438575 653.414871 
L 754.200246 627.409167 
L 754.961916 586.582613 
L 755.723587 656.357106 
L 756.485258 635.569086 
L 757.246929 560.73765 
L 758.0086 655.82345 
L 759.531941 585.955856 
L 760.293612 619.993452 
L 761.055283 631.381275 
L 761.816953 665.819383 
L 762.578624 563.636124 
L 763.340295 593.005725 
L 764.101966 665.82 
L 764.863636 276.282281 
L 765.625307 662.745298 
L 766.386978 663.437098 
L 767.148649 631.402628 
L 767.910319 654.092355 
L 768.67199 613.331036 
L 769.433661 652.109274 
L 770.195332 625.894479 
L 770.957002 500.387796 
L 771.718673 493.023393 
L 772.480344 661.55155 
L 773.242015 472.067129 
L 774.003686 643.8913 
L 775.527027 560.473976 
L 776.288698 655.86268 
L 777.050369 657.265323 
L 777.812039 630.313629 
L 778.57371 325.403328 
L 779.335381 634.385672 
L 780.097052 341.523452 
L 780.858722 665.694768 
L 781.620393 205.354177 
L 782.382064 496.792842 
L 783.143735 332.160198 
L 783.905405 515.01984 
L 784.667076 636.804979 
L 785.428747 528.078714 
L 786.190418 635.768916 
L 786.952088 656.666727 
L 787.713759 227.130244 
L 788.47543 513.826769 
L 789.237101 652.680005 
L 789.998771 652.43863 
L 790.760442 575.221517 
L 791.522113 646.645122 
L 792.283784 661.379133 
L 793.045455 601.788749 
L 793.807125 558.208002 
L 794.568796 320.821751 
L 795.330467 545.543475 
L 796.092138 661.455638 
L 796.853808 665.80718 
L 797.615479 577.836827 
L 798.37715 655.266481 
L 799.138821 555.004415 
L 799.900491 336.881747 
L 800.662162 650.727457 
L 801.423833 665.253039 
L 802.185504 591.472272 
L 802.947174 630.514558 
L 803.708845 621.498477 
L 804.470516 665.001816 
L 805.232187 623.446685 
L 805.993857 627.514259 
L 806.755528 617.562462 
L 807.517199 449.002615 
L 808.27887 629.573899 
L 809.040541 664.595446 
L 809.802211 665.792692 
L 810.563882 602.547045 
L 811.325553 582.414476 
L 812.087224 664.445127 
L 812.848894 573.064574 
L 813.610565 628.752253 
L 814.372236 647.337874 
L 815.133907 634.444885 
L 815.895577 637.301057 
L 816.657248 498.417659 
L 817.418919 647.473645 
L 818.18059 633.606884 
L 818.94226 624.629954 
L 819.703931 621.302849 
L 820.465602 590.77106 
L 821.227273 569.082963 
L 821.988943 538.504022 
L 822.750614 567.184802 
L 823.512285 535.332572 
L 824.273956 569.765276 
L 825.035627 637.411561 
L 825.797297 601.71564 
L 826.558968 403.852121 
L 827.320639 657.68107 
L 828.08231 615.008123 
L 828.84398 553.44452 
L 829.605651 602.336716 
L 830.367322 595.904577 
L 831.128993 552.780444 
L 831.890663 544.797187 
L 832.652334 618.346331 
L 833.414005 585.864487 
L 834.175676 599.607321 
L 834.937346 646.840868 
L 835.699017 629.422985 
L 836.460688 605.151661 
L 837.222359 665.806719 
L 837.984029 604.252993 
L 839.507371 644.215984 
L 840.269042 569.037212 
L 841.030713 198.46497 
L 841.792383 606.580372 
L 842.554054 644.67202 
L 843.315725 664.780935 
L 844.077396 595.727726 
L 844.839066 641.142587 
L 845.600737 551.450904 
L 847.124079 638.426709 
L 847.885749 664.416507 
L 848.64742 604.847361 
L 849.409091 652.489631 
L 850.170762 532.401199 
L 850.932432 630.092526 
L 851.694103 652.878125 
L 852.455774 479.731515 
L 853.217445 501.541687 
L 853.979115 570.887777 
L 854.740786 658.42019 
L 855.502457 625.11207 
L 856.264128 624.855528 
L 857.025799 620.170842 
L 857.787469 586.020522 
L 858.54914 536.585908 
L 859.310811 632.039847 
L 860.072482 625.408474 
L 860.834152 624.515677 
L 861.595823 536.517909 
L 862.357494 580.847196 
L 863.119165 663.449887 
L 863.880835 643.128574 
L 864.642506 598.249421 
L 865.404177 594.020347 
L 866.165848 612.303474 
L 866.927518 594.030317 
L 867.689189 360.203079 
L 868.45086 658.317888 
L 869.212531 550.3341 
L 869.974201 647.496775 
L 870.735872 602.762437 
L 871.497543 614.360133 
L 872.259214 573.269933 
L 873.020885 650.986884 
L 873.782555 640.701229 
L 874.544226 560.222687 
L 875.305897 527.272535 
L 876.067568 655.306096 
L 876.829238 665.82 
L 877.590909 319.5236 
L 878.35258 660.618167 
L 879.114251 625.219432 
L 879.875921 641.650672 
L 880.637592 663.332845 
L 881.399263 374.083744 
L 882.160934 639.867212 
L 882.922604 619.315944 
L 883.684275 532.932723 
L 884.445946 662.046825 
L 885.207617 664.635473 
L 885.969287 615.495243 
L 886.730958 629.323381 
L 887.492629 602.475497 
L 888.2543 646.718206 
L 889.015971 650.134493 
L 889.777641 562.1745 
L 890.539312 406.360121 
L 891.300983 647.613867 
L 892.062654 362.214413 
L 892.824324 663.759026 
L 893.585995 634.696604 
L 894.347666 543.298367 
L 895.109337 563.367745 
L 895.871007 588.625382 
L 896.632678 621.463804 
L 897.394349 664.913178 
L 898.15602 627.566521 
L 898.91769 515.129539 
L 899.679361 594.430772 
L 900.441032 514.775361 
L 901.202703 570.167823 
L 901.964373 610.475936 
L 902.726044 547.191553 
L 903.487715 649.851741 
L 904.249386 577.272549 
L 905.011057 611.079456 
L 905.772727 612.549506 
L 906.534398 653.713236 
L 907.296069 645.049214 
L 908.05774 661.606523 
L 908.81941 559.609711 
L 909.581081 164.955467 
L 910.342752 550.259306 
L 911.104423 582.086407 
L 911.866093 431.195118 
L 912.627764 591.651388 
L 913.389435 630.886635 
L 914.151106 635.117399 
L 914.912776 563.647887 
L 915.674447 595.586378 
L 916.436118 660.448451 
L 917.197789 614.779604 
L 917.959459 663.869356 
L 918.72113 660.168892 
L 919.482801 627.152674 
L 920.244472 608.463924 
L 921.006143 615.529955 
L 921.767813 423.556794 
L 922.529484 507.523612 
L 923.291155 628.822173 
L 924.052826 636.980943 
L 924.814496 659.969121 
L 925.576167 629.440146 
L 926.337838 624.778088 
L 927.099509 665.819986 
L 927.861179 537.345667 
L 928.62285 659.725178 
L 929.384521 633.368459 
L 930.146192 584.75395 
L 930.907862 567.793379 
L 931.669533 545.323819 
L 932.431204 639.625312 
L 933.192875 526.786144 
L 933.954545 603.596301 
L 933.954545 603.596301 
" clip-path="url(#p3e21d2b178)" style="fill: none; stroke-dasharray: 4.44,1.92; stroke-dashoffset: 0; stroke: #3572c6; stroke-width: 1.2"/>
   </g>
   <g id="line2d_28">
    <path d="M 173.045455 644.259428 
L 173.807125 656.924502 
L 174.568796 660.249305 
L 175.330467 638.428914 
L 176.092138 665.758348 
L 176.853808 665.432473 
L 177.615479 659.654804 
L 178.37715 496.100953 
L 179.138821 630.898567 
L 179.900491 650.248476 
L 180.662162 665.815596 
L 181.423833 664.340353 
L 182.185504 587.962378 
L 182.947174 605.929522 
L 183.708845 665.749541 
L 184.470516 645.298704 
L 185.232187 637.1078 
L 185.993857 633.985568 
L 186.755528 665.648255 
L 187.517199 605.929522 
L 188.27887 647.940931 
L 189.040541 657.893319 
L 189.802211 653.489607 
L 190.563882 441.142632 
L 191.325553 665.723118 
L 192.087224 610.245159 
L 192.848894 441.142632 
L 193.610565 518.912179 
L 194.372236 649.587919 
L 195.133907 655.691463 
L 197.418919 665.815596 
L 198.18059 665.568988 
L 198.94226 665.555777 
L 199.703931 665.419262 
L 200.465602 638.54341 
L 201.988943 657.452948 
L 202.750614 654.427598 
L 203.512285 665.480914 
L 204.273956 604.960705 
L 205.035627 641.744908 
L 205.797297 655.251092 
L 206.558968 665.753944 
L 207.320639 657.563041 
L 208.08231 657.32524 
L 208.84398 626.274669 
L 209.605651 660.271323 
L 210.367322 646.496513 
L 211.128993 657.012577 
L 211.890663 651.111603 
L 212.652334 665.551374 
L 214.175676 626.600544 
L 214.937346 664.234664 
L 215.699017 644.858333 
L 216.460688 653.049236 
L 217.222359 551.323497 
L 217.984029 644.259428 
L 218.7457 665.480914 
L 219.507371 645.474852 
L 220.269042 515.309943 
L 221.030713 649.966638 
L 221.792383 485.43076 
L 222.554054 660.491509 
L 223.315725 633.985568 
L 224.077396 611.790862 
L 224.839066 641.696468 
L 225.600737 552.728281 
L 226.362408 540.049995 
L 227.124079 571.518919 
L 227.885749 654.76228 
L 228.64742 632.853815 
L 229.409091 653.313459 
L 230.170762 643.801442 
L 230.932432 595.800985 
L 231.694103 639.750027 
L 232.455774 606.898338 
L 233.217445 507.550603 
L 233.979115 646.707891 
L 234.740786 627.516516 
L 235.502457 661.337022 
L 236.264128 598.002841 
L 237.025799 664.058515 
L 237.787469 577.270166 
L 238.54914 559.250178 
L 239.310811 664.886413 
L 240.834152 648.456165 
L 241.595823 527.596299 
L 242.357494 594.484275 
L 243.119165 647.676708 
L 243.880835 665.423666 
L 244.642506 619.140657 
L 245.404177 657.893319 
L 246.165848 665.287151 
L 246.927518 620.725993 
L 247.689189 656.131834 
L 248.45086 656.924502 
L 249.212531 649.526267 
L 249.974201 664.234664 
L 250.735872 663.177773 
L 251.497543 469.863639 
L 252.259214 643.801442 
L 253.020885 657.012577 
L 253.782555 662.961991 
L 254.544226 526.134266 
L 255.305897 659.835356 
L 256.067568 648.205153 
L 256.829238 658.774061 
L 257.590909 665.300362 
L 258.35258 524.901227 
L 259.114251 661.32381 
L 259.875921 665.661466 
L 260.637592 603.569132 
L 261.399263 655.013292 
L 262.160934 663.345114 
L 262.922604 575.028677 
L 263.684275 642.515558 
L 264.445946 414.808436 
L 265.207617 661.768585 
L 265.969287 627.771931 
L 266.730958 664.763109 
L 267.492629 536.703174 
L 268.2543 663.895578 
L 269.015971 665.467703 
L 269.777641 602.406552 
L 270.539312 647.386063 
L 271.300983 664.498887 
L 272.062654 665.379629 
L 272.824324 652.50758 
L 274.347666 566.864196 
L 275.109337 525.341598 
L 275.871007 602.406552 
L 276.632678 650.84738 
L 277.394349 658.840117 
L 278.15602 629.709564 
L 278.91769 646.795966 
L 279.679361 634.883926 
L 280.441032 574.764454 
L 281.202703 657.66873 
L 281.964373 658.417361 
L 282.726044 609.804788 
L 283.487715 655.528526 
L 284.249386 663.939615 
L 285.011057 665.591007 
L 285.772727 604.344185 
L 286.534398 664.239068 
L 287.296069 663.679796 
L 288.05774 665.815596 
L 288.81941 665.789174 
L 289.581081 658.64195 
L 290.342752 656.180275 
L 291.104423 663.926404 
L 291.866093 606.281818 
L 292.627764 661.24014 
L 293.389435 651.199677 
L 294.151106 661.680511 
L 294.912776 657.281203 
L 295.674447 665.745137 
L 296.436118 665.295958 
L 297.197789 622.337751 
L 297.959459 625.305853 
L 298.72113 664.142186 
L 299.482801 665.731926 
L 300.244472 630.145532 
L 301.006143 662.297031 
L 301.767813 665.621833 
L 302.529484 626.186595 
L 303.291155 613.680054 
L 304.052826 580.211846 
L 304.814496 650.050309 
L 305.576167 640.718844 
L 306.337838 597.562469 
L 307.099509 642.039957 
L 307.861179 665.762752 
L 308.62285 651.728123 
L 309.384521 665.480914 
L 310.146192 660.799769 
L 310.907862 643.89392 
L 311.669533 643.435934 
L 312.431204 624.865482 
L 313.192875 663.979249 
L 313.954545 657.012577 
L 314.716216 645.915223 
L 315.477887 657.501389 
L 316.239558 662.931165 
L 317.001229 654.810721 
L 317.762899 642.832625 
L 318.52457 664.855587 
L 319.286241 665.555777 
L 320.047912 620.620304 
L 320.809582 640.665999 
L 321.571253 604.960705 
L 322.332924 657.012577 
L 323.094595 646.355595 
L 323.856265 654.110531 
L 324.617936 652.014364 
L 325.379607 631.101137 
L 326.141278 650.407009 
L 326.902948 665.551374 
L 327.664619 654.282275 
L 328.42629 602.626738 
L 329.187961 630.590307 
L 329.949631 647.588634 
L 330.711302 661.504363 
L 331.472973 660.341783 
L 332.234644 665.229903 
L 332.996314 641.159215 
L 333.757985 662.200149 
L 334.519656 656.136238 
L 335.281327 659.919026 
L 336.042998 665.128617 
L 336.804668 658.862136 
L 337.566339 608.131377 
L 338.32801 640.221224 
L 339.089681 663.177773 
L 339.851351 665.613026 
L 340.613022 665.20348 
L 341.374693 662.671346 
L 342.136364 636.315132 
L 342.898034 665.727522 
L 343.659705 665.775963 
L 344.421376 651.129218 
L 345.183047 664.446042 
L 345.944717 665.811193 
L 346.706388 649.306081 
L 347.468059 647.804416 
L 348.22973 630.550673 
L 348.9914 664.344757 
L 349.753071 637.019726 
L 350.514742 618.25551 
L 351.276413 650.935455 
L 352.038084 654.634572 
L 352.799754 655.251092 
L 354.323096 610.245159 
L 355.084767 664.851183 
L 355.846437 665.234306 
L 356.608108 657.012577 
L 357.369779 655.251092 
L 358.13145 665.502933 
L 358.89312 445.127991 
L 359.654791 665.780367 
L 360.416462 644.682184 
L 361.178133 664.608979 
L 361.939803 657.686345 
L 362.701474 635.874761 
L 363.463145 598.883583 
L 364.224816 665.35761 
L 364.986486 665.036139 
L 365.748157 665.740733 
L 366.509828 594.484275 
L 367.271499 639.55186 
L 368.03317 665.564585 
L 368.79484 623.592809 
L 369.556511 597.122098 
L 370.318182 663.882367 
L 371.079853 536.703174 
L 371.841523 665.39284 
L 372.603194 651.904271 
L 373.364865 628.278358 
L 374.126536 647.438908 
L 374.888206 663.552089 
L 375.649877 665.789174 
L 376.411548 639.926175 
L 377.173219 660.958302 
L 377.934889 600.693508 
L 378.69656 618.656248 
L 379.458231 649.830123 
L 380.219902 665.815596 
L 380.981572 607.400361 
L 381.743243 618.17184 
L 382.504914 635.227415 
L 383.266585 602.701601 
L 384.028256 644.682184 
L 384.789926 635.694209 
L 385.551597 632.351791 
L 386.313268 663.041258 
L 387.074939 662.142901 
L 387.836609 665.780367 
L 388.59828 618.339181 
L 389.359951 628.476525 
L 390.121622 641.159215 
L 390.883292 626.538892 
L 391.644963 566.560339 
L 392.406634 665.128617 
L 393.168305 637.019726 
L 393.929975 663.393555 
L 394.691646 487.29353 
L 395.453317 639.39773 
L 396.214988 612.97546 
L 396.976658 648.029005 
L 397.738329 645.778708 
L 398.5 665.815596 
L 399.261671 585.848596 
L 400.023342 599.504506 
L 400.785012 539.746139 
L 401.546683 665.617429 
L 402.308354 640.921414 
L 403.070025 643.149692 
L 403.831695 658.197175 
L 404.593366 637.195874 
L 405.355037 665.141828 
L 406.116708 627.683857 
L 406.878378 573.342055 
L 407.640049 612.094718 
L 408.40172 665.291555 
L 409.163391 525.341598 
L 409.925061 665.577796 
L 410.686732 665.705503 
L 411.448403 604.85942 
L 412.210074 649.570304 
L 412.971744 593.167565 
L 413.733415 656.285964 
L 414.495086 654.520076 
L 415.256757 640.265261 
L 416.018428 658.254423 
L 416.780098 665.709907 
L 417.541769 605.048779 
L 418.30344 664.498887 
L 419.065111 638.516988 
L 419.826781 654.282275 
L 420.588452 605.392269 
L 421.350123 640.542695 
L 422.111794 663.582914 
L 422.873464 665.815596 
L 423.635135 571.580571 
L 424.396806 665.494125 
L 425.158477 657.765611 
L 425.920147 498.448131 
L 426.681818 577.657693 
L 427.443489 612.887386 
L 428.20516 654.542094 
L 428.96683 542.159373 
L 429.728501 554.498573 
L 430.490172 648.117079 
L 431.251843 558.369436 
L 432.013514 608.897623 
L 432.775184 605.929522 
L 433.536855 634.280617 
L 434.298526 610.333233 
L 435.060197 657.012577 
L 435.821867 655.074944 
L 436.583538 664.366775 
L 437.345209 665.551374 
L 438.10688 665.806789 
L 438.86855 661.416288 
L 439.630221 653.582085 
L 440.391892 269.485951 
L 441.153563 596.144474 
L 441.915233 665.731926 
L 442.676904 665.555777 
L 443.438575 662.208956 
L 444.200246 663.22181 
L 444.961916 665.432473 
L 445.723587 484.686532 
L 446.485258 653.806675 
L 447.246929 655.955686 
L 448.0086 664.675035 
L 448.77027 649.702415 
L 449.531941 497.492526 
L 450.293612 665.608622 
L 451.055283 555.727209 
L 451.816953 665.031736 
L 452.578624 623.253723 
L 453.340295 665.555777 
L 454.101966 324.047939 
L 454.863636 644.453191 
L 455.625307 659.077917 
L 456.386978 642.920699 
L 457.910319 662.578868 
L 458.67199 640.850955 
L 459.433661 572.637461 
L 460.957002 643.259785 
L 461.718673 621.082693 
L 462.480344 614.688504 
L 463.242015 665.423666 
L 464.003686 612.909405 
L 464.765356 663.261444 
L 465.527027 628.828822 
L 466.288698 505.06691 
L 467.050369 582.748383 
L 467.812039 606.898338 
L 468.57371 664.032093 
L 469.335381 636.755503 
L 470.097052 654.458424 
L 470.858722 565.415374 
L 471.620393 573.342055 
L 472.382064 665.551374 
L 473.143735 555.727209 
L 473.905405 637.002111 
L 474.667076 665.815596 
L 475.428747 609.716714 
L 476.190418 665.674678 
L 476.952088 651.728123 
L 477.713759 665.551374 
L 478.47543 645.651001 
L 479.237101 595.008317 
L 479.998771 657.563041 
L 480.760442 662.090056 
L 481.522113 665.815596 
L 482.283784 603.370965 
L 483.045455 665.489722 
L 483.807125 649.17397 
L 484.568796 665.78477 
L 485.330467 662.407123 
L 486.092138 595.360614 
L 486.853808 659.919026 
L 487.615479 553.714713 
L 488.37715 630.898567 
L 489.138821 661.315003 
L 489.900491 602.846923 
L 490.662162 651.728123 
L 491.423833 665.815596 
L 492.185504 665.573392 
L 492.947174 591.485347 
L 493.708845 572.373239 
L 494.470516 653.749426 
L 495.232187 663.816311 
L 495.993857 598.002841 
L 496.755528 665.485318 
L 497.517199 404.393658 
L 498.27887 656.915695 
L 499.040541 560.13092 
L 499.802211 653.075658 
L 500.563882 656.572206 
L 501.325553 665.551374 
L 502.087224 628.828822 
L 502.848894 664.939258 
L 503.610565 549.557609 
L 504.372236 572.725536 
L 505.133907 664.736687 
L 505.895577 665.102195 
L 506.657248 643.801442 
L 507.418919 642.938314 
L 508.18059 612.97546 
L 508.94226 653.049236 
L 509.703931 621.346916 
L 510.465602 553.494527 
L 511.227273 617.956058 
L 511.988943 606.017596 
L 512.750614 630.898567 
L 513.512285 663.794293 
L 514.273956 665.661466 
L 515.035627 561.63699 
L 515.797297 653.929979 
L 516.558968 592.982609 
L 517.320639 641.511512 
L 518.08231 626.450818 
L 518.84398 665.775963 
L 519.605651 653.357496 
L 520.367322 663.270251 
L 521.128993 624.618874 
L 521.890663 643.907131 
L 522.652334 485.263419 
L 523.414005 614.904286 
L 524.175676 665.626237 
L 524.937346 663.265847 
L 525.699017 644.457595 
L 526.460688 602.494626 
L 527.222359 593.599129 
L 527.984029 661.781796 
L 528.7457 541.547257 
L 529.507371 665.709907 
L 530.269042 593.845737 
L 531.030713 643.272996 
L 531.792383 639.39773 
L 532.554054 665.507336 
L 533.315725 487.645827 
L 534.839066 662.120882 
L 535.600737 644.246217 
L 536.362408 660.874632 
L 537.124079 616.075673 
L 537.885749 586.773376 
L 538.64742 480.864111 
L 539.409091 652.256568 
L 540.170762 615.925947 
L 540.932432 658.774061 
L 541.694103 659.901412 
L 542.455774 665.20348 
L 543.217445 665.723118 
L 543.979115 628.828822 
L 544.740786 605.929522 
L 545.502457 567.705304 
L 546.264128 633.985568 
L 547.025799 660.262516 
L 547.787469 658.708006 
L 548.54914 657.770015 
L 549.310811 626.411184 
L 550.072482 613.961892 
L 550.834152 662.297031 
L 551.595823 618.259914 
L 552.357494 657.893319 
L 553.119165 565.415374 
L 553.880835 590.767542 
L 554.642506 494.955988 
L 555.404177 625.288238 
L 556.165848 656.704317 
L 556.927518 664.666228 
L 557.689189 665.555777 
L 558.45086 658.496628 
L 559.212531 665.485318 
L 559.974201 640.894992 
L 560.735872 501.953486 
L 561.497543 665.687889 
L 562.259214 591.837644 
L 563.020885 626.292284 
L 563.782555 592.440953 
L 564.544226 665.793578 
L 565.305897 531.947166 
L 566.067568 660.535546 
L 566.829238 656.770373 
L 567.590909 550.169725 
L 568.35258 641.775734 
L 569.114251 663.53007 
L 569.875921 664.124571 
L 570.637592 529.304939 
L 571.399263 660.214075 
L 572.160934 662.60529 
L 572.922604 665.441281 
L 573.684275 646.795966 
L 574.445946 634.994018 
L 575.207617 665.199077 
L 575.969287 651.397844 
L 576.730958 599.059731 
L 577.492629 663.560896 
L 578.2543 587.433933 
L 579.015971 665.115406 
L 579.777641 658.690391 
L 580.539312 664.150993 
L 581.300983 664.327142 
L 582.062654 538.993104 
L 582.824324 659.126358 
L 583.585995 562.931681 
L 584.347666 594.484275 
L 585.109337 586.112819 
L 585.871007 655.383203 
L 586.632678 604.009503 
L 587.394349 641.247289 
L 588.15602 655.163018 
L 588.91769 665.78477 
L 589.679361 665.811193 
L 590.441032 639.39773 
L 591.202703 630.678381 
L 591.964373 665.366418 
L 592.726044 604.344185 
L 593.487715 605.929522 
L 594.249386 662.763824 
L 595.011057 578.379901 
L 595.772727 654.709436 
L 596.534398 420.978036 
L 597.296069 630.898567 
L 598.05774 665.7011 
L 598.81941 645.562926 
L 599.581081 665.608622 
L 600.342752 596.241356 
L 601.104423 612.24004 
L 601.866093 647.733956 
L 602.627764 644.506036 
L 603.389435 664.912835 
L 604.151106 665.608622 
L 605.674447 561.716257 
L 606.436118 665.480914 
L 607.197789 660.984725 
L 607.959459 661.557207 
L 608.72113 602.406552 
L 609.482801 638.996992 
L 610.244472 664.987698 
L 611.006143 644.387135 
L 611.767813 604.079963 
L 612.529484 660.31536 
L 613.291155 663.155754 
L 614.052826 644.682184 
L 614.814496 645.122555 
L 615.576167 665.502933 
L 616.337838 665.278343 
L 617.099509 641.423437 
L 617.861179 577.745767 
L 618.62285 661.85666 
L 619.384521 622.839774 
L 620.146192 652.168494 
L 620.907862 662.816669 
L 621.669533 547.360157 
L 622.431204 629.639105 
L 623.192875 660.575179 
L 623.954545 665.551374 
L 624.716216 662.037212 
L 625.477887 654.123742 
L 626.239558 652.608865 
L 627.001229 585.738504 
L 627.762899 494.489195 
L 628.52457 655.955686 
L 629.286241 650.84738 
L 630.047912 632.272525 
L 630.809582 657.188725 
L 631.571253 630.431773 
L 632.332924 620.637918 
L 633.094595 665.599814 
L 633.856265 664.956873 
L 634.617936 644.765855 
L 635.379607 664.362371 
L 636.902948 469.41446 
L 637.664619 656.66028 
L 638.42629 614.816212 
L 639.187961 639.961405 
L 639.949631 612.843349 
L 640.711302 661.874274 
L 641.472973 640.718844 
L 642.234644 665.811193 
L 642.996314 665.745137 
L 643.757985 652.014364 
L 644.519656 663.53007 
L 645.281327 653.489607 
L 646.042998 663.028047 
L 646.804668 616.225399 
L 647.566339 647.068996 
L 648.32801 521.378258 
L 649.089681 603.459039 
L 649.851351 665.489722 
L 650.613022 648.381302 
L 651.374693 560.13092 
L 652.136364 664.780724 
L 652.898034 589.988085 
L 653.659705 623.517946 
L 654.421376 665.736329 
L 655.183047 524.637004 
L 655.944717 630.282047 
L 656.706388 635.038056 
L 657.468059 487.29353 
L 658.22973 600.645068 
L 658.9914 647.051381 
L 659.753071 659.919026 
L 660.514742 625.570076 
L 661.276413 643.801442 
L 662.038084 654.018053 
L 662.799754 628.652674 
L 663.561425 610.760393 
L 664.323096 635.522464 
L 665.084767 665.586603 
L 665.846437 648.293228 
L 666.608108 665.815596 
L 667.369779 665.767155 
L 668.13145 604.168037 
L 668.89312 638.516988 
L 669.654791 601.67994 
L 670.416462 609.452491 
L 671.178133 657.276799 
L 671.939803 565.415374 
L 672.701474 663.930808 
L 673.463145 611.26682 
L 674.224816 665.815596 
L 674.986486 653.031621 
L 675.748157 565.309685 
L 676.509828 630.678381 
L 677.271499 653.300248 
L 678.03317 654.722647 
L 678.79484 655.748711 
L 679.556511 630.625536 
L 680.318182 665.379629 
L 681.079853 596.236952 
L 681.841523 647.940931 
L 682.603194 638.340839 
L 683.364865 604.344185 
L 684.126536 630.149936 
L 684.888206 496.277101 
L 685.649877 660.628024 
L 686.411548 653.401533 
L 687.173219 590.516531 
L 687.934889 635.183378 
L 688.69656 665.480914 
L 689.458231 527.88254 
L 690.219902 644.770258 
L 690.981572 662.297031 
L 691.743243 633.760979 
L 692.504914 657.091844 
L 693.266585 603.639591 
L 694.028256 611.654347 
L 694.789926 654.106127 
L 695.551597 663.508051 
L 696.313268 483.757349 
L 697.074939 652.520791 
L 697.836609 652.538406 
L 698.59828 660.126001 
L 699.359951 655.823575 
L 700.121622 649.526267 
L 700.883292 665.66587 
L 701.644963 665.66587 
L 702.406634 581.709107 
L 703.168305 474.993963 
L 703.929975 562.570577 
L 704.691646 665.714311 
L 705.453317 641.943075 
L 706.214988 662.825476 
L 706.976658 643.612082 
L 707.738329 570.52368 
L 708.5 529.304939 
L 709.261671 653.841904 
L 710.023342 655.251092 
L 710.785012 665.762752 
L 711.546683 627.670646 
L 712.308354 653.220981 
L 713.070025 474.698914 
L 713.831695 616.49843 
L 714.593366 484.38708 
L 715.355037 639.39773 
L 716.116708 665.291555 
L 716.878378 641.775734 
L 717.640049 653.251807 
L 718.40172 660.253708 
L 719.163391 640.665999 
L 719.925061 642.920699 
L 720.686732 659.654804 
L 721.448403 663.490437 
L 722.210074 660.007101 
L 722.971744 643.361071 
L 723.733415 664.626594 
L 724.495086 610.597456 
L 725.256757 633.232534 
L 726.018428 663.459611 
L 726.780098 628.41047 
L 727.541769 576.688876 
L 728.30344 642.832625 
L 729.065111 661.411885 
L 729.826781 636.755503 
L 730.588452 583.497014 
L 731.350123 646.782755 
L 732.111794 617.753487 
L 732.873464 661.768585 
L 733.635135 664.340353 
L 735.158477 665.806789 
L 735.920147 657.893319 
L 736.681818 665.66587 
L 737.443489 604.168037 
L 738.20516 612.579126 
L 738.96683 657.012577 
L 739.728501 665.687889 
L 740.490172 609.01212 
L 741.251843 614.296574 
L 742.013514 659.654804 
L 742.775184 620.906545 
L 743.536855 654.379157 
L 744.298526 660.535546 
L 745.060197 626.626966 
L 746.583538 665.436877 
L 747.345209 664.498887 
L 748.10688 649.706819 
L 748.86855 617.969269 
L 749.630221 664.754302 
L 750.391892 665.47651 
L 751.153563 653.049236 
L 751.915233 502.437894 
L 752.676904 566.428228 
L 753.438575 658.862136 
L 754.200246 615.864295 
L 754.961916 597.822288 
L 755.723587 664.150993 
L 756.485258 657.012577 
L 757.246929 579.947623 
L 758.0086 663.001625 
L 758.77027 647.535789 
L 759.531941 640.64398 
L 760.293612 662.297031 
L 761.055283 651.287752 
L 761.816953 665.643852 
L 762.578624 580.387994 
L 763.340295 643.563641 
L 764.101966 665.731926 
L 764.863636 542.516074 
L 765.625307 665.66587 
L 766.386978 661.768585 
L 767.148649 660.055541 
L 767.910319 632.351791 
L 768.67199 599.138998 
L 769.433661 664.071726 
L 770.195332 657.712767 
L 770.957002 530.449904 
L 771.718673 633.232534 
L 772.480344 661.416288 
L 773.242015 576.953099 
L 774.003686 657.012577 
L 774.765356 644.387135 
L 775.527027 612.482244 
L 776.288698 664.934854 
L 777.050369 664.032093 
L 777.812039 604.168037 
L 778.57371 485.483604 
L 779.335381 651.287752 
L 780.097052 339.029366 
L 780.858722 665.5822 
L 781.620393 491.433019 
L 782.382064 612.094718 
L 783.143735 577.481544 
L 783.905405 651.551974 
L 784.667076 639.39773 
L 785.428747 599.059731 
L 786.190418 665.458896 
L 786.952088 648.205153 
L 787.713759 200.391716 
L 788.47543 541.820287 
L 789.237101 648.997821 
L 789.998771 664.309527 
L 791.522113 653.049236 
L 792.283784 665.661466 
L 793.045455 650.230861 
L 793.807125 576.688876 
L 794.568796 586.641265 
L 795.330467 560.13092 
L 796.092138 665.577796 
L 796.853808 660.601602 
L 797.615479 626.010447 
L 798.37715 664.921643 
L 799.138821 608.571749 
L 799.900491 565.855746 
L 800.662162 660.971513 
L 801.423833 665.533759 
L 802.185504 621.782883 
L 802.947174 594.0395 
L 803.708845 663.996863 
L 804.470516 647.438908 
L 805.232187 638.882496 
L 805.993857 652.08042 
L 806.755528 619.158271 
L 807.517199 435.651203 
L 808.27887 630.304066 
L 809.040541 665.696696 
L 809.802211 665.749541 
L 810.563882 636.751099 
L 811.325553 582.58985 
L 812.087224 665.458896 
L 812.848894 574.698399 
L 813.610565 659.654804 
L 814.372236 656.307983 
L 815.133907 662.297031 
L 815.895577 658.197175 
L 816.657248 516.00573 
L 817.418919 663.37594 
L 818.18059 630.898567 
L 818.94226 605.929522 
L 819.703931 644.241813 
L 820.465602 637.636245 
L 821.227273 662.349875 
L 821.988943 612.984268 
L 822.750614 646.443669 
L 823.512285 611.258013 
L 824.273956 618.127803 
L 825.035627 658.862136 
L 825.797297 602.336093 
L 826.558968 521.294587 
L 827.320639 663.085295 
L 828.08231 637.283949 
L 828.84398 634.465573 
L 829.605651 651.600415 
L 830.367322 542.516074 
L 831.128993 591.837644 
L 831.890663 613.644824 
L 832.652334 657.452948 
L 833.414005 665.436877 
L 834.175676 626.97486 
L 834.937346 663.362729 
L 835.699017 635.808705 
L 837.222359 665.749541 
L 837.984029 610.333233 
L 838.7457 653.489607 
L 839.507371 660.015908 
L 840.269042 635.174571 
L 841.030713 536.967397 
L 841.792383 659.971871 
L 842.554054 612.97546 
L 843.315725 665.621833 
L 844.077396 650.675636 
L 844.839066 665.207884 
L 845.600737 605.753373 
L 846.362408 655.251092 
L 847.124079 654.718243 
L 847.885749 664.842376 
L 848.64742 660.42105 
L 849.409091 665.339995 
L 850.170762 578.741006 
L 850.932432 655.255496 
L 851.694103 664.234664 
L 852.455774 604.220881 
L 853.217445 615.14649 
L 853.979115 573.342055 
L 854.740786 664.437235 
L 855.502457 658.509839 
L 856.264128 649.262044 
L 857.025799 646.822388 
L 857.787469 650.84738 
L 858.54914 566.313732 
L 859.310811 662.843091 
L 860.072482 654.806317 
L 860.834152 659.998293 
L 861.595823 653.313459 
L 862.357494 604.837401 
L 863.119165 665.674678 
L 863.880835 648.381302 
L 864.642506 641.242885 
L 865.404177 572.901684 
L 866.165848 639.221582 
L 866.927518 660.337379 
L 867.689189 605.929522 
L 868.45086 664.719072 
L 869.212531 617.467246 
L 869.974201 662.931165 
L 870.735872 627.94808 
L 871.497543 649.583515 
L 872.259214 638.785614 
L 873.020885 665.533759 
L 873.782555 640.613155 
L 874.544226 594.484275 
L 875.305897 540.389081 
L 876.067568 663.089699 
L 876.829238 665.815596 
L 877.590909 593.158758 
L 878.35258 665.564585 
L 879.114251 656.942117 
L 880.637592 665.20348 
L 881.399263 424.998625 
L 882.160934 631.999495 
L 882.922604 660.570776 
L 883.684275 640.102324 
L 884.445946 664.296316 
L 885.207617 665.718715 
L 885.969287 647.764782 
L 886.730958 657.188725 
L 887.492629 656.109816 
L 888.2543 661.24014 
L 889.015971 663.239425 
L 889.777641 551.142945 
L 890.539312 662.125286 
L 891.300983 664.490079 
L 892.062654 494.167724 
L 892.824324 665.709907 
L 893.585995 640.665999 
L 894.347666 547.417405 
L 895.109337 634.998422 
L 895.871007 642.788588 
L 896.632678 651.728123 
L 897.394349 665.621833 
L 898.15602 611.654347 
L 898.91769 582.58985 
L 899.679361 654.326313 
L 900.441032 626.415588 
L 901.202703 631.096734 
L 901.964373 652.608865 
L 902.726044 522.56726 
L 903.487715 662.297031 
L 904.249386 619.990573 
L 905.011057 651.507937 
L 905.772727 648.01139 
L 906.534398 604.079963 
L 907.296069 663.662181 
L 908.05774 663.626952 
L 908.81941 571.818371 
L 909.581081 428.019571 
L 910.342752 572.637461 
L 911.104423 620.906545 
L 911.866093 549.562012 
L 913.389435 662.777035 
L 914.151106 441.142632 
L 914.912776 641.599586 
L 915.674447 640.621962 
L 916.436118 664.036497 
L 917.197789 647.324411 
L 917.959459 665.216692 
L 918.72113 665.331188 
L 919.482801 648.649928 
L 920.244472 651.287752 
L 921.006143 647.764782 
L 921.767813 445.409828 
L 922.529484 505.348747 
L 923.291155 657.717171 
L 924.052826 658.945806 
L 924.814496 654.810721 
L 925.576167 661.799411 
L 926.337838 648.469376 
L 927.099509 652.754188 
L 927.861179 594.0395 
L 928.62285 665.20348 
L 929.384521 655.427241 
L 930.146192 642.568402 
L 930.907862 572.360028 
L 931.669533 625.746224 
L 932.431204 661.411885 
L 933.192875 533.70865 
L 933.954545 611.733614 
L 933.954545 611.733614 
" clip-path="url(#p3e21d2b178)" style="fill: none; stroke: #c44e52; stroke-width: 1.2; stroke-linecap: square"/>
   </g>
   <g id="patch_3">
    <path d="M 135 693 
L 135 95.04 
" style="fill: none; stroke: #888888; stroke-width: 1.12; stroke-linejoin: miter; stroke-linecap: square"/>
   </g>
   <g id="patch_4">
    <path d="M 972 693 
L 972 95.04 
" style="fill: none; stroke: #888888; stroke-width: 1.12; stroke-linejoin: miter; stroke-linecap: square"/>
   </g>
   <g id="patch_5">
    <path d="M 135 693 
L 972 693 
" style="fill: none; stroke: #888888; stroke-width: 1.12; stroke-linejoin: miter; stroke-linecap: square"/>
   </g>
   <g id="patch_6">
    <path d="M 135 95.04 
L 972 95.04 
" style="fill: none; stroke: #888888; stroke-width: 1.12; stroke-linejoin: miter; stroke-linecap: square"/>
   </g>
   <g id="legend_1">
    <g id="patch_7">
     <path d="M 147.495 161.720906 
L 331.271906 161.720906 
Q 334.841906 161.720906 334.841906 158.150906 
L 334.841906 107.535 
Q 334.841906 103.965 331.271906 103.965 
L 147.495 103.965 
Q 143.925 103.965 143.925 107.535 
L 143.925 158.150906 
Q 143.925 161.720906 147.495 161.720906 
z
" style="fill: #232323; opacity: 0.8; stroke: #cccccc; stroke-width: 0.16; stroke-linejoin: miter"/>
    </g>
    <g id="line2d_29">
     <path d="M 151.065 118.420711 
L 168.915 118.420711 
L 186.765 118.420711 
" style="fill: none; stroke-dasharray: 4.44,1.92; stroke-dashoffset: 0; stroke: #3572c6; stroke-width: 1.2"/>
    </g>
    <g id="text_14">
     <!-- Predicted (BS) -->
     <g style="fill: #bbbbbb" transform="translate(201.045 124.668211)scale(0.1785 -0.1785)">
      <defs>
       <path id="DejaVuSans-50" d="M 1259 4147 
L 1259 2394 
L 2053 2394 
Q 2494 2394 2734 2622 
Q 2975 2850 2975 3272 
Q 2975 3691 2734 3919 
Q 2494 4147 2053 4147 
L 1259 4147 
z
M 628 4666 
L 2053 4666 
Q 2838 4666 3239 4311 
Q 3641 3956 3641 3272 
Q 3641 2581 3239 2228 
Q 2838 1875 2053 1875 
L 1259 1875 
L 1259 0 
L 628 0 
L 628 4666 
z
" transform="scale(0.015625)"/>
       <path id="DejaVuSans-72" d="M 2631 2963 
Q 2534 3019 2420 3045 
Q 2306 3072 2169 3072 
Q 1681 3072 1420 2755 
Q 1159 2438 1159 1844 
L 1159 0 
L 581 0 
L 581 3500 
L 1159 3500 
L 1159 2956 
Q 1341 3275 1631 3429 
Q 1922 3584 2338 3584 
Q 2397 3584 2469 3576 
Q 2541 3569 2628 3553 
L 2631 2963 
z
" transform="scale(0.015625)"/>
       <path id="DejaVuSans-65" d="M 3597 1894 
L 3597 1613 
L 953 1613 
Q 991 1019 1311 708 
Q 1631 397 2203 397 
Q 2534 397 2845 478 
Q 3156 559 3463 722 
L 3463 178 
Q 3153 47 2828 -22 
Q 2503 -91 2169 -91 
Q 1331 -91 842 396 
Q 353 884 353 1716 
Q 353 2575 817 3079 
Q 1281 3584 2069 3584 
Q 2775 3584 3186 3129 
Q 3597 2675 3597 1894 
z
M 3022 2063 
Q 3016 2534 2758 2815 
Q 2500 3097 2075 3097 
Q 1594 3097 1305 2825 
Q 1016 2553 972 2059 
L 3022 2063 
z
" transform="scale(0.015625)"/>
       <path id="DejaVuSans-64" d="M 2906 2969 
L 2906 4863 
L 3481 4863 
L 3481 0 
L 2906 0 
L 2906 525 
Q 2725 213 2448 61 
Q 2172 -91 1784 -91 
Q 1150 -91 751 415 
Q 353 922 353 1747 
Q 353 2572 751 3078 
Q 1150 3584 1784 3584 
Q 2172 3584 2448 3432 
Q 2725 3281 2906 2969 
z
M 947 1747 
Q 947 1113 1208 752 
Q 1469 391 1925 391 
Q 2381 391 2643 752 
Q 2906 1113 2906 1747 
Q 2906 2381 2643 2742 
Q 2381 3103 1925 3103 
Q 1469 3103 1208 2742 
Q 947 2381 947 1747 
z
" transform="scale(0.015625)"/>
       <path id="DejaVuSans-69" d="M 603 3500 
L 1178 3500 
L 1178 0 
L 603 0 
L 603 3500 
z
M 603 4863 
L 1178 4863 
L 1178 4134 
L 603 4134 
L 603 4863 
z
" transform="scale(0.015625)"/>
       <path id="DejaVuSans-63" d="M 3122 3366 
L 3122 2828 
Q 2878 2963 2633 3030 
Q 2388 3097 2138 3097 
Q 1578 3097 1268 2742 
Q 959 2388 959 1747 
Q 959 1106 1268 751 
Q 1578 397 2138 397 
Q 2388 397 2633 464 
Q 2878 531 3122 666 
L 3122 134 
Q 2881 22 2623 -34 
Q 2366 -91 2075 -91 
Q 1284 -91 818 406 
Q 353 903 353 1747 
Q 353 2603 823 3093 
Q 1294 3584 2113 3584 
Q 2378 3584 2631 3529 
Q 2884 3475 3122 3366 
z
" transform="scale(0.015625)"/>
       <path id="DejaVuSans-74" d="M 1172 4494 
L 1172 3500 
L 2356 3500 
L 2356 3053 
L 1172 3053 
L 1172 1153 
Q 1172 725 1289 603 
Q 1406 481 1766 481 
L 2356 481 
L 2356 0 
L 1766 0 
Q 1100 0 847 248 
Q 594 497 594 1153 
L 594 3053 
L 172 3053 
L 172 3500 
L 594 3500 
L 594 4494 
L 1172 4494 
z
" transform="scale(0.015625)"/>
       <path id="DejaVuSans-20" transform="scale(0.015625)"/>
       <path id="DejaVuSans-28" d="M 1984 4856 
Q 1566 4138 1362 3434 
Q 1159 2731 1159 2009 
Q 1159 1288 1364 580 
Q 1569 -128 1984 -844 
L 1484 -844 
Q 1016 -109 783 600 
Q 550 1309 550 2009 
Q 550 2706 781 3412 
Q 1013 4119 1484 4856 
L 1984 4856 
z
" transform="scale(0.015625)"/>
       <path id="DejaVuSans-42" d="M 1259 2228 
L 1259 519 
L 2272 519 
Q 2781 519 3026 730 
Q 3272 941 3272 1375 
Q 3272 1813 3026 2020 
Q 2781 2228 2272 2228 
L 1259 2228 
z
M 1259 4147 
L 1259 2741 
L 2194 2741 
Q 2656 2741 2882 2914 
Q 3109 3088 3109 3444 
Q 3109 3797 2882 3972 
Q 2656 4147 2194 4147 
L 1259 4147 
z
M 628 4666 
L 2241 4666 
Q 2963 4666 3353 4366 
Q 3744 4066 3744 3513 
Q 3744 3084 3544 2831 
Q 3344 2578 2956 2516 
Q 3422 2416 3680 2098 
Q 3938 1781 3938 1306 
Q 3938 681 3513 340 
Q 3088 0 2303 0 
L 628 0 
L 628 4666 
z
" transform="scale(0.015625)"/>
       <path id="DejaVuSans-53" d="M 3425 4513 
L 3425 3897 
Q 3066 4069 2747 4153 
Q 2428 4238 2131 4238 
Q 1616 4238 1336 4038 
Q 1056 3838 1056 3469 
Q 1056 3159 1242 3001 
Q 1428 2844 1947 2747 
L 2328 2669 
Q 3034 2534 3370 2195 
Q 3706 1856 3706 1288 
Q 3706 609 3251 259 
Q 2797 -91 1919 -91 
Q 1588 -91 1214 -16 
Q 841 59 441 206 
L 441 856 
Q 825 641 1194 531 
Q 1563 422 1919 422 
Q 2459 422 2753 634 
Q 3047 847 3047 1241 
Q 3047 1584 2836 1778 
Q 2625 1972 2144 2069 
L 1759 2144 
Q 1053 2284 737 2584 
Q 422 2884 422 3419 
Q 422 4038 858 4394 
Q 1294 4750 2059 4750 
Q 2388 4750 2728 4690 
Q 3069 4631 3425 4513 
z
" transform="scale(0.015625)"/>
       <path id="DejaVuSans-29" d="M 513 4856 
L 1013 4856 
Q 1481 4119 1714 3412 
Q 1947 2706 1947 2009 
Q 1947 1309 1714 600 
Q 1481 -109 1013 -844 
L 513 -844 
Q 928 -128 1133 580 
Q 1338 1288 1338 2009 
Q 1338 2731 1133 3434 
Q 928 4138 513 4856 
z
" transform="scale(0.015625)"/>
      </defs>
      <use xlink:href="#DejaVuSans-50"/>
      <use xlink:href="#DejaVuSans-72" x="58.552734"/>
      <use xlink:href="#DejaVuSans-65" x="97.416016"/>
      <use xlink:href="#DejaVuSans-64" x="158.939453"/>
      <use xlink:href="#DejaVuSans-69" x="222.416016"/>
      <use xlink:href="#DejaVuSans-63" x="250.199219"/>
      <use xlink:href="#DejaVuSans-74" x="305.179688"/>
      <use xlink:href="#DejaVuSans-65" x="344.388672"/>
      <use xlink:href="#DejaVuSans-64" x="405.912109"/>
      <use xlink:href="#DejaVuSans-20" x="469.388672"/>
      <use xlink:href="#DejaVuSans-28" x="501.175781"/>
      <use xlink:href="#DejaVuSans-42" x="540.189453"/>
      <use xlink:href="#DejaVuSans-53" x="607.042969"/>
      <use xlink:href="#DejaVuSans-29" x="670.519531"/>
     </g>
    </g>
    <g id="line2d_30">
     <path d="M 151.065 144.621164 
L 168.915 144.621164 
L 186.765 144.621164 
" style="fill: none; stroke: #c44e52; stroke-width: 1.2; stroke-linecap: square"/>
    </g>
    <g id="text_15">
     <!-- LTP -->
     <g style="fill: #bbbbbb" transform="translate(201.045 150.868664)scale(0.1785 -0.1785)">
      <defs>
       <path id="DejaVuSans-4c" d="M 628 4666 
L 1259 4666 
L 1259 531 
L 3531 531 
L 3531 0 
L 628 0 
L 628 4666 
z
" transform="scale(0.015625)"/>
       <path id="DejaVuSans-54" d="M -19 4666 
L 3928 4666 
L 3928 4134 
L 2272 4134 
L 2272 0 
L 1638 0 
L 1638 4134 
L -19 4134 
L -19 4666 
z
" transform="scale(0.015625)"/>
      </defs>
      <use xlink:href="#DejaVuSans-4c"/>
      <use xlink:href="#DejaVuSans-54" x="41.962891"/>
      <use xlink:href="#DejaVuSans-50" x="103.046875"/>
     </g>
    </g>
   </g>
  </g>
 </g>
 <defs>
  <clipPath id="p3e21d2b178">
   <rect x="135" y="95.04" width="837" height="597.96"/>
  </clipPath>
 </defs>
</svg>
