<?xml version="1.0" encoding="utf-8" standalone="no"?>
<!DOCTYPE svg PUBLIC "-//W3C//DTD SVG 1.1//EN"
  "http://www.w3.org/Graphics/SVG/1.1/DTD/svg11.dtd">
<svg xmlns:xlink="http://www.w3.org/1999/xlink" width="1080pt" height="792pt" viewBox="0 0 1080 792" xmlns="http://www.w3.org/2000/svg" version="1.1">
 <metadata>
  <rdf:RDF xmlns:dc="http://purl.org/dc/elements/1.1/" xmlns:cc="http://creativecommons.org/ns#" xmlns:rdf="http://www.w3.org/1999/02/22-rdf-syntax-ns#">
   <cc:Work>
    <dc:type rdf:resource="http://purl.org/dc/dcmitype/StillImage"/>
    <dc:date>2022-04-29T17:29:53.257616</dc:date>
    <dc:format>image/svg+xml</dc:format>
    <dc:creator>
     <cc:Agent>
      <dc:title>Matplotlib v3.5.1, https://matplotlib.org/</dc:title>
     </cc:Agent>
    </dc:creator>
   </cc:Work>
  </rdf:RDF>
 </metadata>
 <defs>
  <style type="text/css">*{stroke-linejoin: round; stroke-linecap: butt}</style>
 </defs>
 <g id="figure_1">
  <g id="patch_1">
   <path d="M 0 792 
L 1080 792 
L 1080 0 
L 0 0 
z
" style="fill: #232323"/>
  </g>
  <g id="axes_1">
   <g id="patch_2">
    <path d="M 135 693 
L 972 693 
L 972 95.04 
L 135 95.04 
z
" style="fill: #232323"/>
   </g>
   <g id="matplotlib.axis_1">
    <g id="xtick_1">
     <g id="line2d_1">
      <path d="M 173.045455 693 
L 173.045455 95.04 
" clip-path="url(#pf35de05998)" style="fill: none; stroke: #303030; stroke-width: 1.12; stroke-linecap: square"/>
     </g>
     <g id="line2d_2"/>
     <g id="text_1">
      <!-- 1000 -->
      <g style="fill: #bbbbbb" transform="translate(148.995205 712.961047)scale(0.189 -0.189)">
       <defs>
        <path id="DejaVuSans-31" d="M 794 531 
L 1825 531 
L 1825 4091 
L 703 3866 
L 703 4441 
L 1819 4666 
L 2450 4666 
L 2450 531 
L 3481 531 
L 3481 0 
L 794 0 
L 794 531 
z
" transform="scale(0.015625)"/>
        <path id="DejaVuSans-30" d="M 2034 4250 
Q 1547 4250 1301 3770 
Q 1056 3291 1056 2328 
Q 1056 1369 1301 889 
Q 1547 409 2034 409 
Q 2525 409 2770 889 
Q 3016 1369 3016 2328 
Q 3016 3291 2770 3770 
Q 2525 4250 2034 4250 
z
M 2034 4750 
Q 2819 4750 3233 4129 
Q 3647 3509 3647 2328 
Q 3647 1150 3233 529 
Q 2819 -91 2034 -91 
Q 1250 -91 836 529 
Q 422 1150 422 2328 
Q 422 3509 836 4129 
Q 1250 4750 2034 4750 
z
" transform="scale(0.015625)"/>
       </defs>
       <use xlink:href="#DejaVuSans-31"/>
       <use xlink:href="#DejaVuSans-30" x="63.623047"/>
       <use xlink:href="#DejaVuSans-30" x="127.246094"/>
       <use xlink:href="#DejaVuSans-30" x="190.869141"/>
      </g>
     </g>
    </g>
    <g id="xtick_2">
     <g id="line2d_3">
      <path d="M 325.532246 693 
L 325.532246 95.04 
" clip-path="url(#pf35de05998)" style="fill: none; stroke: #303030; stroke-width: 1.12; stroke-linecap: square"/>
     </g>
     <g id="line2d_4"/>
     <g id="text_2">
      <!-- 1100 -->
      <g style="fill: #bbbbbb" transform="translate(301.481996 712.961047)scale(0.189 -0.189)">
       <use xlink:href="#DejaVuSans-31"/>
       <use xlink:href="#DejaVuSans-31" x="63.623047"/>
       <use xlink:href="#DejaVuSans-30" x="127.246094"/>
       <use xlink:href="#DejaVuSans-30" x="190.869141"/>
      </g>
     </g>
    </g>
    <g id="xtick_3">
     <g id="line2d_5">
      <path d="M 478.019038 693 
L 478.019038 95.04 
" clip-path="url(#pf35de05998)" style="fill: none; stroke: #303030; stroke-width: 1.12; stroke-linecap: square"/>
     </g>
     <g id="line2d_6"/>
     <g id="text_3">
      <!-- 1200 -->
      <g style="fill: #bbbbbb" transform="translate(453.968788 712.961047)scale(0.189 -0.189)">
       <defs>
        <path id="DejaVuSans-32" d="M 1228 531 
L 3431 531 
L 3431 0 
L 469 0 
L 469 531 
Q 828 903 1448 1529 
Q 2069 2156 2228 2338 
Q 2531 2678 2651 2914 
Q 2772 3150 2772 3378 
Q 2772 3750 2511 3984 
Q 2250 4219 1831 4219 
Q 1534 4219 1204 4116 
Q 875 4013 500 3803 
L 500 4441 
Q 881 4594 1212 4672 
Q 1544 4750 1819 4750 
Q 2544 4750 2975 4387 
Q 3406 4025 3406 3419 
Q 3406 3131 3298 2873 
Q 3191 2616 2906 2266 
Q 2828 2175 2409 1742 
Q 1991 1309 1228 531 
z
" transform="scale(0.015625)"/>
       </defs>
       <use xlink:href="#DejaVuSans-31"/>
       <use xlink:href="#DejaVuSans-32" x="63.623047"/>
       <use xlink:href="#DejaVuSans-30" x="127.246094"/>
       <use xlink:href="#DejaVuSans-30" x="190.869141"/>
      </g>
     </g>
    </g>
    <g id="xtick_4">
     <g id="line2d_7">
      <path d="M 630.50583 693 
L 630.50583 95.04 
" clip-path="url(#pf35de05998)" style="fill: none; stroke: #303030; stroke-width: 1.12; stroke-linecap: square"/>
     </g>
     <g id="line2d_8"/>
     <g id="text_4">
      <!-- 1300 -->
      <g style="fill: #bbbbbb" transform="translate(606.45558 712.961047)scale(0.189 -0.189)">
       <defs>
        <path id="DejaVuSans-33" d="M 2597 2516 
Q 3050 2419 3304 2112 
Q 3559 1806 3559 1356 
Q 3559 666 3084 287 
Q 2609 -91 1734 -91 
Q 1441 -91 1130 -33 
Q 819 25 488 141 
L 488 750 
Q 750 597 1062 519 
Q 1375 441 1716 441 
Q 2309 441 2620 675 
Q 2931 909 2931 1356 
Q 2931 1769 2642 2001 
Q 2353 2234 1838 2234 
L 1294 2234 
L 1294 2753 
L 1863 2753 
Q 2328 2753 2575 2939 
Q 2822 3125 2822 3475 
Q 2822 3834 2567 4026 
Q 2313 4219 1838 4219 
Q 1578 4219 1281 4162 
Q 984 4106 628 3988 
L 628 4550 
Q 988 4650 1302 4700 
Q 1616 4750 1894 4750 
Q 2613 4750 3031 4423 
Q 3450 4097 3450 3541 
Q 3450 3153 3228 2886 
Q 3006 2619 2597 2516 
z
" transform="scale(0.015625)"/>
       </defs>
       <use xlink:href="#DejaVuSans-31"/>
       <use xlink:href="#DejaVuSans-33" x="63.623047"/>
       <use xlink:href="#DejaVuSans-30" x="127.246094"/>
       <use xlink:href="#DejaVuSans-30" x="190.869141"/>
      </g>
     </g>
    </g>
    <g id="xtick_5">
     <g id="line2d_9">
      <path d="M 782.992622 693 
L 782.992622 95.04 
" clip-path="url(#pf35de05998)" style="fill: none; stroke: #303030; stroke-width: 1.12; stroke-linecap: square"/>
     </g>
     <g id="line2d_10"/>
     <g id="text_5">
      <!-- 1400 -->
      <g style="fill: #bbbbbb" transform="translate(758.942372 712.961047)scale(0.189 -0.189)">
       <defs>
        <path id="DejaVuSans-34" d="M 2419 4116 
L 825 1625 
L 2419 1625 
L 2419 4116 
z
M 2253 4666 
L 3047 4666 
L 3047 1625 
L 3713 1625 
L 3713 1100 
L 3047 1100 
L 3047 0 
L 2419 0 
L 2419 1100 
L 313 1100 
L 313 1709 
L 2253 4666 
z
" transform="scale(0.015625)"/>
       </defs>
       <use xlink:href="#DejaVuSans-31"/>
       <use xlink:href="#DejaVuSans-34" x="63.623047"/>
       <use xlink:href="#DejaVuSans-30" x="127.246094"/>
       <use xlink:href="#DejaVuSans-30" x="190.869141"/>
      </g>
     </g>
    </g>
    <g id="xtick_6">
     <g id="line2d_11">
      <path d="M 935.479413 693 
L 935.479413 95.04 
" clip-path="url(#pf35de05998)" style="fill: none; stroke: #303030; stroke-width: 1.12; stroke-linecap: square"/>
     </g>
     <g id="line2d_12"/>
     <g id="text_6">
      <!-- 1500 -->
      <g style="fill: #bbbbbb" transform="translate(911.429163 712.961047)scale(0.189 -0.189)">
       <defs>
        <path id="DejaVuSans-35" d="M 691 4666 
L 3169 4666 
L 3169 4134 
L 1269 4134 
L 1269 2991 
Q 1406 3038 1543 3061 
Q 1681 3084 1819 3084 
Q 2600 3084 3056 2656 
Q 3513 2228 3513 1497 
Q 3513 744 3044 326 
Q 2575 -91 1722 -91 
Q 1428 -91 1123 -41 
Q 819 9 494 109 
L 494 744 
Q 775 591 1075 516 
Q 1375 441 1709 441 
Q 2250 441 2565 725 
Q 2881 1009 2881 1497 
Q 2881 1984 2565 2268 
Q 2250 2553 1709 2553 
Q 1456 2553 1204 2497 
Q 953 2441 691 2322 
L 691 4666 
z
" transform="scale(0.015625)"/>
       </defs>
       <use xlink:href="#DejaVuSans-31"/>
       <use xlink:href="#DejaVuSans-35" x="63.623047"/>
       <use xlink:href="#DejaVuSans-30" x="127.246094"/>
       <use xlink:href="#DejaVuSans-30" x="190.869141"/>
      </g>
     </g>
    </g>
   </g>
   <g id="matplotlib.axis_2">
    <g id="ytick_1">
     <g id="line2d_13">
      <path d="M 135 665.82 
L 972 665.82 
" clip-path="url(#pf35de05998)" style="fill: none; stroke: #303030; stroke-width: 1.12; stroke-linecap: square"/>
     </g>
     <g id="line2d_14"/>
     <g id="text_7">
      <!-- 0 -->
      <g style="fill: #bbbbbb" transform="translate(117.374875 673.000523)scale(0.189 -0.189)">
       <use xlink:href="#DejaVuSans-30"/>
      </g>
     </g>
    </g>
    <g id="ytick_2">
     <g id="line2d_15">
      <path d="M 135 554.627663 
L 972 554.627663 
" clip-path="url(#pf35de05998)" style="fill: none; stroke: #303030; stroke-width: 1.12; stroke-linecap: square"/>
     </g>
     <g id="line2d_16"/>
     <g id="text_8">
      <!-- 2000 -->
      <g style="fill: #bbbbbb" transform="translate(81.2995 561.808187)scale(0.189 -0.189)">
       <use xlink:href="#DejaVuSans-32"/>
       <use xlink:href="#DejaVuSans-30" x="63.623047"/>
       <use xlink:href="#DejaVuSans-30" x="127.246094"/>
       <use xlink:href="#DejaVuSans-30" x="190.869141"/>
      </g>
     </g>
    </g>
    <g id="ytick_3">
     <g id="line2d_17">
      <path d="M 135 443.435327 
L 972 443.435327 
" clip-path="url(#pf35de05998)" style="fill: none; stroke: #303030; stroke-width: 1.12; stroke-linecap: square"/>
     </g>
     <g id="line2d_18"/>
     <g id="text_9">
      <!-- 4000 -->
      <g style="fill: #bbbbbb" transform="translate(81.2995 450.61585)scale(0.189 -0.189)">
       <use xlink:href="#DejaVuSans-34"/>
       <use xlink:href="#DejaVuSans-30" x="63.623047"/>
       <use xlink:href="#DejaVuSans-30" x="127.246094"/>
       <use xlink:href="#DejaVuSans-30" x="190.869141"/>
      </g>
     </g>
    </g>
    <g id="ytick_4">
     <g id="line2d_19">
      <path d="M 135 332.24299 
L 972 332.24299 
" clip-path="url(#pf35de05998)" style="fill: none; stroke: #303030; stroke-width: 1.12; stroke-linecap: square"/>
     </g>
     <g id="line2d_20"/>
     <g id="text_10">
      <!-- 6000 -->
      <g style="fill: #bbbbbb" transform="translate(81.2995 339.423514)scale(0.189 -0.189)">
       <defs>
        <path id="DejaVuSans-36" d="M 2113 2584 
Q 1688 2584 1439 2293 
Q 1191 2003 1191 1497 
Q 1191 994 1439 701 
Q 1688 409 2113 409 
Q 2538 409 2786 701 
Q 3034 994 3034 1497 
Q 3034 2003 2786 2293 
Q 2538 2584 2113 2584 
z
M 3366 4563 
L 3366 3988 
Q 3128 4100 2886 4159 
Q 2644 4219 2406 4219 
Q 1781 4219 1451 3797 
Q 1122 3375 1075 2522 
Q 1259 2794 1537 2939 
Q 1816 3084 2150 3084 
Q 2853 3084 3261 2657 
Q 3669 2231 3669 1497 
Q 3669 778 3244 343 
Q 2819 -91 2113 -91 
Q 1303 -91 875 529 
Q 447 1150 447 2328 
Q 447 3434 972 4092 
Q 1497 4750 2381 4750 
Q 2619 4750 2861 4703 
Q 3103 4656 3366 4563 
z
" transform="scale(0.015625)"/>
       </defs>
       <use xlink:href="#DejaVuSans-36"/>
       <use xlink:href="#DejaVuSans-30" x="63.623047"/>
       <use xlink:href="#DejaVuSans-30" x="127.246094"/>
       <use xlink:href="#DejaVuSans-30" x="190.869141"/>
      </g>
     </g>
    </g>
    <g id="ytick_5">
     <g id="line2d_21">
      <path d="M 135 221.050654 
L 972 221.050654 
" clip-path="url(#pf35de05998)" style="fill: none; stroke: #303030; stroke-width: 1.12; stroke-linecap: square"/>
     </g>
     <g id="line2d_22"/>
     <g id="text_11">
      <!-- 8000 -->
      <g style="fill: #bbbbbb" transform="translate(81.2995 228.231177)scale(0.189 -0.189)">
       <defs>
        <path id="DejaVuSans-38" d="M 2034 2216 
Q 1584 2216 1326 1975 
Q 1069 1734 1069 1313 
Q 1069 891 1326 650 
Q 1584 409 2034 409 
Q 2484 409 2743 651 
Q 3003 894 3003 1313 
Q 3003 1734 2745 1975 
Q 2488 2216 2034 2216 
z
M 1403 2484 
Q 997 2584 770 2862 
Q 544 3141 544 3541 
Q 544 4100 942 4425 
Q 1341 4750 2034 4750 
Q 2731 4750 3128 4425 
Q 3525 4100 3525 3541 
Q 3525 3141 3298 2862 
Q 3072 2584 2669 2484 
Q 3125 2378 3379 2068 
Q 3634 1759 3634 1313 
Q 3634 634 3220 271 
Q 2806 -91 2034 -91 
Q 1263 -91 848 271 
Q 434 634 434 1313 
Q 434 1759 690 2068 
Q 947 2378 1403 2484 
z
M 1172 3481 
Q 1172 3119 1398 2916 
Q 1625 2713 2034 2713 
Q 2441 2713 2670 2916 
Q 2900 3119 2900 3481 
Q 2900 3844 2670 4047 
Q 2441 4250 2034 4250 
Q 1625 4250 1398 4047 
Q 1172 3844 1172 3481 
z
" transform="scale(0.015625)"/>
       </defs>
       <use xlink:href="#DejaVuSans-38"/>
       <use xlink:href="#DejaVuSans-30" x="63.623047"/>
       <use xlink:href="#DejaVuSans-30" x="127.246094"/>
       <use xlink:href="#DejaVuSans-30" x="190.869141"/>
      </g>
     </g>
    </g>
    <g id="ytick_6">
     <g id="line2d_23">
      <path d="M 135 109.858317 
L 972 109.858317 
" clip-path="url(#pf35de05998)" style="fill: none; stroke: #303030; stroke-width: 1.12; stroke-linecap: square"/>
     </g>
     <g id="line2d_24"/>
     <g id="text_12">
      <!-- 10000 -->
      <g style="fill: #bbbbbb" transform="translate(69.274375 117.038841)scale(0.189 -0.189)">
       <use xlink:href="#DejaVuSans-31"/>
       <use xlink:href="#DejaVuSans-30" x="63.623047"/>
       <use xlink:href="#DejaVuSans-30" x="127.246094"/>
       <use xlink:href="#DejaVuSans-30" x="190.869141"/>
       <use xlink:href="#DejaVuSans-30" x="254.492188"/>
      </g>
     </g>
    </g>
   </g>
   <g id="line2d_25">
    <path d="M 173.045455 526.719934 
L 174.570322 474.672604 
L 176.09519 530.00475 
L 177.620058 540.059684 
L 179.144926 611.265417 
L 180.669794 562.972453 
L 182.194662 575.92251 
L 183.71953 610.841763 
L 185.244398 633.634727 
L 186.769266 542.836093 
L 188.294134 638.558942 
L 189.819002 400.94012 
L 191.34387 541.739937 
L 192.868737 501.951515 
L 194.393605 663.798284 
L 195.918473 515.611968 
L 197.443341 571.026898 
L 198.968209 436.417754 
L 202.017945 621.524671 
L 203.542813 556.728843 
L 205.067681 590.011059 
L 206.592549 646.105599 
L 208.117417 473.735699 
L 209.642285 602.635298 
L 211.167152 545.675005 
L 212.69202 644.244535 
L 214.216888 520.303234 
L 215.741756 659.962136 
L 217.266624 451.890671 
L 218.791492 473.520985 
L 220.31636 399.626581 
L 221.841228 470.120475 
L 223.366096 605.999696 
L 224.890964 631.656077 
L 226.415832 506.392997 
L 227.9407 658.430096 
L 229.465567 654.984307 
L 230.990435 533.712974 
L 232.515303 493.384079 
L 234.040171 501.260512 
L 235.565039 638.381678 
L 237.089907 608.334005 
L 238.614775 662.055028 
L 240.139643 566.968842 
L 241.664511 665.086187 
L 243.189379 546.905023 
L 244.714247 443.823894 
L 246.239115 569.208658 
L 247.763983 665.82 
L 249.28885 598.724433 
L 250.813718 519.393084 
L 252.338586 663.188018 
L 253.863454 618.379657 
L 255.388322 600.139386 
L 256.91319 638.534052 
L 258.438058 384.15669 
L 259.962926 497.014586 
L 261.487794 372.631672 
L 263.012662 638.832608 
L 264.53753 634.921481 
L 266.062398 627.637098 
L 267.587265 185.139653 
L 269.112133 564.740562 
L 270.637001 664.307926 
L 272.161869 613.594673 
L 273.686737 659.866408 
L 275.211605 635.643957 
L 276.736473 656.918543 
L 278.261341 648.33572 
L 279.786209 568.423006 
L 281.311077 659.153068 
L 282.835945 658.864585 
L 284.360813 517.463208 
L 285.88568 576.570411 
L 287.410548 444.664292 
L 288.935416 656.146045 
L 290.460284 594.222473 
L 291.985152 637.482069 
L 293.51002 636.224166 
L 295.034888 650.428301 
L 296.559756 628.184177 
L 298.084624 664.863879 
L 299.609492 352.60576 
L 301.13436 595.472015 
L 302.659228 483.048232 
L 304.184095 505.892398 
L 305.708963 464.666238 
L 307.233831 649.586664 
L 308.758699 633.784473 
L 310.283567 587.095535 
L 311.808435 627.65748 
L 313.333303 657.237614 
L 314.858171 664.158986 
L 316.383039 657.767086 
L 317.907907 621.120018 
L 319.432775 497.464043 
L 320.957643 520.450001 
L 322.48251 451.780416 
L 324.007378 615.819821 
L 325.532246 646.543076 
L 327.057114 566.134537 
L 328.581982 635.681657 
L 330.10685 637.237312 
L 331.631718 648.787989 
L 333.156586 442.283935 
L 334.681454 486.552394 
L 336.206322 467.967031 
L 337.73119 604.135919 
L 339.256058 563.56057 
L 340.780925 546.038895 
L 342.305793 645.646041 
L 343.830661 339.50076 
L 345.355529 504.75193 
L 346.880397 609.039838 
L 348.405265 346.749334 
L 349.930133 624.706772 
L 351.455001 647.313788 
L 352.979869 633.226903 
L 354.504737 428.818757 
L 356.029605 451.549025 
L 357.554473 653.179076 
L 359.07934 613.707114 
L 360.604208 619.205529 
L 362.129076 442.99525 
L 363.653944 572.313282 
L 365.178812 665.353037 
L 366.70368 298.327346 
L 368.228548 641.240111 
L 369.753416 665.466823 
L 371.278284 426.386176 
L 372.803152 649.947703 
L 374.32802 652.651655 
L 375.852888 646.833826 
L 377.377756 626.602511 
L 378.902623 365.206219 
L 380.427491 429.102626 
L 381.952359 653.791786 
L 383.477227 581.599133 
L 385.002095 524.508542 
L 386.526963 665.71839 
L 388.051831 665.819991 
L 389.576699 628.951259 
L 391.101567 579.414749 
L 392.626435 566.077032 
L 394.151303 620.377581 
L 395.676171 357.421234 
L 397.201038 529.585789 
L 398.725906 617.052925 
L 400.250774 640.675738 
L 401.775642 442.139928 
L 403.30051 654.910305 
L 404.825378 420.288358 
L 406.350246 608.00425 
L 407.875114 463.799871 
L 409.399982 578.205607 
L 410.92485 613.737236 
L 412.449718 268.897536 
L 413.974586 663.129306 
L 415.499453 462.64479 
L 417.024321 659.042086 
L 418.549189 638.675705 
L 420.074057 653.665028 
L 421.598925 603.091718 
L 423.123793 517.573695 
L 424.648661 402.87639 
L 426.173529 422.911064 
L 427.698397 424.560278 
L 429.223265 642.137978 
L 430.748133 371.71443 
L 432.273001 603.69261 
L 433.797868 582.455616 
L 435.322736 638.515608 
L 436.847604 588.692231 
L 438.372472 378.714821 
L 439.89734 665.82 
L 441.422208 456.667855 
L 442.947076 550.024994 
L 444.471944 599.788112 
L 445.996812 635.46869 
L 447.52168 584.07357 
L 449.046548 476.160945 
L 450.571416 660.918015 
L 452.096283 665.819219 
L 453.621151 523.273817 
L 455.146019 487.548001 
L 456.670887 639.249764 
L 458.195755 627.190396 
L 459.720623 663.631789 
L 461.245491 458.387459 
L 464.295227 608.073105 
L 465.820095 324.775793 
L 467.344963 547.486251 
L 468.869831 654.11322 
L 470.394698 639.715196 
L 471.919566 543.455911 
L 473.444434 556.571707 
L 474.969302 641.629286 
L 476.49417 605.359012 
L 478.019038 579.523457 
L 479.543906 182.500681 
L 482.593642 600.226665 
L 484.11851 583.204906 
L 485.643378 591.815492 
L 487.168246 648.552374 
L 488.693113 560.76826 
L 490.217981 384.519476 
L 493.267717 596.470021 
L 494.792585 615.113515 
L 496.317453 612.099393 
L 497.842321 578.016517 
L 499.367189 533.045186 
L 500.892057 527.603598 
L 502.416925 665.5437 
L 503.941793 660.66825 
L 505.466661 627.146515 
L 506.991529 658.600917 
L 508.516396 540.378562 
L 510.041264 589.064531 
L 511.566132 603.63794 
L 513.091 665.82 
L 514.615868 659.957219 
L 516.140736 503.332498 
L 517.665604 663.573318 
L 519.190472 508.711601 
L 520.71534 639.657812 
L 522.240208 662.580793 
L 523.765076 542.177003 
L 525.289944 498.762251 
L 526.814811 642.837833 
L 528.339679 634.687928 
L 529.864547 463.124621 
L 531.389415 520.676621 
L 532.914283 662.051751 
L 534.439151 608.805802 
L 535.964019 548.52571 
L 537.488887 414.924902 
L 539.013755 655.86615 
L 540.538623 633.178717 
L 542.063491 347.16744 
L 543.588359 596.822556 
L 545.113226 471.97283 
L 546.638094 486.900479 
L 548.162962 471.897833 
L 549.68783 605.488136 
L 551.212698 536.634582 
L 552.737566 665.67308 
L 554.262434 556.345864 
L 555.787302 647.120879 
L 558.837038 567.875606 
L 560.361906 517.713958 
L 561.886774 657.831188 
L 563.411641 471.757613 
L 564.936509 582.593103 
L 566.461377 623.324261 
L 567.986245 438.819252 
L 569.511113 578.831958 
L 571.035981 605.353686 
L 572.560849 600.653021 
L 574.085717 606.63793 
L 575.610585 620.799685 
L 577.135453 609.259653 
L 578.660321 603.485576 
L 580.185189 615.369097 
L 581.710056 616.143504 
L 583.234924 595.413899 
L 584.759792 552.606906 
L 586.28466 651.322247 
L 587.809528 664.312402 
L 589.334396 656.96474 
L 590.859264 662.52684 
L 592.384132 582.667613 
L 593.909 652.736329 
L 595.433868 594.669703 
L 596.958736 590.921199 
L 598.483604 645.821793 
L 600.008471 427.779136 
L 601.533339 665.82 
L 603.058207 628.52751 
L 604.583075 634.409201 
L 606.107943 521.779222 
L 607.632811 607.489093 
L 609.157679 633.644488 
L 610.682547 644.811753 
L 612.207415 660.60124 
L 613.732283 579.437493 
L 615.257151 510.156323 
L 616.782019 565.192055 
L 618.306887 654.530078 
L 619.831754 656.496389 
L 621.356622 562.021259 
L 622.88149 612.483097 
L 624.406358 557.880304 
L 625.931226 611.535211 
L 627.456094 522.219779 
L 628.980962 616.208745 
L 630.50583 576.832434 
L 632.030698 437.201117 
L 633.555566 571.386 
L 635.080434 662.828927 
L 636.605302 614.659899 
L 638.130169 554.44178 
L 639.655037 665.492301 
L 641.179905 643.211474 
L 642.704773 565.5852 
L 644.229641 661.531053 
L 645.754509 642.598282 
L 647.279377 635.140759 
L 648.804245 541.407097 
L 650.329113 657.986886 
L 651.853981 665.811289 
L 653.378849 557.705648 
L 654.903717 595.722785 
L 656.428584 665.81424 
L 657.953452 645.578967 
L 659.47832 557.606379 
L 662.528056 622.755789 
L 664.052924 587.361819 
L 665.577792 566.360683 
L 667.10266 513.747725 
L 668.627528 533.052098 
L 670.152396 641.526891 
L 671.677264 609.518543 
L 673.202132 573.943401 
L 674.726999 549.690192 
L 676.251867 661.046463 
L 677.776735 527.492121 
L 679.301603 648.354155 
L 680.826471 648.779072 
L 682.351339 626.106204 
L 683.876207 490.95305 
L 685.401075 665.77851 
L 686.925943 620.205626 
L 688.450811 642.26997 
L 689.975679 549.760123 
L 691.500547 664.219942 
L 693.025414 661.788308 
L 694.550282 665.251588 
L 697.600018 608.201852 
L 699.124886 645.31203 
L 700.649754 610.66413 
L 702.174622 611.005836 
L 703.69949 628.009647 
L 705.224358 630.425338 
L 706.749226 597.050061 
L 708.274094 636.132982 
L 709.798962 624.107768 
L 711.323829 378.993783 
L 712.848697 537.11693 
L 714.373565 665.82 
L 715.898433 463.679335 
L 717.423301 473.658132 
L 718.948169 603.565713 
L 720.473037 622.785698 
L 721.997905 542.176445 
L 723.522773 584.470991 
L 725.047641 665.82 
L 726.572509 269.687352 
L 728.097377 288.876958 
L 729.622244 561.829734 
L 731.147112 642.86348 
L 732.67198 393.888318 
L 734.196848 544.686038 
L 735.721716 646.102218 
L 737.246584 478.575636 
L 738.771452 648.576818 
L 740.29632 546.057955 
L 741.821188 665.582538 
L 743.346056 664.841494 
L 744.870924 634.078736 
L 746.395792 565.729948 
L 747.92066 657.914161 
L 749.445527 528.159307 
L 750.970395 633.629159 
L 752.495263 617.56585 
L 754.020131 647.350953 
L 755.544999 347.578677 
L 757.069867 607.660624 
L 758.594735 544.867013 
L 760.119603 663.416573 
L 761.644471 485.943142 
L 763.169339 649.612207 
L 764.694207 388.796152 
L 766.219075 487.394677 
L 767.743942 633.46014 
L 769.26881 489.202575 
L 770.793678 533.203411 
L 772.318546 624.270673 
L 773.843414 633.316709 
L 775.368282 491.76221 
L 776.89315 665.82 
L 778.418018 665.610362 
L 779.942886 531.113264 
L 781.467754 632.04983 
L 782.992622 590.451992 
L 784.51749 650.890994 
L 786.042357 627.724504 
L 787.567225 621.756343 
L 789.092093 544.098696 
L 790.616961 643.657725 
L 792.141829 588.395273 
L 793.666697 416.236375 
L 795.191565 469.302333 
L 796.716433 603.407741 
L 798.241301 661.312447 
L 799.766169 392.368772 
L 801.291037 664.362248 
L 802.815905 571.561265 
L 804.340772 586.348672 
L 805.86564 665.542591 
L 807.390508 591.806315 
L 808.915376 628.450155 
L 810.440244 586.819194 
L 811.965112 483.905058 
L 813.48998 661.840785 
L 815.014848 650.493203 
L 816.539716 596.32638 
L 818.064584 531.550693 
L 819.589452 660.590037 
L 821.11432 639.662999 
L 822.639187 461.313406 
L 824.164055 635.451459 
L 825.688923 621.033648 
L 827.213791 558.738491 
L 828.738659 646.281443 
L 830.263527 463.02611 
L 831.788395 665.82 
L 833.313263 446.040392 
L 834.838131 537.489027 
L 836.362999 551.287547 
L 837.887867 366.924731 
L 839.412735 657.771468 
L 840.937602 640.639607 
L 842.46247 533.618619 
L 843.987338 493.10625 
L 845.512206 664.978533 
L 847.037074 613.877908 
L 848.561942 520.172697 
L 850.08681 520.03615 
L 851.611678 588.535766 
L 853.136546 564.928145 
L 854.661414 639.541543 
L 856.186282 586.091113 
L 857.71115 471.52871 
L 859.236017 624.74281 
L 860.760885 663.226317 
L 862.285753 577.774059 
L 865.335489 306.960687 
L 866.860357 658.661281 
L 868.385225 122.22 
L 869.910093 644.768425 
L 871.434961 527.417009 
L 872.959829 641.175665 
L 874.484697 654.341277 
L 876.009565 530.331754 
L 877.534433 495.506265 
L 879.0593 526.022473 
L 880.584168 620.862006 
L 882.109036 479.76349 
L 883.633904 649.182717 
L 885.158772 619.62245 
L 886.68364 352.382876 
L 888.208508 296.802299 
L 889.733376 497.428584 
L 891.258244 557.199414 
L 892.783112 475.938752 
L 894.30798 576.724109 
L 895.832848 644.654947 
L 897.357715 642.556503 
L 898.882583 649.660499 
L 900.407451 619.253078 
L 901.932319 658.916832 
L 903.457187 610.019379 
L 904.982055 624.205765 
L 906.506923 493.673716 
L 908.031791 570.993233 
L 909.556659 618.493189 
L 911.081527 557.187867 
L 912.606395 609.22866 
L 914.131263 627.488622 
L 915.65613 604.752763 
L 917.180998 592.460531 
L 918.705866 658.987218 
L 920.230734 620.690504 
L 921.755602 664.005548 
L 923.28047 665.075727 
L 924.805338 650.310941 
L 926.330206 483.491247 
L 927.855074 665.82 
L 929.379942 631.303774 
L 930.90481 536.20349 
L 932.429678 637.840395 
L 933.954545 665.82 
L 933.954545 665.82 
" clip-path="url(#pf35de05998)" style="fill: none; stroke-dasharray: 4.44,1.92; stroke-dashoffset: 0; stroke: #3572c6; stroke-width: 1.2"/>
   </g>
   <g id="line2d_26">
    <path d="M 173.045455 554.627663 
L 174.570322 540.728621 
L 176.09519 662.806688 
L 177.620058 565.969282 
L 179.144926 664.977718 
L 180.669794 562.855896 
L 182.194662 630.788854 
L 183.71953 622.085274 
L 185.244398 665.344653 
L 186.769266 542.371488 
L 188.294134 652.685405 
L 189.819002 401.793797 
L 191.34387 542.143544 
L 192.868737 578.311631 
L 194.393605 665.38913 
L 195.918473 593.267 
L 197.443341 601.884406 
L 198.968209 551.013913 
L 200.493077 623.933847 
L 202.017945 664.763673 
L 203.542813 654.756363 
L 205.067681 654.514519 
L 206.592549 646.077801 
L 208.117417 551.403086 
L 209.642285 662.261845 
L 211.167152 556.1232 
L 212.69202 665.319634 
L 214.216888 529.609388 
L 215.741756 665.808881 
L 217.266624 573.25238 
L 218.791492 567.859552 
L 220.31636 456.8896 
L 221.841228 537.392851 
L 223.366096 636.909992 
L 224.890964 664.152115 
L 226.415832 565.099202 
L 227.9407 665.603175 
L 230.990435 644.693456 
L 232.515303 540.728621 
L 234.040171 511.00135 
L 235.565039 649.388552 
L 237.089907 621.343065 
L 238.614775 664.888764 
L 240.139643 581.550108 
L 241.664511 665.800541 
L 243.189379 635.186511 
L 244.714247 543.286045 
L 246.239115 599.938541 
L 247.763983 665.800541 
L 249.28885 644.532227 
L 250.813718 615.839045 
L 252.338586 665.67545 
L 253.863454 627.775542 
L 255.388322 602.860119 
L 256.91319 664.263307 
L 258.438058 387.283197 
L 259.962926 576.58815 
L 261.487794 371.938655 
L 263.012662 664.819269 
L 264.53753 641.110283 
L 266.062398 653.672237 
L 267.587265 493.30509 
L 270.637001 665.67267 
L 272.161869 650.758998 
L 273.686737 665.66989 
L 275.211605 665.208442 
L 276.736473 665.497542 
L 278.261341 665.569817 
L 279.786209 634.394266 
L 281.311077 665.655991 
L 282.835945 665.642092 
L 284.360813 530.170909 
L 285.88568 628.731796 
L 287.410548 562.272137 
L 288.935416 664.822049 
L 290.460284 597.436713 
L 291.985152 662.125635 
L 293.51002 664.293885 
L 295.034888 665.542019 
L 296.559756 651.982114 
L 298.084624 665.778303 
L 299.609492 454.554561 
L 301.13436 638.060833 
L 302.659228 549.068047 
L 304.184095 510.706691 
L 305.708963 552.403817 
L 307.233831 665.264038 
L 308.758699 664.541288 
L 310.283567 591.877096 
L 311.808435 640.735009 
L 313.333303 665.758844 
L 314.858171 665.736606 
L 316.383039 663.429365 
L 317.907907 658.197765 
L 319.432775 542.507699 
L 320.957643 596.32479 
L 322.48251 496.474071 
L 324.007378 644.0541 
L 325.532246 660.749629 
L 327.057114 630.182856 
L 328.581982 653.92798 
L 330.10685 658.759287 
L 331.631718 655.757094 
L 334.681454 484.854472 
L 336.206322 540.450641 
L 337.73119 609.539999 
L 339.256058 626.902682 
L 340.780925 613.837583 
L 342.305793 664.307784 
L 343.830661 548.067316 
L 345.355529 588.819307 
L 346.880397 624.400855 
L 348.405265 547.400162 
L 349.930133 645.582995 
L 351.455001 664.610783 
L 352.979869 659.479257 
L 354.504737 518.517952 
L 356.029605 556.295549 
L 357.554473 661.844874 
L 359.07934 640.968513 
L 360.604208 626.93326 
L 362.129076 529.998561 
L 363.653944 651.829224 
L 365.178812 665.800541 
L 366.70368 305.025886 
L 368.228548 662.595422 
L 369.753416 665.800541 
L 371.278284 612.589449 
L 372.803152 663.710125 
L 374.32802 665.430827 
L 375.852888 663.05687 
L 377.377756 650.180798 
L 378.902623 542.235278 
L 380.427491 597.992675 
L 381.952359 658.439609 
L 383.477227 611.335755 
L 385.002095 575.198246 
L 386.526963 665.794982 
L 388.051831 665.800541 
L 389.576699 655.943341 
L 391.101567 575.701391 
L 392.626435 592.416379 
L 394.151303 620.817682 
L 395.676171 493.471878 
L 397.201038 537.100971 
L 398.725906 655.579186 
L 400.250774 634.966906 
L 401.775642 543.50843 
L 403.30051 665.600395 
L 404.825378 476.90144 
L 406.350246 607.296693 
L 407.875114 563.52305 
L 409.399982 604.541903 
L 410.92485 631.13911 
L 412.449718 498.653441 
L 413.974586 665.630973 
L 415.499453 503.201208 
L 417.024321 665.664331 
L 418.549189 658.306178 
L 420.074057 665.586496 
L 423.123793 554.627663 
L 424.648661 518.490154 
L 426.173529 545.67668 
L 427.698397 506.264557 
L 429.223265 664.3745 
L 430.748133 529.904047 
L 432.273001 663.985326 
L 433.797868 640.801724 
L 435.322736 646.08336 
L 436.847604 599.932981 
L 438.372472 605.475919 
L 439.89734 665.783862 
L 441.422208 560.801618 
L 442.947076 613.837583 
L 444.471944 611.057774 
L 445.996812 662.614881 
L 447.52168 620.634214 
L 449.046548 555.739587 
L 450.571416 665.52256 
L 452.096283 665.81444 
L 453.621151 583.4098 
L 455.146019 619.953161 
L 456.670887 663.234778 
L 458.195755 662.133974 
L 459.720623 665.797762 
L 461.245491 544.884435 
L 462.770359 548.642736 
L 464.295227 610.223832 
L 465.820095 338.853375 
L 467.344963 604.719811 
L 468.869831 665.344653 
L 470.394698 657.54451 
L 471.919566 587.985364 
L 473.444434 561.299204 
L 474.969302 655.306765 
L 476.49417 648.807573 
L 478.019038 583.398681 
L 479.543906 493.30509 
L 481.068774 548.2897 
L 482.593642 624.348038 
L 484.11851 613.167649 
L 485.643378 639.625865 
L 487.168246 656.67999 
L 488.693113 550.079897 
L 490.217981 623.566912 
L 491.742849 540.728621 
L 493.267717 637.112919 
L 494.792585 614.671525 
L 496.317453 664.766453 
L 497.842321 599.471533 
L 499.367189 581.869786 
L 500.892057 535.66937 
L 502.416925 664.574646 
L 503.941793 665.689349 
L 505.466661 639.139399 
L 506.991529 665.475304 
L 508.516396 593.380973 
L 510.041264 592.83613 
L 511.566132 657.424979 
L 513.091 665.81722 
L 514.615868 665.119488 
L 516.140736 563.856627 
L 517.665604 665.747725 
L 519.190472 611.530342 
L 520.71534 647.640053 
L 522.240208 665.789422 
L 523.765076 553.960509 
L 525.289944 509.98394 
L 526.814811 665.667111 
L 528.339679 664.51905 
L 529.864547 500.921765 
L 531.389415 534.613043 
L 532.914283 665.714367 
L 534.439151 641.799675 
L 535.964019 609.184183 
L 537.488887 562.272137 
L 539.013755 665.742165 
L 540.538623 658.71759 
L 542.063491 524.049771 
L 543.588359 610.757555 
L 545.113226 525.884444 
L 546.638094 545.454296 
L 548.162962 556.017568 
L 549.68783 626.999976 
L 551.212698 589.978487 
L 552.737566 665.753285 
L 554.262434 566.58084 
L 555.787302 664.930461 
L 557.31217 645.138225 
L 558.837038 647.918034 
L 560.361906 599.146295 
L 561.886774 664.299445 
L 563.411641 560.801618 
L 564.936509 588.747032 
L 566.461377 623.803196 
L 567.986245 457.890331 
L 569.511113 625.234797 
L 571.035981 656.368651 
L 572.560849 651.920958 
L 574.085717 661.483499 
L 575.610585 664.441215 
L 577.135453 642.583581 
L 578.660321 603.969263 
L 580.185189 661.191619 
L 581.710056 580.757863 
L 583.234924 660.318759 
L 584.759792 552.125836 
L 586.28466 665.408588 
L 589.334396 665.744945 
L 590.859264 665.711587 
L 592.384132 624.122874 
L 593.909 664.983278 
L 595.433868 604.386234 
L 596.958736 591.251639 
L 598.483604 659.987962 
L 600.008471 455.705401 
L 601.533339 665.81722 
L 603.058207 654.083649 
L 604.583075 663.387668 
L 606.107943 575.701391 
L 607.632811 646.361341 
L 609.157679 665.23346 
L 610.682547 665.700468 
L 612.207415 665.708808 
L 613.732283 597.269925 
L 615.257151 653.866824 
L 616.782019 630.516433 
L 618.306887 665.202883 
L 619.831754 664.855406 
L 621.356622 624.703854 
L 622.88149 647.348173 
L 625.931226 618.563257 
L 627.456094 607.446803 
L 628.980962 621.604367 
L 630.50583 582.867737 
L 632.030698 558.074626 
L 633.555566 574.047405 
L 635.080434 665.264038 
L 636.605302 650.531054 
L 638.130169 654.923151 
L 639.655037 665.708808 
L 641.179905 665.275158 
L 642.704773 593.13079 
L 644.229641 664.708077 
L 645.754509 654.50618 
L 647.279377 634.258055 
L 648.804245 602.662753 
L 650.329113 665.169525 
L 651.853981 665.803321 
L 653.378849 604.719811 
L 654.903717 652.18782 
L 656.428584 665.806101 
L 657.953452 664.66638 
L 659.47832 596.569413 
L 661.003188 602.459827 
L 662.528056 664.068721 
L 664.052924 659.982402 
L 667.10266 527.224312 
L 668.627528 522.968425 
L 670.152396 631.739549 
L 671.677264 663.660089 
L 673.202132 664.852627 
L 674.726999 557.8717 
L 676.251867 665.753285 
L 677.776735 616.369988 
L 679.301603 659.590449 
L 680.826471 662.692716 
L 682.351339 664.913782 
L 683.876207 599.104598 
L 685.401075 665.778303 
L 686.925943 650.645026 
L 688.450811 665.069452 
L 689.975679 592.269049 
L 691.500547 665.731046 
L 693.025414 661.928268 
L 694.550282 665.81444 
L 696.07515 661.4696 
L 697.600018 593.600577 
L 699.124886 655.08994 
L 700.649754 641.468878 
L 702.174622 641.682924 
L 703.69949 665.316855 
L 705.224358 665.222341 
L 706.749226 608.22237 
L 708.274094 640.801724 
L 709.798962 664.318903 
L 711.323829 580.382588 
L 712.848697 659.315248 
L 714.373565 665.81722 
L 715.898433 486.021992 
L 717.423301 608.833928 
L 718.948169 643.692725 
L 720.473037 649.697111 
L 721.997905 585.87271 
L 723.522773 617.479132 
L 725.047641 665.81722 
L 726.572509 554.627663 
L 728.097377 313.340293 
L 729.622244 549.465559 
L 731.147112 664.566306 
L 732.67198 549.735201 
L 734.196848 594.57629 
L 735.721716 665.319634 
L 737.246584 526.162425 
L 738.771452 657.597327 
L 740.29632 574.141919 
L 741.821188 665.764404 
L 743.346056 665.714367 
L 744.870924 657.761335 
L 746.395792 568.804686 
L 747.92066 665.264038 
L 749.445527 549.901989 
L 750.970395 638.741886 
L 752.495263 657.925344 
L 754.020131 647.306476 
L 755.544999 358.595574 
L 757.069867 639.756516 
L 758.594735 554.627663 
L 760.119603 665.653211 
L 761.644471 546.288238 
L 763.169339 665.436386 
L 764.694207 475.125143 
L 766.219075 551.180701 
L 767.743942 656.757825 
L 769.26881 556.12876 
L 770.793678 625.123605 
L 772.318546 624.992954 
L 773.843414 638.133108 
L 775.368282 611.335755 
L 776.89315 665.81722 
L 778.418018 665.767184 
L 779.942886 554.319105 
L 781.467754 655.979478 
L 782.992622 624.420313 
L 784.51749 665.66989 
L 786.042357 643.637129 
L 787.567225 648.585188 
L 789.092093 618.563257 
L 790.616961 664.819269 
L 792.141829 589.375269 
L 793.666697 522.256794 
L 795.191565 564.812881 
L 796.716433 603.274311 
L 798.241301 665.742165 
L 799.766169 482.352645 
L 801.291037 665.486423 
L 802.815905 624.234066 
L 804.340772 590.765173 
L 805.86564 665.775523 
L 807.390508 663.596153 
L 808.915376 665.589276 
L 810.440244 627.347452 
L 811.965112 483.781466 
L 813.48998 665.692129 
L 815.014848 665.09725 
L 816.539716 608.22237 
L 818.064584 532.3336 
L 819.589452 663.50442 
L 821.11432 665.188983 
L 822.639187 599.104598 
L 824.164055 645.608013 
L 825.688923 636.465223 
L 827.213791 579.954498 
L 828.738659 662.398056 
L 830.263527 564.810102 
L 831.788395 665.81722 
L 833.313263 515.710346 
L 834.838131 591.09875 
L 836.362999 582.481344 
L 837.887867 526.551598 
L 839.412735 664.819269 
L 840.937602 660.819125 
L 842.46247 541.729352 
L 843.987338 502.367265 
L 845.512206 665.708808 
L 847.037074 655.256728 
L 848.561942 576.643746 
L 850.08681 538.346326 
L 851.611678 590.765173 
L 853.136546 620.909415 
L 854.661414 664.65248 
L 856.186282 622.460548 
L 857.71115 564.810102 
L 859.236017 652.346269 
L 860.760885 665.786642 
L 862.285753 604.0054 
L 863.810621 562.133146 
L 865.335489 315.56414 
L 866.860357 665.458625 
L 868.385225 258.300087 
L 869.910093 665.375231 
L 871.434961 574.103001 
L 872.959829 663.907492 
L 874.484697 665.558698 
L 876.009565 570.472571 
L 877.534433 575.701391 
L 879.0593 570.63936 
L 880.584168 641.960904 
L 882.109036 561.290864 
L 883.633904 664.452334 
L 885.158772 656.365872 
L 886.68364 523.705075 
L 888.208508 567.136801 
L 889.733376 567.414782 
L 891.258244 562.925392 
L 892.783112 486.522357 
L 894.30798 577.547184 
L 895.832848 656.921833 
L 897.357715 664.633022 
L 898.882583 663.810199 
L 900.407451 633.574222 
L 901.932319 665.619854 
L 903.457187 612.614467 
L 904.982055 635.467272 
L 906.506923 589.653249 
L 908.031791 593.544981 
L 909.556659 656.924613 
L 911.081527 566.330657 
L 912.606395 609.445485 
L 914.131263 641.819134 
L 915.65613 634.611091 
L 917.180998 651.920958 
L 918.705866 665.717147 
L 920.230734 658.592498 
L 921.755602 665.750505 
L 923.28047 665.792202 
L 924.805338 664.702517 
L 926.330206 648.746417 
L 927.855074 665.797762 
L 929.379942 652.340709 
L 930.90481 576.143381 
L 932.429678 662.317441 
L 933.954545 665.81722 
L 933.954545 665.81722 
" clip-path="url(#pf35de05998)" style="fill: none; stroke: #c44e52; stroke-width: 1.2; stroke-linecap: square"/>
   </g>
   <g id="patch_3">
    <path d="M 135 693 
L 135 95.04 
" style="fill: none; stroke: #888888; stroke-width: 1.12; stroke-linejoin: miter; stroke-linecap: square"/>
   </g>
   <g id="patch_4">
    <path d="M 972 693 
L 972 95.04 
" style="fill: none; stroke: #888888; stroke-width: 1.12; stroke-linejoin: miter; stroke-linecap: square"/>
   </g>
   <g id="patch_5">
    <path d="M 135 693 
L 972 693 
" style="fill: none; stroke: #888888; stroke-width: 1.12; stroke-linejoin: miter; stroke-linecap: square"/>
   </g>
   <g id="patch_6">
    <path d="M 135 95.04 
L 972 95.04 
" style="fill: none; stroke: #888888; stroke-width: 1.12; stroke-linejoin: miter; stroke-linecap: square"/>
   </g>
   <g id="legend_1">
    <g id="patch_7">
     <path d="M 148.23 165.643312 
L 342.817313 165.643312 
Q 346.597313 165.643312 346.597313 161.863313 
L 346.597313 108.27 
Q 346.597313 104.49 342.817313 104.49 
L 148.23 104.49 
Q 144.45 104.49 144.45 108.27 
L 144.45 161.863313 
Q 144.45 165.643312 148.23 165.643312 
z
" style="fill: #232323; opacity: 0.8; stroke: #cccccc; stroke-width: 0.16; stroke-linejoin: miter"/>
    </g>
    <g id="line2d_27">
     <path d="M 152.01 119.796047 
L 170.91 119.796047 
L 189.81 119.796047 
" style="fill: none; stroke-dasharray: 4.44,1.92; stroke-dashoffset: 0; stroke: #3572c6; stroke-width: 1.2"/>
    </g>
    <g id="text_13">
     <!-- Predicted (BS) -->
     <g style="fill: #bbbbbb" transform="translate(204.93 126.411047)scale(0.189 -0.189)">
      <defs>
       <path id="DejaVuSans-50" d="M 1259 4147 
L 1259 2394 
L 2053 2394 
Q 2494 2394 2734 2622 
Q 2975 2850 2975 3272 
Q 2975 3691 2734 3919 
Q 2494 4147 2053 4147 
L 1259 4147 
z
M 628 4666 
L 2053 4666 
Q 2838 4666 3239 4311 
Q 3641 3956 3641 3272 
Q 3641 2581 3239 2228 
Q 2838 1875 2053 1875 
L 1259 1875 
L 1259 0 
L 628 0 
L 628 4666 
z
" transform="scale(0.015625)"/>
       <path id="DejaVuSans-72" d="M 2631 2963 
Q 2534 3019 2420 3045 
Q 2306 3072 2169 3072 
Q 1681 3072 1420 2755 
Q 1159 2438 1159 1844 
L 1159 0 
L 581 0 
L 581 3500 
L 1159 3500 
L 1159 2956 
Q 1341 3275 1631 3429 
Q 1922 3584 2338 3584 
Q 2397 3584 2469 3576 
Q 2541 3569 2628 3553 
L 2631 2963 
z
" transform="scale(0.015625)"/>
       <path id="DejaVuSans-65" d="M 3597 1894 
L 3597 1613 
L 953 1613 
Q 991 1019 1311 708 
Q 1631 397 2203 397 
Q 2534 397 2845 478 
Q 3156 559 3463 722 
L 3463 178 
Q 3153 47 2828 -22 
Q 2503 -91 2169 -91 
Q 1331 -91 842 396 
Q 353 884 353 1716 
Q 353 2575 817 3079 
Q 1281 3584 2069 3584 
Q 2775 3584 3186 3129 
Q 3597 2675 3597 1894 
z
M 3022 2063 
Q 3016 2534 2758 2815 
Q 2500 3097 2075 3097 
Q 1594 3097 1305 2825 
Q 1016 2553 972 2059 
L 3022 2063 
z
" transform="scale(0.015625)"/>
       <path id="DejaVuSans-64" d="M 2906 2969 
L 2906 4863 
L 3481 4863 
L 3481 0 
L 2906 0 
L 2906 525 
Q 2725 213 2448 61 
Q 2172 -91 1784 -91 
Q 1150 -91 751 415 
Q 353 922 353 1747 
Q 353 2572 751 3078 
Q 1150 3584 1784 3584 
Q 2172 3584 2448 3432 
Q 2725 3281 2906 2969 
z
M 947 1747 
Q 947 1113 1208 752 
Q 1469 391 1925 391 
Q 2381 391 2643 752 
Q 2906 1113 2906 1747 
Q 2906 2381 2643 2742 
Q 2381 3103 1925 3103 
Q 1469 3103 1208 2742 
Q 947 2381 947 1747 
z
" transform="scale(0.015625)"/>
       <path id="DejaVuSans-69" d="M 603 3500 
L 1178 3500 
L 1178 0 
L 603 0 
L 603 3500 
z
M 603 4863 
L 1178 4863 
L 1178 4134 
L 603 4134 
L 603 4863 
z
" transform="scale(0.015625)"/>
       <path id="DejaVuSans-63" d="M 3122 3366 
L 3122 2828 
Q 2878 2963 2633 3030 
Q 2388 3097 2138 3097 
Q 1578 3097 1268 2742 
Q 959 2388 959 1747 
Q 959 1106 1268 751 
Q 1578 397 2138 397 
Q 2388 397 2633 464 
Q 2878 531 3122 666 
L 3122 134 
Q 2881 22 2623 -34 
Q 2366 -91 2075 -91 
Q 1284 -91 818 406 
Q 353 903 353 1747 
Q 353 2603 823 3093 
Q 1294 3584 2113 3584 
Q 2378 3584 2631 3529 
Q 2884 3475 3122 3366 
z
" transform="scale(0.015625)"/>
       <path id="DejaVuSans-74" d="M 1172 4494 
L 1172 3500 
L 2356 3500 
L 2356 3053 
L 1172 3053 
L 1172 1153 
Q 1172 725 1289 603 
Q 1406 481 1766 481 
L 2356 481 
L 2356 0 
L 1766 0 
Q 1100 0 847 248 
Q 594 497 594 1153 
L 594 3053 
L 172 3053 
L 172 3500 
L 594 3500 
L 594 4494 
L 1172 4494 
z
" transform="scale(0.015625)"/>
       <path id="DejaVuSans-20" transform="scale(0.015625)"/>
       <path id="DejaVuSans-28" d="M 1984 4856 
Q 1566 4138 1362 3434 
Q 1159 2731 1159 2009 
Q 1159 1288 1364 580 
Q 1569 -128 1984 -844 
L 1484 -844 
Q 1016 -109 783 600 
Q 550 1309 550 2009 
Q 550 2706 781 3412 
Q 1013 4119 1484 4856 
L 1984 4856 
z
" transform="scale(0.015625)"/>
       <path id="DejaVuSans-42" d="M 1259 2228 
L 1259 519 
L 2272 519 
Q 2781 519 3026 730 
Q 3272 941 3272 1375 
Q 3272 1813 3026 2020 
Q 2781 2228 2272 2228 
L 1259 2228 
z
M 1259 4147 
L 1259 2741 
L 2194 2741 
Q 2656 2741 2882 2914 
Q 3109 3088 3109 3444 
Q 3109 3797 2882 3972 
Q 2656 4147 2194 4147 
L 1259 4147 
z
M 628 4666 
L 2241 4666 
Q 2963 4666 3353 4366 
Q 3744 4066 3744 3513 
Q 3744 3084 3544 2831 
Q 3344 2578 2956 2516 
Q 3422 2416 3680 2098 
Q 3938 1781 3938 1306 
Q 3938 681 3513 340 
Q 3088 0 2303 0 
L 628 0 
L 628 4666 
z
" transform="scale(0.015625)"/>
       <path id="DejaVuSans-53" d="M 3425 4513 
L 3425 3897 
Q 3066 4069 2747 4153 
Q 2428 4238 2131 4238 
Q 1616 4238 1336 4038 
Q 1056 3838 1056 3469 
Q 1056 3159 1242 3001 
Q 1428 2844 1947 2747 
L 2328 2669 
Q 3034 2534 3370 2195 
Q 3706 1856 3706 1288 
Q 3706 609 3251 259 
Q 2797 -91 1919 -91 
Q 1588 -91 1214 -16 
Q 841 59 441 206 
L 441 856 
Q 825 641 1194 531 
Q 1563 422 1919 422 
Q 2459 422 2753 634 
Q 3047 847 3047 1241 
Q 3047 1584 2836 1778 
Q 2625 1972 2144 2069 
L 1759 2144 
Q 1053 2284 737 2584 
Q 422 2884 422 3419 
Q 422 4038 858 4394 
Q 1294 4750 2059 4750 
Q 2388 4750 2728 4690 
Q 3069 4631 3425 4513 
z
" transform="scale(0.015625)"/>
       <path id="DejaVuSans-29" d="M 513 4856 
L 1013 4856 
Q 1481 4119 1714 3412 
Q 1947 2706 1947 2009 
Q 1947 1309 1714 600 
Q 1481 -109 1013 -844 
L 513 -844 
Q 928 -128 1133 580 
Q 1338 1288 1338 2009 
Q 1338 2731 1133 3434 
Q 928 4138 513 4856 
z
" transform="scale(0.015625)"/>
      </defs>
      <use xlink:href="#DejaVuSans-50"/>
      <use xlink:href="#DejaVuSans-72" x="58.552734"/>
      <use xlink:href="#DejaVuSans-65" x="97.416016"/>
      <use xlink:href="#DejaVuSans-64" x="158.939453"/>
      <use xlink:href="#DejaVuSans-69" x="222.416016"/>
      <use xlink:href="#DejaVuSans-63" x="250.199219"/>
      <use xlink:href="#DejaVuSans-74" x="305.179688"/>
      <use xlink:href="#DejaVuSans-65" x="344.388672"/>
      <use xlink:href="#DejaVuSans-64" x="405.912109"/>
      <use xlink:href="#DejaVuSans-20" x="469.388672"/>
      <use xlink:href="#DejaVuSans-28" x="501.175781"/>
      <use xlink:href="#DejaVuSans-42" x="540.189453"/>
      <use xlink:href="#DejaVuSans-53" x="607.042969"/>
      <use xlink:href="#DejaVuSans-29" x="670.519531"/>
     </g>
    </g>
    <g id="line2d_28">
     <path d="M 152.01 147.537703 
L 170.91 147.537703 
L 189.81 147.537703 
" style="fill: none; stroke: #c44e52; stroke-width: 1.2; stroke-linecap: square"/>
    </g>
    <g id="text_14">
     <!-- LTP -->
     <g style="fill: #bbbbbb" transform="translate(204.93 154.152703)scale(0.189 -0.189)">
      <defs>
       <path id="DejaVuSans-4c" d="M 628 4666 
L 1259 4666 
L 1259 531 
L 3531 531 
L 3531 0 
L 628 0 
L 628 4666 
z
" transform="scale(0.015625)"/>
       <path id="DejaVuSans-54" d="M -19 4666 
L 3928 4666 
L 3928 4134 
L 2272 4134 
L 2272 0 
L 1638 0 
L 1638 4134 
L -19 4134 
L -19 4666 
z
" transform="scale(0.015625)"/>
      </defs>
      <use xlink:href="#DejaVuSans-4c"/>
      <use xlink:href="#DejaVuSans-54" x="41.962891"/>
      <use xlink:href="#DejaVuSans-50" x="103.046875"/>
     </g>
    </g>
   </g>
  </g>
 </g>
 <defs>
  <clipPath id="pf35de05998">
   <rect x="135" y="95.04" width="837" height="597.96"/>
  </clipPath>
 </defs>
</svg>
