<?xml version="1.0" encoding="utf-8" standalone="no"?>
<!DOCTYPE svg PUBLIC "-//W3C//DTD SVG 1.1//EN"
  "http://www.w3.org/Graphics/SVG/1.1/DTD/svg11.dtd">
<svg xmlns:xlink="http://www.w3.org/1999/xlink" width="1080pt" height="792pt" viewBox="0 0 1080 792" xmlns="http://www.w3.org/2000/svg" version="1.1">
 <metadata>
  <rdf:RDF xmlns:dc="http://purl.org/dc/elements/1.1/" xmlns:cc="http://creativecommons.org/ns#" xmlns:rdf="http://www.w3.org/1999/02/22-rdf-syntax-ns#">
   <cc:Work>
    <dc:type rdf:resource="http://purl.org/dc/dcmitype/StillImage"/>
    <dc:date>2022-04-29T17:29:59.486159</dc:date>
    <dc:format>image/svg+xml</dc:format>
    <dc:creator>
     <cc:Agent>
      <dc:title>Matplotlib v3.5.1, https://matplotlib.org/</dc:title>
     </cc:Agent>
    </dc:creator>
   </cc:Work>
  </rdf:RDF>
 </metadata>
 <defs>
  <style type="text/css">*{stroke-linejoin: round; stroke-linecap: butt}</style>
 </defs>
 <g id="figure_1">
  <g id="patch_1">
   <path d="M 0 792 
L 1080 792 
L 1080 0 
L 0 0 
z
" style="fill: #232323"/>
  </g>
  <g id="axes_1">
   <g id="patch_2">
    <path d="M 135 693 
L 972 693 
L 972 95.04 
L 135 95.04 
z
" style="fill: #232323"/>
   </g>
   <g id="matplotlib.axis_1">
    <g id="xtick_1">
     <g id="line2d_1">
      <path d="M 173.045455 693 
L 173.045455 95.04 
" clip-path="url(#pc650da2dbb)" style="fill: none; stroke: #303030; stroke-width: 1.12; stroke-linecap: square"/>
     </g>
     <g id="line2d_2"/>
     <g id="text_1">
      <!-- 1000 -->
      <g style="fill: #bbbbbb" transform="translate(148.995205 712.961047)scale(0.189 -0.189)">
       <defs>
        <path id="DejaVuSans-31" d="M 794 531 
L 1825 531 
L 1825 4091 
L 703 3866 
L 703 4441 
L 1819 4666 
L 2450 4666 
L 2450 531 
L 3481 531 
L 3481 0 
L 794 0 
L 794 531 
z
" transform="scale(0.015625)"/>
        <path id="DejaVuSans-30" d="M 2034 4250 
Q 1547 4250 1301 3770 
Q 1056 3291 1056 2328 
Q 1056 1369 1301 889 
Q 1547 409 2034 409 
Q 2525 409 2770 889 
Q 3016 1369 3016 2328 
Q 3016 3291 2770 3770 
Q 2525 4250 2034 4250 
z
M 2034 4750 
Q 2819 4750 3233 4129 
Q 3647 3509 3647 2328 
Q 3647 1150 3233 529 
Q 2819 -91 2034 -91 
Q 1250 -91 836 529 
Q 422 1150 422 2328 
Q 422 3509 836 4129 
Q 1250 4750 2034 4750 
z
" transform="scale(0.015625)"/>
       </defs>
       <use xlink:href="#DejaVuSans-31"/>
       <use xlink:href="#DejaVuSans-30" x="63.623047"/>
       <use xlink:href="#DejaVuSans-30" x="127.246094"/>
       <use xlink:href="#DejaVuSans-30" x="190.869141"/>
      </g>
     </g>
    </g>
    <g id="xtick_2">
     <g id="line2d_3">
      <path d="M 325.532246 693 
L 325.532246 95.04 
" clip-path="url(#pc650da2dbb)" style="fill: none; stroke: #303030; stroke-width: 1.12; stroke-linecap: square"/>
     </g>
     <g id="line2d_4"/>
     <g id="text_2">
      <!-- 1100 -->
      <g style="fill: #bbbbbb" transform="translate(301.481996 712.961047)scale(0.189 -0.189)">
       <use xlink:href="#DejaVuSans-31"/>
       <use xlink:href="#DejaVuSans-31" x="63.623047"/>
       <use xlink:href="#DejaVuSans-30" x="127.246094"/>
       <use xlink:href="#DejaVuSans-30" x="190.869141"/>
      </g>
     </g>
    </g>
    <g id="xtick_3">
     <g id="line2d_5">
      <path d="M 478.019038 693 
L 478.019038 95.04 
" clip-path="url(#pc650da2dbb)" style="fill: none; stroke: #303030; stroke-width: 1.12; stroke-linecap: square"/>
     </g>
     <g id="line2d_6"/>
     <g id="text_3">
      <!-- 1200 -->
      <g style="fill: #bbbbbb" transform="translate(453.968788 712.961047)scale(0.189 -0.189)">
       <defs>
        <path id="DejaVuSans-32" d="M 1228 531 
L 3431 531 
L 3431 0 
L 469 0 
L 469 531 
Q 828 903 1448 1529 
Q 2069 2156 2228 2338 
Q 2531 2678 2651 2914 
Q 2772 3150 2772 3378 
Q 2772 3750 2511 3984 
Q 2250 4219 1831 4219 
Q 1534 4219 1204 4116 
Q 875 4013 500 3803 
L 500 4441 
Q 881 4594 1212 4672 
Q 1544 4750 1819 4750 
Q 2544 4750 2975 4387 
Q 3406 4025 3406 3419 
Q 3406 3131 3298 2873 
Q 3191 2616 2906 2266 
Q 2828 2175 2409 1742 
Q 1991 1309 1228 531 
z
" transform="scale(0.015625)"/>
       </defs>
       <use xlink:href="#DejaVuSans-31"/>
       <use xlink:href="#DejaVuSans-32" x="63.623047"/>
       <use xlink:href="#DejaVuSans-30" x="127.246094"/>
       <use xlink:href="#DejaVuSans-30" x="190.869141"/>
      </g>
     </g>
    </g>
    <g id="xtick_4">
     <g id="line2d_7">
      <path d="M 630.50583 693 
L 630.50583 95.04 
" clip-path="url(#pc650da2dbb)" style="fill: none; stroke: #303030; stroke-width: 1.12; stroke-linecap: square"/>
     </g>
     <g id="line2d_8"/>
     <g id="text_4">
      <!-- 1300 -->
      <g style="fill: #bbbbbb" transform="translate(606.45558 712.961047)scale(0.189 -0.189)">
       <defs>
        <path id="DejaVuSans-33" d="M 2597 2516 
Q 3050 2419 3304 2112 
Q 3559 1806 3559 1356 
Q 3559 666 3084 287 
Q 2609 -91 1734 -91 
Q 1441 -91 1130 -33 
Q 819 25 488 141 
L 488 750 
Q 750 597 1062 519 
Q 1375 441 1716 441 
Q 2309 441 2620 675 
Q 2931 909 2931 1356 
Q 2931 1769 2642 2001 
Q 2353 2234 1838 2234 
L 1294 2234 
L 1294 2753 
L 1863 2753 
Q 2328 2753 2575 2939 
Q 2822 3125 2822 3475 
Q 2822 3834 2567 4026 
Q 2313 4219 1838 4219 
Q 1578 4219 1281 4162 
Q 984 4106 628 3988 
L 628 4550 
Q 988 4650 1302 4700 
Q 1616 4750 1894 4750 
Q 2613 4750 3031 4423 
Q 3450 4097 3450 3541 
Q 3450 3153 3228 2886 
Q 3006 2619 2597 2516 
z
" transform="scale(0.015625)"/>
       </defs>
       <use xlink:href="#DejaVuSans-31"/>
       <use xlink:href="#DejaVuSans-33" x="63.623047"/>
       <use xlink:href="#DejaVuSans-30" x="127.246094"/>
       <use xlink:href="#DejaVuSans-30" x="190.869141"/>
      </g>
     </g>
    </g>
    <g id="xtick_5">
     <g id="line2d_9">
      <path d="M 782.992622 693 
L 782.992622 95.04 
" clip-path="url(#pc650da2dbb)" style="fill: none; stroke: #303030; stroke-width: 1.12; stroke-linecap: square"/>
     </g>
     <g id="line2d_10"/>
     <g id="text_5">
      <!-- 1400 -->
      <g style="fill: #bbbbbb" transform="translate(758.942372 712.961047)scale(0.189 -0.189)">
       <defs>
        <path id="DejaVuSans-34" d="M 2419 4116 
L 825 1625 
L 2419 1625 
L 2419 4116 
z
M 2253 4666 
L 3047 4666 
L 3047 1625 
L 3713 1625 
L 3713 1100 
L 3047 1100 
L 3047 0 
L 2419 0 
L 2419 1100 
L 313 1100 
L 313 1709 
L 2253 4666 
z
" transform="scale(0.015625)"/>
       </defs>
       <use xlink:href="#DejaVuSans-31"/>
       <use xlink:href="#DejaVuSans-34" x="63.623047"/>
       <use xlink:href="#DejaVuSans-30" x="127.246094"/>
       <use xlink:href="#DejaVuSans-30" x="190.869141"/>
      </g>
     </g>
    </g>
    <g id="xtick_6">
     <g id="line2d_11">
      <path d="M 935.479413 693 
L 935.479413 95.04 
" clip-path="url(#pc650da2dbb)" style="fill: none; stroke: #303030; stroke-width: 1.12; stroke-linecap: square"/>
     </g>
     <g id="line2d_12"/>
     <g id="text_6">
      <!-- 1500 -->
      <g style="fill: #bbbbbb" transform="translate(911.429163 712.961047)scale(0.189 -0.189)">
       <defs>
        <path id="DejaVuSans-35" d="M 691 4666 
L 3169 4666 
L 3169 4134 
L 1269 4134 
L 1269 2991 
Q 1406 3038 1543 3061 
Q 1681 3084 1819 3084 
Q 2600 3084 3056 2656 
Q 3513 2228 3513 1497 
Q 3513 744 3044 326 
Q 2575 -91 1722 -91 
Q 1428 -91 1123 -41 
Q 819 9 494 109 
L 494 744 
Q 775 591 1075 516 
Q 1375 441 1709 441 
Q 2250 441 2565 725 
Q 2881 1009 2881 1497 
Q 2881 1984 2565 2268 
Q 2250 2553 1709 2553 
Q 1456 2553 1204 2497 
Q 953 2441 691 2322 
L 691 4666 
z
" transform="scale(0.015625)"/>
       </defs>
       <use xlink:href="#DejaVuSans-31"/>
       <use xlink:href="#DejaVuSans-35" x="63.623047"/>
       <use xlink:href="#DejaVuSans-30" x="127.246094"/>
       <use xlink:href="#DejaVuSans-30" x="190.869141"/>
      </g>
     </g>
    </g>
   </g>
   <g id="matplotlib.axis_2">
    <g id="ytick_1">
     <g id="line2d_13">
      <path d="M 135 663.890319 
L 972 663.890319 
" clip-path="url(#pc650da2dbb)" style="fill: none; stroke: #303030; stroke-width: 1.12; stroke-linecap: square"/>
     </g>
     <g id="line2d_14"/>
     <g id="text_7">
      <!-- 0 -->
      <g style="fill: #bbbbbb" transform="translate(117.374875 671.070842)scale(0.189 -0.189)">
       <use xlink:href="#DejaVuSans-30"/>
      </g>
     </g>
    </g>
    <g id="ytick_2">
     <g id="line2d_15">
      <path d="M 135 590.648988 
L 972 590.648988 
" clip-path="url(#pc650da2dbb)" style="fill: none; stroke: #303030; stroke-width: 1.12; stroke-linecap: square"/>
     </g>
     <g id="line2d_16"/>
     <g id="text_8">
      <!-- 1000 -->
      <g style="fill: #bbbbbb" transform="translate(81.2995 597.829511)scale(0.189 -0.189)">
       <use xlink:href="#DejaVuSans-31"/>
       <use xlink:href="#DejaVuSans-30" x="63.623047"/>
       <use xlink:href="#DejaVuSans-30" x="127.246094"/>
       <use xlink:href="#DejaVuSans-30" x="190.869141"/>
      </g>
     </g>
    </g>
    <g id="ytick_3">
     <g id="line2d_17">
      <path d="M 135 517.407656 
L 972 517.407656 
" clip-path="url(#pc650da2dbb)" style="fill: none; stroke: #303030; stroke-width: 1.12; stroke-linecap: square"/>
     </g>
     <g id="line2d_18"/>
     <g id="text_9">
      <!-- 2000 -->
      <g style="fill: #bbbbbb" transform="translate(81.2995 524.58818)scale(0.189 -0.189)">
       <use xlink:href="#DejaVuSans-32"/>
       <use xlink:href="#DejaVuSans-30" x="63.623047"/>
       <use xlink:href="#DejaVuSans-30" x="127.246094"/>
       <use xlink:href="#DejaVuSans-30" x="190.869141"/>
      </g>
     </g>
    </g>
    <g id="ytick_4">
     <g id="line2d_19">
      <path d="M 135 444.166325 
L 972 444.166325 
" clip-path="url(#pc650da2dbb)" style="fill: none; stroke: #303030; stroke-width: 1.12; stroke-linecap: square"/>
     </g>
     <g id="line2d_20"/>
     <g id="text_10">
      <!-- 3000 -->
      <g style="fill: #bbbbbb" transform="translate(81.2995 451.346849)scale(0.189 -0.189)">
       <use xlink:href="#DejaVuSans-33"/>
       <use xlink:href="#DejaVuSans-30" x="63.623047"/>
       <use xlink:href="#DejaVuSans-30" x="127.246094"/>
       <use xlink:href="#DejaVuSans-30" x="190.869141"/>
      </g>
     </g>
    </g>
    <g id="ytick_5">
     <g id="line2d_21">
      <path d="M 135 370.924994 
L 972 370.924994 
" clip-path="url(#pc650da2dbb)" style="fill: none; stroke: #303030; stroke-width: 1.12; stroke-linecap: square"/>
     </g>
     <g id="line2d_22"/>
     <g id="text_11">
      <!-- 4000 -->
      <g style="fill: #bbbbbb" transform="translate(81.2995 378.105518)scale(0.189 -0.189)">
       <use xlink:href="#DejaVuSans-34"/>
       <use xlink:href="#DejaVuSans-30" x="63.623047"/>
       <use xlink:href="#DejaVuSans-30" x="127.246094"/>
       <use xlink:href="#DejaVuSans-30" x="190.869141"/>
      </g>
     </g>
    </g>
    <g id="ytick_6">
     <g id="line2d_23">
      <path d="M 135 297.683663 
L 972 297.683663 
" clip-path="url(#pc650da2dbb)" style="fill: none; stroke: #303030; stroke-width: 1.12; stroke-linecap: square"/>
     </g>
     <g id="line2d_24"/>
     <g id="text_12">
      <!-- 5000 -->
      <g style="fill: #bbbbbb" transform="translate(81.2995 304.864187)scale(0.189 -0.189)">
       <use xlink:href="#DejaVuSans-35"/>
       <use xlink:href="#DejaVuSans-30" x="63.623047"/>
       <use xlink:href="#DejaVuSans-30" x="127.246094"/>
       <use xlink:href="#DejaVuSans-30" x="190.869141"/>
      </g>
     </g>
    </g>
    <g id="ytick_7">
     <g id="line2d_25">
      <path d="M 135 224.442332 
L 972 224.442332 
" clip-path="url(#pc650da2dbb)" style="fill: none; stroke: #303030; stroke-width: 1.12; stroke-linecap: square"/>
     </g>
     <g id="line2d_26"/>
     <g id="text_13">
      <!-- 6000 -->
      <g style="fill: #bbbbbb" transform="translate(81.2995 231.622856)scale(0.189 -0.189)">
       <defs>
        <path id="DejaVuSans-36" d="M 2113 2584 
Q 1688 2584 1439 2293 
Q 1191 2003 1191 1497 
Q 1191 994 1439 701 
Q 1688 409 2113 409 
Q 2538 409 2786 701 
Q 3034 994 3034 1497 
Q 3034 2003 2786 2293 
Q 2538 2584 2113 2584 
z
M 3366 4563 
L 3366 3988 
Q 3128 4100 2886 4159 
Q 2644 4219 2406 4219 
Q 1781 4219 1451 3797 
Q 1122 3375 1075 2522 
Q 1259 2794 1537 2939 
Q 1816 3084 2150 3084 
Q 2853 3084 3261 2657 
Q 3669 2231 3669 1497 
Q 3669 778 3244 343 
Q 2819 -91 2113 -91 
Q 1303 -91 875 529 
Q 447 1150 447 2328 
Q 447 3434 972 4092 
Q 1497 4750 2381 4750 
Q 2619 4750 2861 4703 
Q 3103 4656 3366 4563 
z
" transform="scale(0.015625)"/>
       </defs>
       <use xlink:href="#DejaVuSans-36"/>
       <use xlink:href="#DejaVuSans-30" x="63.623047"/>
       <use xlink:href="#DejaVuSans-30" x="127.246094"/>
       <use xlink:href="#DejaVuSans-30" x="190.869141"/>
      </g>
     </g>
    </g>
    <g id="ytick_8">
     <g id="line2d_27">
      <path d="M 135 151.201001 
L 972 151.201001 
" clip-path="url(#pc650da2dbb)" style="fill: none; stroke: #303030; stroke-width: 1.12; stroke-linecap: square"/>
     </g>
     <g id="line2d_28"/>
     <g id="text_14">
      <!-- 7000 -->
      <g style="fill: #bbbbbb" transform="translate(81.2995 158.381524)scale(0.189 -0.189)">
       <defs>
        <path id="DejaVuSans-37" d="M 525 4666 
L 3525 4666 
L 3525 4397 
L 1831 0 
L 1172 0 
L 2766 4134 
L 525 4134 
L 525 4666 
z
" transform="scale(0.015625)"/>
       </defs>
       <use xlink:href="#DejaVuSans-37"/>
       <use xlink:href="#DejaVuSans-30" x="63.623047"/>
       <use xlink:href="#DejaVuSans-30" x="127.246094"/>
       <use xlink:href="#DejaVuSans-30" x="190.869141"/>
      </g>
     </g>
    </g>
   </g>
   <g id="line2d_29">
    <path d="M 173.045455 540.792929 
L 174.570322 523.023332 
L 176.09519 622.031208 
L 177.620058 536.618101 
L 179.144926 661.506555 
L 180.669794 535.616925 
L 182.194662 621.2125 
L 183.71953 604.944194 
L 185.244398 662.966507 
L 186.769266 507.972202 
L 188.294134 648.841175 
L 189.819002 319.16551 
L 191.34387 509.05591 
L 192.868737 551.715114 
L 194.393605 663.123759 
L 195.918473 545.48277 
L 197.443341 579.226165 
L 198.968209 528.122706 
L 200.493077 590.908958 
L 202.017945 660.477272 
L 203.542813 645.688569 
L 205.067681 624.001786 
L 206.592549 637.165673 
L 208.117417 514.683011 
L 209.642285 659.289618 
L 211.167152 530.828218 
L 212.69202 659.480476 
L 214.216888 478.472951 
L 215.741756 662.722412 
L 217.266624 533.869513 
L 218.791492 527.126912 
L 220.31636 353.872388 
L 221.841228 514.821376 
L 223.366096 626.579813 
L 224.890964 660.954609 
L 226.415832 539.361781 
L 227.9407 662.318986 
L 229.465567 647.069064 
L 230.990435 637.658219 
L 232.515303 514.477967 
L 234.040171 478.839211 
L 235.565039 650.560733 
L 237.089907 600.377939 
L 238.614775 663.389201 
L 240.139643 563.259716 
L 241.664511 664.128953 
L 243.189379 614.224806 
L 244.714247 511.996059 
L 247.763983 663.237854 
L 249.28885 640.309247 
L 250.813718 544.397525 
L 252.338586 662.549297 
L 253.863454 617.307978 
L 255.388322 587.829044 
L 256.91319 658.373024 
L 258.438058 300.828499 
L 259.962926 549.340492 
L 261.487794 304.533051 
L 263.012662 663.052529 
L 264.53753 634.249933 
L 266.062398 652.575719 
L 267.587265 447.24956 
L 269.112133 536.496581 
L 270.637001 662.471212 
L 272.161869 644.92574 
L 273.686737 663.23019 
L 275.211605 662.191482 
L 276.736473 662.196387 
L 278.261341 658.313752 
L 279.786209 627.068284 
L 281.311077 663.085025 
L 282.835945 664.940746 
L 284.360813 482.548055 
L 285.88568 627.318726 
L 287.410548 513.949659 
L 288.935416 662.036483 
L 290.460284 578.745009 
L 291.985152 658.396978 
L 293.51002 661.462127 
L 295.034888 661.958793 
L 296.559756 646.465923 
L 298.084624 663.725119 
L 299.609492 377.043721 
L 301.13436 627.182543 
L 302.659228 524.426808 
L 304.184095 500.607837 
L 305.708963 508.375781 
L 307.233831 663.197959 
L 308.758699 662.012349 
L 310.283567 571.585267 
L 311.808435 635.451799 
L 313.333303 665.061451 
L 314.858171 663.450395 
L 316.383039 661.224114 
L 317.907907 651.643986 
L 319.432775 524.472182 
L 320.957643 555.79627 
L 322.48251 479.702855 
L 324.007378 639.696169 
L 325.532246 656.309649 
L 327.057114 605.049184 
L 328.581982 648.132192 
L 330.10685 656.700812 
L 331.631718 653.011434 
L 333.156586 483.438449 
L 334.681454 449.385897 
L 336.206322 494.886841 
L 337.73119 593.657278 
L 339.256058 622.858083 
L 340.780925 594.07525 
L 342.305793 660.961478 
L 343.830661 518.931616 
L 345.355529 556.21385 
L 346.880397 613.575285 
L 348.405265 523.041204 
L 349.930133 635.368231 
L 351.455001 660.234716 
L 352.979869 657.1814 
L 354.504737 489.449549 
L 356.029605 496.482272 
L 357.554473 658.39527 
L 359.07934 634.865001 
L 360.604208 616.209318 
L 362.129076 508.929114 
L 363.653944 647.387376 
L 365.178812 664.000297 
L 366.70368 173.453599 
L 368.228548 660.159274 
L 369.753416 663.708915 
L 371.278284 540.068329 
L 372.803152 662.492924 
L 374.32802 662.105558 
L 375.852888 658.460931 
L 377.377756 643.292895 
L 378.902623 470.148902 
L 380.427491 554.085247 
L 381.952359 658.668135 
L 383.477227 603.147305 
L 385.002095 525.653019 
L 386.526963 663.823186 
L 388.051831 663.558776 
L 389.576699 641.826437 
L 391.101567 615.927891 
L 392.626435 571.14994 
L 394.151303 608.401512 
L 395.676171 467.675326 
L 397.201038 510.849625 
L 398.725906 659.262996 
L 400.250774 645.632481 
L 401.775642 509.570816 
L 403.30051 663.851129 
L 404.825378 426.321833 
L 406.350246 590.40254 
L 407.875114 524.567792 
L 409.399982 563.915437 
L 410.92485 620.062852 
L 412.449718 449.395177 
L 413.974586 664.125224 
L 415.499453 500.877056 
L 417.024321 662.573542 
L 418.549189 656.608497 
L 420.074057 663.095795 
L 421.598925 593.560769 
L 423.123793 535.827234 
L 424.648661 498.726271 
L 426.173529 517.034986 
L 427.698397 490.793373 
L 429.223265 660.411664 
L 430.748133 477.468458 
L 432.273001 658.436836 
L 433.797868 616.346154 
L 435.322736 639.319428 
L 436.847604 580.444956 
L 438.372472 535.05238 
L 439.89734 664.151096 
L 441.422208 444.287166 
L 442.947076 589.023418 
L 444.471944 598.852647 
L 445.996812 654.06533 
L 447.52168 603.730142 
L 449.046548 533.734823 
L 450.571416 663.822947 
L 452.096283 662.791809 
L 453.621151 542.239972 
L 455.146019 611.07525 
L 456.670887 661.754386 
L 458.195755 651.602252 
L 459.720623 663.148499 
L 461.245491 511.620769 
L 462.770359 544.927201 
L 464.295227 595.051621 
L 465.820095 226.235493 
L 467.344963 576.262859 
L 468.869831 662.300012 
L 470.394698 651.662099 
L 471.919566 571.772313 
L 473.444434 528.135741 
L 474.969302 652.623567 
L 476.49417 643.365681 
L 478.019038 556.88342 
L 479.543906 455.876194 
L 481.068774 503.395406 
L 482.593642 650.252616 
L 484.11851 607.746346 
L 485.643378 645.218907 
L 487.168246 662.055763 
L 488.693113 534.141495 
L 490.217981 506.45325 
L 491.742849 510.650321 
L 493.267717 630.199494 
L 494.792585 602.563395 
L 496.317453 659.616072 
L 497.842321 576.048884 
L 499.367189 556.096612 
L 500.892057 497.145539 
L 502.416925 662.477568 
L 503.941793 662.820851 
L 505.466661 631.686192 
L 506.991529 663.768384 
L 508.516396 579.114649 
L 510.041264 581.782119 
L 511.566132 657.71628 
L 513.091 664.567991 
L 514.615868 663.159133 
L 516.140736 559.817481 
L 517.665604 664.402871 
L 519.190472 530.90289 
L 520.71534 647.772981 
L 522.240208 663.719024 
L 523.765076 526.747687 
L 525.289944 465.868987 
L 526.814811 662.795499 
L 528.339679 662.258985 
L 529.864547 466.342767 
L 531.389415 476.910368 
L 532.914283 663.649904 
L 534.439151 635.658812 
L 537.488887 480.374204 
L 539.013755 663.101906 
L 540.538623 660.657256 
L 542.063491 486.219599 
L 543.588359 585.219509 
L 545.113226 505.752397 
L 546.638094 529.231187 
L 548.162962 531.589 
L 549.68783 589.397609 
L 551.212698 509.112807 
L 552.737566 663.864241 
L 554.262434 545.629101 
L 555.787302 661.833675 
L 557.31217 649.145683 
L 558.837038 642.450414 
L 560.361906 593.638127 
L 561.886774 662.51677 
L 563.411641 532.730338 
L 564.936509 569.86288 
L 566.461377 613.513783 
L 567.986245 383.467662 
L 569.511113 625.40182 
L 571.035981 652.486748 
L 572.560849 636.845515 
L 574.085717 660.37821 
L 575.610585 662.72513 
L 577.135453 631.698045 
L 578.660321 587.317723 
L 580.185189 657.374213 
L 581.710056 598.350145 
L 583.234924 658.340025 
L 584.759792 523.849416 
L 586.28466 663.380885 
L 587.809528 663.456186 
L 589.334396 663.64863 
L 590.859264 664.664715 
L 592.384132 605.161169 
L 593.909 663.093705 
L 595.433868 589.244072 
L 596.958736 568.682471 
L 598.483604 657.686198 
L 600.008471 392.931243 
L 601.533339 664.647509 
L 603.058207 648.114991 
L 604.583075 659.179761 
L 606.107943 578.60128 
L 607.632811 638.279655 
L 609.157679 661.995181 
L 610.682547 664.087717 
L 612.207415 662.327655 
L 613.732283 576.640743 
L 615.257151 651.161193 
L 616.782019 590.897219 
L 618.306887 665.550129 
L 619.831754 665.82 
L 621.356622 549.062377 
L 622.88149 642.245798 
L 624.406358 621.671729 
L 625.931226 602.821908 
L 627.456094 600.339856 
L 628.980962 609.601139 
L 630.50583 559.854253 
L 632.030698 496.809194 
L 633.555566 546.34695 
L 635.080434 662.691536 
L 636.605302 642.045548 
L 638.130169 607.858362 
L 639.655037 663.377543 
L 641.179905 660.368037 
L 642.704773 573.452501 
L 644.229641 663.62164 
L 645.754509 648.997003 
L 647.279377 625.692582 
L 648.804245 605.133663 
L 650.329113 662.323216 
L 651.853981 663.270418 
L 653.378849 571.494448 
L 654.903717 648.579118 
L 656.428584 664.012105 
L 657.953452 661.315541 
L 659.47832 565.073387 
L 661.003188 584.822547 
L 662.528056 662.762718 
L 664.052924 654.746425 
L 665.577792 568.019526 
L 667.10266 495.968456 
L 668.627528 527.898494 
L 670.152396 633.790713 
L 671.677264 660.977115 
L 673.202132 663.61921 
L 674.726999 519.087334 
L 676.251867 663.910983 
L 677.776735 570.440943 
L 679.301603 658.340345 
L 680.826471 659.696634 
L 682.351339 662.659665 
L 683.876207 535.146945 
L 685.401075 663.29218 
L 686.925943 635.80626 
L 688.450811 659.845146 
L 689.975679 573.449327 
L 691.500547 663.14901 
L 693.025414 663.026755 
L 694.550282 663.495289 
L 696.07515 655.436341 
L 697.600018 597.981163 
L 699.124886 649.42517 
L 700.649754 637.891568 
L 702.174622 637.235217 
L 703.69949 664.096212 
L 705.224358 663.112872 
L 706.749226 629.356305 
L 708.274094 631.068947 
L 709.798962 662.225629 
L 711.323829 537.782604 
L 712.848697 632.227314 
L 714.373565 664.632581 
L 715.898433 454.624994 
L 717.423301 520.400287 
L 718.948169 626.691532 
L 720.473037 641.86525 
L 721.997905 561.220635 
L 723.522773 605.923855 
L 725.047641 664.306852 
L 726.572509 522.668507 
L 728.097377 201.740345 
L 729.622244 536.231903 
L 731.147112 662.971266 
L 732.67198 502.651549 
L 734.196848 524.677583 
L 735.721716 664.322323 
L 737.246584 539.277015 
L 738.771452 656.136465 
L 740.29632 595.897298 
L 741.821188 663.431321 
L 743.346056 663.109359 
L 744.870924 658.608389 
L 746.395792 544.640146 
L 747.92066 662.642252 
L 749.445527 545.403851 
L 750.970395 626.065896 
L 752.495263 656.617384 
L 754.020131 641.801361 
L 755.544999 262.571776 
L 757.069867 641.498161 
L 758.594735 558.603616 
L 760.119603 662.933868 
L 761.644471 537.562514 
L 763.169339 661.998237 
L 764.694207 428.561702 
L 766.219075 525.974237 
L 767.743942 653.164781 
L 769.26881 526.893133 
L 770.793678 616.026237 
L 772.318546 612.664275 
L 773.843414 629.817983 
L 775.368282 555.803387 
L 776.89315 664.704398 
L 778.418018 664.001427 
L 779.942886 501.51663 
L 781.467754 655.704601 
L 782.992622 596.944506 
L 784.51749 663.549135 
L 786.042357 635.363372 
L 787.567225 637.30351 
L 789.092093 603.686508 
L 790.616961 661.374282 
L 792.141829 568.229416 
L 793.666697 457.202835 
L 795.191565 527.219456 
L 796.716433 585.37436 
L 798.241301 663.024029 
L 799.766169 458.24749 
L 801.291037 662.769484 
L 802.815905 613.361583 
L 804.340772 605.128724 
L 805.86564 662.895389 
L 807.390508 659.830402 
L 808.915376 662.918626 
L 810.440244 616.829505 
L 811.965112 448.951885 
L 813.48998 663.625937 
L 815.014848 663.1611 
L 816.539716 631.987516 
L 818.064584 502.181846 
L 819.589452 660.346907 
L 821.11432 661.45105 
L 822.639187 511.022303 
L 824.164055 638.376374 
L 825.688923 650.05981 
L 827.213791 555.75298 
L 828.738659 657.85789 
L 830.263527 439.932115 
L 831.788395 663.167835 
L 833.313263 494.927378 
L 834.838131 563.680228 
L 836.362999 591.889338 
L 837.887867 480.376475 
L 839.412735 661.547817 
L 840.937602 659.679199 
L 842.46247 508.197309 
L 843.987338 497.223554 
L 845.512206 662.330582 
L 847.037074 654.199577 
L 848.561942 567.857666 
L 850.08681 516.564693 
L 851.611678 564.199292 
L 853.136546 599.237794 
L 854.661414 662.613536 
L 856.186282 584.174944 
L 857.71115 435.996806 
L 859.236017 656.869358 
L 860.760885 663.964356 
L 862.285753 591.827326 
L 863.810621 543.149097 
L 865.335489 189.934114 
L 866.860357 663.621811 
L 868.385225 122.22 
L 869.910093 660.157695 
L 871.434961 554.625813 
L 872.959829 658.892709 
L 874.484697 664.922824 
L 876.009565 591.295522 
L 877.534433 539.674121 
L 879.0593 517.80528 
L 880.584168 639.026378 
L 882.109036 534.032285 
L 883.633904 662.374661 
L 885.158772 655.325802 
L 886.68364 546.437884 
L 888.208508 529.407219 
L 889.733376 518.800529 
L 891.258244 529.106493 
L 892.783112 428.702588 
L 894.30798 555.293174 
L 895.832848 654.500562 
L 897.357715 660.730053 
L 898.882583 662.646139 
L 900.407451 626.351897 
L 901.932319 663.321118 
L 903.457187 593.289797 
L 904.982055 622.277647 
L 906.506923 522.142245 
L 908.031791 566.29764 
L 909.556659 658.177878 
L 911.081527 529.139922 
L 912.606395 593.307356 
L 914.131263 638.71746 
L 915.65613 627.677 
L 917.180998 646.238625 
L 918.705866 662.480729 
L 920.230734 660.069662 
L 921.755602 664.151832 
L 923.28047 663.679278 
L 924.805338 664.20797 
L 926.330206 563.745914 
L 927.855074 662.382879 
L 929.379942 648.30525 
L 930.90481 557.007998 
L 932.429678 660.419873 
L 933.954545 664.78649 
L 933.954545 664.78649 
" clip-path="url(#pc650da2dbb)" style="fill: none; stroke-dasharray: 4.44,1.92; stroke-dashoffset: 0; stroke: #3572c6; stroke-width: 1.2"/>
   </g>
   <g id="line2d_30">
    <path d="M 173.045455 517.407656 
L 174.570322 499.097324 
L 176.09519 659.920638 
L 177.620058 532.348888 
L 179.144926 662.780712 
L 180.669794 528.247373 
L 182.194662 617.740956 
L 183.71953 606.275026 
L 185.244398 663.264105 
L 186.769266 501.261605 
L 188.294134 646.587054 
L 189.819002 316.067237 
L 191.34387 500.961316 
L 192.868737 548.608463 
L 194.393605 663.322698 
L 195.918473 568.310382 
L 197.443341 579.662788 
L 198.968209 512.64697 
L 200.493077 608.7103 
L 202.017945 662.498733 
L 203.542813 649.315294 
L 205.067681 648.996694 
L 206.592549 637.882322 
L 208.117417 513.159659 
L 209.642285 659.202873 
L 211.167152 519.377848 
L 212.69202 663.231147 
L 214.216888 484.449057 
L 215.741756 663.87567 
L 217.266624 541.943502 
L 218.791492 534.839093 
L 220.31636 388.649396 
L 221.841228 494.702844 
L 223.366096 625.804826 
L 224.890964 661.693079 
L 226.415832 531.202661 
L 227.9407 663.604677 
L 230.990435 636.058613 
L 232.515303 499.097324 
L 234.040171 459.935184 
L 235.565039 642.243843 
L 237.089907 605.297254 
L 238.614775 662.663526 
L 240.139643 552.874771 
L 241.664511 663.864684 
L 243.189379 623.534345 
L 244.714247 502.466425 
L 246.239115 577.099341 
L 247.763983 663.864684 
L 249.28885 635.846213 
L 250.813718 598.046362 
L 252.338586 663.699891 
L 253.863454 613.771276 
L 255.388322 580.948173 
L 256.91319 661.839561 
L 258.438058 296.95125 
L 259.962926 546.337982 
L 261.487794 276.736643 
L 263.012662 662.571975 
L 264.53753 631.338209 
L 266.062398 647.887088 
L 267.587265 436.622468 
L 270.637001 663.696229 
L 272.161869 644.049242 
L 273.686737 663.692567 
L 275.211605 663.084664 
L 276.736473 663.465519 
L 278.261341 663.560733 
L 279.786209 622.490656 
L 281.311077 663.674257 
L 282.835945 663.655946 
L 284.360813 485.188795 
L 285.88568 615.031027 
L 287.410548 527.478339 
L 288.935416 662.575637 
L 290.460284 573.803481 
L 291.985152 659.023432 
L 293.51002 661.879844 
L 295.034888 663.524112 
L 296.559756 645.660551 
L 298.084624 663.835388 
L 299.609492 385.573261 
L 301.13436 627.320922 
L 302.659228 510.083523 
L 304.184095 459.547005 
L 305.708963 514.478003 
L 307.233831 663.157905 
L 308.758699 662.205768 
L 310.283567 566.479348 
L 311.808435 630.84383 
L 313.333303 663.809753 
L 314.858171 663.780457 
L 316.383039 660.740941 
L 317.907907 653.848932 
L 319.432775 501.441046 
L 320.957643 572.338655 
L 322.48251 440.797224 
L 324.007378 635.216337 
L 325.532246 657.210709 
L 327.057114 616.942625 
L 328.581982 648.223998 
L 330.10685 654.58867 
L 331.631718 650.633638 
L 334.681454 425.489786 
L 336.206322 498.731117 
L 337.73119 589.748119 
L 339.256058 612.621387 
L 340.780925 595.409674 
L 342.305793 661.898154 
L 343.830661 508.765179 
L 345.355529 562.451075 
L 346.880397 609.325527 
L 348.405265 507.886283 
L 349.930133 637.230474 
L 351.455001 662.29732 
L 352.979869 655.537145 
L 354.504737 469.837412 
L 356.029605 519.604896 
L 357.554473 658.653563 
L 359.07934 631.151444 
L 360.604208 612.66167 
L 362.129076 484.961747 
L 363.653944 645.459138 
L 365.178812 663.864684 
L 366.70368 188.587039 
L 368.228548 659.642321 
L 369.753416 663.864684 
L 371.278284 593.765406 
L 372.803152 661.11081 
L 374.32802 663.377629 
L 375.852888 660.250224 
L 377.377756 643.287532 
L 378.902623 501.082164 
L 380.427491 574.535895 
L 381.952359 654.167532 
L 383.477227 592.113814 
L 385.002095 544.506949 
L 386.526963 663.85736 
L 388.051831 663.864684 
L 389.576699 650.878996 
L 391.101567 545.169783 
L 392.626435 567.189789 
L 394.151303 604.605123 
L 395.676171 436.842192 
L 397.201038 494.318327 
L 398.725906 650.399265 
L 400.250774 623.245042 
L 401.775642 502.75939 
L 403.30051 663.601015 
L 404.825378 415.012614 
L 406.350246 586.792831 
L 407.875114 529.126269 
L 409.399982 583.163723 
L 410.92485 618.202376 
L 412.449718 443.668284 
L 413.974586 663.641298 
L 415.499453 449.659425 
L 417.024321 663.685243 
L 418.549189 653.991753 
L 420.074057 663.582705 
L 423.123793 517.407656 
L 424.648661 469.800791 
L 426.173529 505.615802 
L 427.698397 453.695023 
L 429.223265 661.986044 
L 430.748133 484.837237 
L 432.273001 661.473355 
L 433.797868 630.93172 
L 435.322736 637.889646 
L 436.847604 577.092017 
L 438.372472 584.394178 
L 439.89734 663.842712 
L 441.422208 525.541106 
L 442.947076 595.409674 
L 444.471944 591.747607 
L 445.996812 659.667956 
L 447.52168 604.363427 
L 449.046548 518.872483 
L 450.571416 663.498477 
L 452.096283 663.882994 
L 453.621151 555.324694 
L 455.146019 603.46622 
L 456.670887 660.484597 
L 458.195755 659.034418 
L 459.720623 663.861022 
L 461.245491 504.572113 
L 462.770359 509.523227 
L 464.295227 590.648988 
L 465.820095 233.150726 
L 467.344963 583.398096 
L 468.869831 663.264105 
L 470.394698 652.988346 
L 471.919566 561.352455 
L 473.444434 526.196616 
L 474.969302 650.040383 
L 476.49417 641.478471 
L 478.019038 555.310045 
L 479.543906 436.622468 
L 481.068774 509.058145 
L 482.593642 609.255948 
L 484.11851 594.527116 
L 485.643378 629.382665 
L 487.168246 651.849444 
L 488.693113 511.416516 
L 490.217981 608.226907 
L 491.742849 499.097324 
L 493.267717 626.072157 
L 494.792585 596.508294 
L 496.317453 662.502395 
L 497.842321 576.484114 
L 499.367189 553.295909 
L 500.892057 492.432363 
L 502.416925 662.249713 
L 503.941793 663.718201 
L 505.466661 628.741804 
L 506.991529 663.436222 
L 508.516396 568.460526 
L 510.041264 567.742761 
L 511.566132 652.830878 
L 513.091 663.886657 
L 514.615868 662.967478 
L 516.140736 529.565717 
L 517.665604 663.795105 
L 519.190472 592.370159 
L 520.71534 639.940403 
L 522.240208 663.850036 
L 523.765076 516.52876 
L 525.289944 458.594868 
L 526.814811 663.688905 
L 528.339679 662.176471 
L 529.864547 446.656531 
L 531.389415 491.040777 
L 532.914283 663.75116 
L 534.439151 632.246402 
L 535.964019 589.279375 
L 537.488887 527.478339 
L 539.013755 663.787781 
L 540.538623 654.533739 
L 542.063491 477.124924 
L 543.588359 591.352104 
L 545.113226 479.541888 
L 546.638094 505.322837 
L 548.162962 519.23869 
L 549.68783 612.749559 
L 551.212698 563.978157 
L 552.737566 663.802429 
L 554.262434 533.154543 
L 555.787302 662.718457 
L 557.31217 636.644543 
L 558.837038 640.30661 
L 560.361906 576.055652 
L 561.886774 661.887168 
L 563.411641 525.541106 
L 564.936509 562.355861 
L 566.461377 608.538183 
L 567.986245 389.96774 
L 569.511113 610.424147 
L 571.035981 651.439292 
L 572.560849 645.579986 
L 574.085717 658.177495 
L 575.610585 662.073934 
L 577.135453 633.279104 
L 578.660321 582.409338 
L 580.185189 657.792978 
L 581.710056 551.831082 
L 583.234924 656.643089 
L 584.759792 514.111797 
L 586.28466 663.348333 
L 587.809528 663.633974 
L 589.334396 663.791443 
L 590.859264 663.747498 
L 592.384132 608.95932 
L 593.909 662.788037 
L 595.433868 582.958648 
L 596.958736 565.655383 
L 598.483604 656.207303 
L 600.008471 387.089356 
L 601.533339 663.886657 
L 603.058207 648.429074 
L 604.583075 660.68601 
L 606.107943 545.169783 
L 607.632811 638.255853 
L 609.157679 663.117623 
L 610.682547 663.73285 
L 612.207415 663.743836 
L 613.732283 573.583757 
L 615.257151 648.143432 
L 616.782019 617.382073 
L 618.306887 663.07734 
L 619.831754 662.619582 
L 621.356622 609.724692 
L 622.88149 639.555886 
L 625.931226 601.635187 
L 627.456094 586.990583 
L 628.980962 605.641488 
L 630.50583 554.610591 
L 632.030698 521.948619 
L 633.555566 542.990853 
L 635.080434 663.157905 
L 636.605302 643.748953 
L 638.130169 649.535018 
L 639.655037 663.743836 
L 641.179905 663.172554 
L 642.704773 568.13094 
L 644.229641 662.425492 
L 645.754509 648.985708 
L 647.279377 622.311215 
L 648.804245 580.688166 
L 650.329113 663.033395 
L 651.853981 663.868346 
L 653.378849 583.398096 
L 654.903717 645.931544 
L 656.428584 663.872008 
L 657.953452 662.370561 
L 659.47832 572.660917 
L 661.003188 580.420836 
L 662.528056 661.583217 
L 664.052924 656.199979 
L 667.10266 481.307004 
L 668.627528 475.70038 
L 670.152396 618.993383 
L 671.677264 661.044893 
L 673.202132 662.615919 
L 674.726999 521.681288 
L 676.251867 663.802429 
L 677.776735 598.745817 
L 679.301603 655.683627 
L 680.826471 659.770494 
L 682.351339 662.696485 
L 683.876207 576.000721 
L 685.401075 663.835388 
L 686.925943 643.899097 
L 688.450811 662.901561 
L 689.975679 566.9957 
L 691.500547 663.773132 
L 693.025414 658.763425 
L 694.550282 663.882994 
L 696.07515 658.159184 
L 697.600018 568.74983 
L 699.124886 649.754742 
L 700.649754 631.810616 
L 702.174622 632.092595 
L 703.69949 663.227485 
L 705.224358 663.102974 
L 706.749226 588.0123 
L 708.274094 630.93172 
L 709.798962 661.912803 
L 711.323829 551.336703 
L 712.848697 655.321083 
L 714.373565 663.886657 
L 715.898433 427.027854 
L 717.423301 588.817954 
L 718.948169 634.740269 
L 720.473037 642.650333 
L 721.997905 558.569285 
L 723.522773 600.206981 
L 725.047641 663.886657 
L 726.572509 517.407656 
L 728.097377 199.54028 
L 729.622244 510.607199 
L 731.147112 662.238727 
L 732.67198 510.962419 
L 734.196848 570.035215 
L 735.721716 663.231147 
L 737.246584 479.908095 
L 738.771452 653.057926 
L 740.29632 543.115364 
L 741.821188 663.817077 
L 743.346056 663.75116 
L 744.870924 653.273988 
L 746.395792 536.084196 
L 747.92066 663.157905 
L 749.445527 511.182143 
L 750.970395 628.218128 
L 752.495263 653.49005 
L 754.020131 639.500955 
L 755.544999 259.158723 
L 757.069867 629.554783 
L 758.594735 517.407656 
L 760.119603 663.670595 
L 761.644471 506.421457 
L 763.169339 663.384953 
L 764.694207 412.672553 
L 766.219075 512.866694 
L 767.743942 651.951982 
L 769.26881 519.385172 
L 770.793678 610.277664 
L 772.318546 610.105547 
L 773.843414 627.416136 
L 775.368282 592.113814 
L 776.89315 663.886657 
L 778.418018 663.820739 
L 779.942886 517.001167 
L 781.467754 650.926603 
L 782.992622 609.351161 
L 784.51749 663.692567 
L 786.042357 634.667028 
L 787.567225 641.185506 
L 789.092093 601.635187 
L 790.616961 662.571975 
L 792.141829 563.183488 
L 793.666697 474.762891 
L 795.191565 530.825468 
L 796.716433 581.493821 
L 798.241301 663.787781 
L 799.766169 422.193926 
L 801.291037 663.450871 
L 802.815905 609.105803 
L 804.340772 565.014522 
L 805.86564 663.831726 
L 807.390508 660.960665 
L 808.915376 663.586367 
L 810.440244 613.207317 
L 811.965112 424.076228 
L 813.48998 663.721864 
L 815.014848 662.938181 
L 816.539716 588.0123 
L 818.064584 488.037883 
L 819.589452 660.839817 
L 821.11432 663.059029 
L 822.639187 576.000721 
L 824.164055 637.263433 
L 825.688923 625.218896 
L 827.213791 550.772745 
L 828.738659 659.382315 
L 830.263527 530.821806 
L 831.788395 663.886657 
L 833.313263 466.138725 
L 834.838131 565.45397 
L 836.362999 554.101563 
L 837.887867 480.420784 
L 839.412735 662.571975 
L 840.937602 657.302261 
L 842.46247 500.415668 
L 843.987338 448.560805 
L 845.512206 663.743836 
L 847.037074 649.974466 
L 848.561942 546.411224 
L 850.08681 495.958933 
L 851.611678 565.014522 
L 853.136546 604.725971 
L 854.661414 662.352251 
L 856.186282 606.769404 
L 857.71115 530.821806 
L 859.236017 646.140282 
L 860.760885 663.846374 
L 862.285753 582.456945 
L 863.810621 527.295236 
L 865.335489 202.469933 
L 866.860357 663.41425 
L 868.385225 127.031362 
L 869.910093 663.304388 
L 871.434961 543.064095 
L 872.959829 661.370817 
L 874.484697 663.546084 
L 876.009565 538.281436 
L 877.534433 545.169783 
L 879.0593 538.50116 
L 880.584168 632.458801 
L 882.109036 526.18563 
L 883.633904 662.088582 
L 885.158772 651.43563 
L 886.68364 476.670828 
L 888.208508 533.886956 
L 889.733376 534.253163 
L 891.258244 528.338925 
L 892.783112 427.687026 
L 894.30798 547.601395 
L 895.832848 652.168044 
L 897.357715 662.326616 
L 898.882583 661.242644 
L 900.407451 621.410347 
L 901.932319 663.62665 
L 903.457187 593.798365 
L 904.982055 623.904214 
L 906.506923 563.549695 
L 908.031791 568.676588 
L 909.556659 652.171706 
L 911.081527 532.824957 
L 912.606395 589.623609 
L 914.131263 632.272036 
L 915.65613 622.776297 
L 917.180998 645.579986 
L 918.705866 663.754822 
L 920.230734 654.368946 
L 921.755602 663.798767 
L 923.28047 663.853698 
L 924.805338 662.418168 
L 926.330206 641.397906 
L 927.855074 663.861022 
L 929.379942 646.132958 
L 930.90481 545.752052 
L 932.429678 659.276115 
L 933.954545 663.886657 
L 933.954545 663.886657 
" clip-path="url(#pc650da2dbb)" style="fill: none; stroke: #c44e52; stroke-width: 1.2; stroke-linecap: square"/>
   </g>
   <g id="patch_3">
    <path d="M 135 693 
L 135 95.04 
" style="fill: none; stroke: #888888; stroke-width: 1.12; stroke-linejoin: miter; stroke-linecap: square"/>
   </g>
   <g id="patch_4">
    <path d="M 972 693 
L 972 95.04 
" style="fill: none; stroke: #888888; stroke-width: 1.12; stroke-linejoin: miter; stroke-linecap: square"/>
   </g>
   <g id="patch_5">
    <path d="M 135 693 
L 972 693 
" style="fill: none; stroke: #888888; stroke-width: 1.12; stroke-linejoin: miter; stroke-linecap: square"/>
   </g>
   <g id="patch_6">
    <path d="M 135 95.04 
L 972 95.04 
" style="fill: none; stroke: #888888; stroke-width: 1.12; stroke-linejoin: miter; stroke-linecap: square"/>
   </g>
   <g id="legend_1">
    <g id="patch_7">
     <path d="M 148.23 165.643312 
L 465.451734 165.643312 
Q 469.231734 165.643312 469.231734 161.863313 
L 469.231734 108.27 
Q 469.231734 104.49 465.451734 104.49 
L 148.23 104.49 
Q 144.45 104.49 144.45 108.27 
L 144.45 161.863313 
Q 144.45 165.643312 148.23 165.643312 
z
" style="fill: #232323; opacity: 0.8; stroke: #cccccc; stroke-width: 0.16; stroke-linejoin: miter"/>
    </g>
    <g id="line2d_31">
     <path d="M 152.01 119.796047 
L 170.91 119.796047 
L 189.81 119.796047 
" style="fill: none; stroke-dasharray: 4.44,1.92; stroke-dashoffset: 0; stroke: #3572c6; stroke-width: 1.2"/>
    </g>
    <g id="text_15">
     <!-- Predicted (Neural Network) -->
     <g style="fill: #bbbbbb" transform="translate(204.93 126.411047)scale(0.189 -0.189)">
      <defs>
       <path id="DejaVuSans-50" d="M 1259 4147 
L 1259 2394 
L 2053 2394 
Q 2494 2394 2734 2622 
Q 2975 2850 2975 3272 
Q 2975 3691 2734 3919 
Q 2494 4147 2053 4147 
L 1259 4147 
z
M 628 4666 
L 2053 4666 
Q 2838 4666 3239 4311 
Q 3641 3956 3641 3272 
Q 3641 2581 3239 2228 
Q 2838 1875 2053 1875 
L 1259 1875 
L 1259 0 
L 628 0 
L 628 4666 
z
" transform="scale(0.015625)"/>
       <path id="DejaVuSans-72" d="M 2631 2963 
Q 2534 3019 2420 3045 
Q 2306 3072 2169 3072 
Q 1681 3072 1420 2755 
Q 1159 2438 1159 1844 
L 1159 0 
L 581 0 
L 581 3500 
L 1159 3500 
L 1159 2956 
Q 1341 3275 1631 3429 
Q 1922 3584 2338 3584 
Q 2397 3584 2469 3576 
Q 2541 3569 2628 3553 
L 2631 2963 
z
" transform="scale(0.015625)"/>
       <path id="DejaVuSans-65" d="M 3597 1894 
L 3597 1613 
L 953 1613 
Q 991 1019 1311 708 
Q 1631 397 2203 397 
Q 2534 397 2845 478 
Q 3156 559 3463 722 
L 3463 178 
Q 3153 47 2828 -22 
Q 2503 -91 2169 -91 
Q 1331 -91 842 396 
Q 353 884 353 1716 
Q 353 2575 817 3079 
Q 1281 3584 2069 3584 
Q 2775 3584 3186 3129 
Q 3597 2675 3597 1894 
z
M 3022 2063 
Q 3016 2534 2758 2815 
Q 2500 3097 2075 3097 
Q 1594 3097 1305 2825 
Q 1016 2553 972 2059 
L 3022 2063 
z
" transform="scale(0.015625)"/>
       <path id="DejaVuSans-64" d="M 2906 2969 
L 2906 4863 
L 3481 4863 
L 3481 0 
L 2906 0 
L 2906 525 
Q 2725 213 2448 61 
Q 2172 -91 1784 -91 
Q 1150 -91 751 415 
Q 353 922 353 1747 
Q 353 2572 751 3078 
Q 1150 3584 1784 3584 
Q 2172 3584 2448 3432 
Q 2725 3281 2906 2969 
z
M 947 1747 
Q 947 1113 1208 752 
Q 1469 391 1925 391 
Q 2381 391 2643 752 
Q 2906 1113 2906 1747 
Q 2906 2381 2643 2742 
Q 2381 3103 1925 3103 
Q 1469 3103 1208 2742 
Q 947 2381 947 1747 
z
" transform="scale(0.015625)"/>
       <path id="DejaVuSans-69" d="M 603 3500 
L 1178 3500 
L 1178 0 
L 603 0 
L 603 3500 
z
M 603 4863 
L 1178 4863 
L 1178 4134 
L 603 4134 
L 603 4863 
z
" transform="scale(0.015625)"/>
       <path id="DejaVuSans-63" d="M 3122 3366 
L 3122 2828 
Q 2878 2963 2633 3030 
Q 2388 3097 2138 3097 
Q 1578 3097 1268 2742 
Q 959 2388 959 1747 
Q 959 1106 1268 751 
Q 1578 397 2138 397 
Q 2388 397 2633 464 
Q 2878 531 3122 666 
L 3122 134 
Q 2881 22 2623 -34 
Q 2366 -91 2075 -91 
Q 1284 -91 818 406 
Q 353 903 353 1747 
Q 353 2603 823 3093 
Q 1294 3584 2113 3584 
Q 2378 3584 2631 3529 
Q 2884 3475 3122 3366 
z
" transform="scale(0.015625)"/>
       <path id="DejaVuSans-74" d="M 1172 4494 
L 1172 3500 
L 2356 3500 
L 2356 3053 
L 1172 3053 
L 1172 1153 
Q 1172 725 1289 603 
Q 1406 481 1766 481 
L 2356 481 
L 2356 0 
L 1766 0 
Q 1100 0 847 248 
Q 594 497 594 1153 
L 594 3053 
L 172 3053 
L 172 3500 
L 594 3500 
L 594 4494 
L 1172 4494 
z
" transform="scale(0.015625)"/>
       <path id="DejaVuSans-20" transform="scale(0.015625)"/>
       <path id="DejaVuSans-28" d="M 1984 4856 
Q 1566 4138 1362 3434 
Q 1159 2731 1159 2009 
Q 1159 1288 1364 580 
Q 1569 -128 1984 -844 
L 1484 -844 
Q 1016 -109 783 600 
Q 550 1309 550 2009 
Q 550 2706 781 3412 
Q 1013 4119 1484 4856 
L 1984 4856 
z
" transform="scale(0.015625)"/>
       <path id="DejaVuSans-4e" d="M 628 4666 
L 1478 4666 
L 3547 763 
L 3547 4666 
L 4159 4666 
L 4159 0 
L 3309 0 
L 1241 3903 
L 1241 0 
L 628 0 
L 628 4666 
z
" transform="scale(0.015625)"/>
       <path id="DejaVuSans-75" d="M 544 1381 
L 544 3500 
L 1119 3500 
L 1119 1403 
Q 1119 906 1312 657 
Q 1506 409 1894 409 
Q 2359 409 2629 706 
Q 2900 1003 2900 1516 
L 2900 3500 
L 3475 3500 
L 3475 0 
L 2900 0 
L 2900 538 
Q 2691 219 2414 64 
Q 2138 -91 1772 -91 
Q 1169 -91 856 284 
Q 544 659 544 1381 
z
M 1991 3584 
L 1991 3584 
z
" transform="scale(0.015625)"/>
       <path id="DejaVuSans-61" d="M 2194 1759 
Q 1497 1759 1228 1600 
Q 959 1441 959 1056 
Q 959 750 1161 570 
Q 1363 391 1709 391 
Q 2188 391 2477 730 
Q 2766 1069 2766 1631 
L 2766 1759 
L 2194 1759 
z
M 3341 1997 
L 3341 0 
L 2766 0 
L 2766 531 
Q 2569 213 2275 61 
Q 1981 -91 1556 -91 
Q 1019 -91 701 211 
Q 384 513 384 1019 
Q 384 1609 779 1909 
Q 1175 2209 1959 2209 
L 2766 2209 
L 2766 2266 
Q 2766 2663 2505 2880 
Q 2244 3097 1772 3097 
Q 1472 3097 1187 3025 
Q 903 2953 641 2809 
L 641 3341 
Q 956 3463 1253 3523 
Q 1550 3584 1831 3584 
Q 2591 3584 2966 3190 
Q 3341 2797 3341 1997 
z
" transform="scale(0.015625)"/>
       <path id="DejaVuSans-6c" d="M 603 4863 
L 1178 4863 
L 1178 0 
L 603 0 
L 603 4863 
z
" transform="scale(0.015625)"/>
       <path id="DejaVuSans-77" d="M 269 3500 
L 844 3500 
L 1563 769 
L 2278 3500 
L 2956 3500 
L 3675 769 
L 4391 3500 
L 4966 3500 
L 4050 0 
L 3372 0 
L 2619 2869 
L 1863 0 
L 1184 0 
L 269 3500 
z
" transform="scale(0.015625)"/>
       <path id="DejaVuSans-6f" d="M 1959 3097 
Q 1497 3097 1228 2736 
Q 959 2375 959 1747 
Q 959 1119 1226 758 
Q 1494 397 1959 397 
Q 2419 397 2687 759 
Q 2956 1122 2956 1747 
Q 2956 2369 2687 2733 
Q 2419 3097 1959 3097 
z
M 1959 3584 
Q 2709 3584 3137 3096 
Q 3566 2609 3566 1747 
Q 3566 888 3137 398 
Q 2709 -91 1959 -91 
Q 1206 -91 779 398 
Q 353 888 353 1747 
Q 353 2609 779 3096 
Q 1206 3584 1959 3584 
z
" transform="scale(0.015625)"/>
       <path id="DejaVuSans-6b" d="M 581 4863 
L 1159 4863 
L 1159 1991 
L 2875 3500 
L 3609 3500 
L 1753 1863 
L 3688 0 
L 2938 0 
L 1159 1709 
L 1159 0 
L 581 0 
L 581 4863 
z
" transform="scale(0.015625)"/>
       <path id="DejaVuSans-29" d="M 513 4856 
L 1013 4856 
Q 1481 4119 1714 3412 
Q 1947 2706 1947 2009 
Q 1947 1309 1714 600 
Q 1481 -109 1013 -844 
L 513 -844 
Q 928 -128 1133 580 
Q 1338 1288 1338 2009 
Q 1338 2731 1133 3434 
Q 928 4138 513 4856 
z
" transform="scale(0.015625)"/>
      </defs>
      <use xlink:href="#DejaVuSans-50"/>
      <use xlink:href="#DejaVuSans-72" x="58.552734"/>
      <use xlink:href="#DejaVuSans-65" x="97.416016"/>
      <use xlink:href="#DejaVuSans-64" x="158.939453"/>
      <use xlink:href="#DejaVuSans-69" x="222.416016"/>
      <use xlink:href="#DejaVuSans-63" x="250.199219"/>
      <use xlink:href="#DejaVuSans-74" x="305.179688"/>
      <use xlink:href="#DejaVuSans-65" x="344.388672"/>
      <use xlink:href="#DejaVuSans-64" x="405.912109"/>
      <use xlink:href="#DejaVuSans-20" x="469.388672"/>
      <use xlink:href="#DejaVuSans-28" x="501.175781"/>
      <use xlink:href="#DejaVuSans-4e" x="540.189453"/>
      <use xlink:href="#DejaVuSans-65" x="614.994141"/>
      <use xlink:href="#DejaVuSans-75" x="676.517578"/>
      <use xlink:href="#DejaVuSans-72" x="739.896484"/>
      <use xlink:href="#DejaVuSans-61" x="781.009766"/>
      <use xlink:href="#DejaVuSans-6c" x="842.289062"/>
      <use xlink:href="#DejaVuSans-20" x="870.072266"/>
      <use xlink:href="#DejaVuSans-4e" x="901.859375"/>
      <use xlink:href="#DejaVuSans-65" x="976.664062"/>
      <use xlink:href="#DejaVuSans-74" x="1038.1875"/>
      <use xlink:href="#DejaVuSans-77" x="1077.396484"/>
      <use xlink:href="#DejaVuSans-6f" x="1159.183594"/>
      <use xlink:href="#DejaVuSans-72" x="1220.365234"/>
      <use xlink:href="#DejaVuSans-6b" x="1261.478516"/>
      <use xlink:href="#DejaVuSans-29" x="1319.388672"/>
     </g>
    </g>
    <g id="line2d_32">
     <path d="M 152.01 147.537703 
L 170.91 147.537703 
L 189.81 147.537703 
" style="fill: none; stroke: #c44e52; stroke-width: 1.2; stroke-linecap: square"/>
    </g>
    <g id="text_16">
     <!-- LTP -->
     <g style="fill: #bbbbbb" transform="translate(204.93 154.152703)scale(0.189 -0.189)">
      <defs>
       <path id="DejaVuSans-4c" d="M 628 4666 
L 1259 4666 
L 1259 531 
L 3531 531 
L 3531 0 
L 628 0 
L 628 4666 
z
" transform="scale(0.015625)"/>
       <path id="DejaVuSans-54" d="M -19 4666 
L 3928 4666 
L 3928 4134 
L 2272 4134 
L 2272 0 
L 1638 0 
L 1638 4134 
L -19 4134 
L -19 4666 
z
" transform="scale(0.015625)"/>
      </defs>
      <use xlink:href="#DejaVuSans-4c"/>
      <use xlink:href="#DejaVuSans-54" x="41.962891"/>
      <use xlink:href="#DejaVuSans-50" x="103.046875"/>
     </g>
    </g>
   </g>
  </g>
 </g>
 <defs>
  <clipPath id="pc650da2dbb">
   <rect x="135" y="95.04" width="837" height="597.96"/>
  </clipPath>
 </defs>
</svg>
