<?xml version="1.0" encoding="utf-8" standalone="no"?>
<!DOCTYPE svg PUBLIC "-//W3C//DTD SVG 1.1//EN"
  "http://www.w3.org/Graphics/SVG/1.1/DTD/svg11.dtd">
<svg xmlns:xlink="http://www.w3.org/1999/xlink" width="1080pt" height="792pt" viewBox="0 0 1080 792" xmlns="http://www.w3.org/2000/svg" version="1.1">
 <metadata>
  <rdf:RDF xmlns:dc="http://purl.org/dc/elements/1.1/" xmlns:cc="http://creativecommons.org/ns#" xmlns:rdf="http://www.w3.org/1999/02/22-rdf-syntax-ns#">
   <cc:Work>
    <dc:type rdf:resource="http://purl.org/dc/dcmitype/StillImage"/>
    <dc:date>2022-04-29T18:18:15.050183</dc:date>
    <dc:format>image/svg+xml</dc:format>
    <dc:creator>
     <cc:Agent>
      <dc:title>Matplotlib v3.5.1, https://matplotlib.org/</dc:title>
     </cc:Agent>
    </dc:creator>
   </cc:Work>
  </rdf:RDF>
 </metadata>
 <defs>
  <style type="text/css">*{stroke-linejoin: round; stroke-linecap: butt}</style>
 </defs>
 <g id="figure_1">
  <g id="patch_1">
   <path d="M 0 792 
L 1080 792 
L 1080 0 
L 0 0 
z
" style="fill: #232323"/>
  </g>
  <g id="axes_1">
   <g id="patch_2">
    <path d="M 135 693 
L 972 693 
L 972 95.04 
L 135 95.04 
z
" style="fill: #232323"/>
   </g>
   <g id="matplotlib.axis_1">
    <g id="xtick_1">
     <g id="line2d_1">
      <path d="M 173.045455 693 
L 173.045455 95.04 
" clip-path="url(#p5b82b9f1f6)" style="fill: none; stroke: #303030; stroke-width: 1.12; stroke-linecap: square"/>
     </g>
     <g id="line2d_2"/>
     <g id="text_1">
      <!-- 3000 -->
      <g style="fill: #bbbbbb" transform="translate(150.33133 712.163211)scale(0.1785 -0.1785)">
       <defs>
        <path id="DejaVuSans-33" d="M 2597 2516 
Q 3050 2419 3304 2112 
Q 3559 1806 3559 1356 
Q 3559 666 3084 287 
Q 2609 -91 1734 -91 
Q 1441 -91 1130 -33 
Q 819 25 488 141 
L 488 750 
Q 750 597 1062 519 
Q 1375 441 1716 441 
Q 2309 441 2620 675 
Q 2931 909 2931 1356 
Q 2931 1769 2642 2001 
Q 2353 2234 1838 2234 
L 1294 2234 
L 1294 2753 
L 1863 2753 
Q 2328 2753 2575 2939 
Q 2822 3125 2822 3475 
Q 2822 3834 2567 4026 
Q 2313 4219 1838 4219 
Q 1578 4219 1281 4162 
Q 984 4106 628 3988 
L 628 4550 
Q 988 4650 1302 4700 
Q 1616 4750 1894 4750 
Q 2613 4750 3031 4423 
Q 3450 4097 3450 3541 
Q 3450 3153 3228 2886 
Q 3006 2619 2597 2516 
z
" transform="scale(0.015625)"/>
        <path id="DejaVuSans-30" d="M 2034 4250 
Q 1547 4250 1301 3770 
Q 1056 3291 1056 2328 
Q 1056 1369 1301 889 
Q 1547 409 2034 409 
Q 2525 409 2770 889 
Q 3016 1369 3016 2328 
Q 3016 3291 2770 3770 
Q 2525 4250 2034 4250 
z
M 2034 4750 
Q 2819 4750 3233 4129 
Q 3647 3509 3647 2328 
Q 3647 1150 3233 529 
Q 2819 -91 2034 -91 
Q 1250 -91 836 529 
Q 422 1150 422 2328 
Q 422 3509 836 4129 
Q 1250 4750 2034 4750 
z
" transform="scale(0.015625)"/>
       </defs>
       <use xlink:href="#DejaVuSans-33"/>
       <use xlink:href="#DejaVuSans-30" x="63.623047"/>
       <use xlink:href="#DejaVuSans-30" x="127.246094"/>
       <use xlink:href="#DejaVuSans-30" x="190.869141"/>
      </g>
     </g>
    </g>
    <g id="xtick_2">
     <g id="line2d_3">
      <path d="M 325.379607 693 
L 325.379607 95.04 
" clip-path="url(#p5b82b9f1f6)" style="fill: none; stroke: #303030; stroke-width: 1.12; stroke-linecap: square"/>
     </g>
     <g id="line2d_4"/>
     <g id="text_2">
      <!-- 3200 -->
      <g style="fill: #bbbbbb" transform="translate(302.665482 712.163211)scale(0.1785 -0.1785)">
       <defs>
        <path id="DejaVuSans-32" d="M 1228 531 
L 3431 531 
L 3431 0 
L 469 0 
L 469 531 
Q 828 903 1448 1529 
Q 2069 2156 2228 2338 
Q 2531 2678 2651 2914 
Q 2772 3150 2772 3378 
Q 2772 3750 2511 3984 
Q 2250 4219 1831 4219 
Q 1534 4219 1204 4116 
Q 875 4013 500 3803 
L 500 4441 
Q 881 4594 1212 4672 
Q 1544 4750 1819 4750 
Q 2544 4750 2975 4387 
Q 3406 4025 3406 3419 
Q 3406 3131 3298 2873 
Q 3191 2616 2906 2266 
Q 2828 2175 2409 1742 
Q 1991 1309 1228 531 
z
" transform="scale(0.015625)"/>
       </defs>
       <use xlink:href="#DejaVuSans-33"/>
       <use xlink:href="#DejaVuSans-32" x="63.623047"/>
       <use xlink:href="#DejaVuSans-30" x="127.246094"/>
       <use xlink:href="#DejaVuSans-30" x="190.869141"/>
      </g>
     </g>
    </g>
    <g id="xtick_3">
     <g id="line2d_5">
      <path d="M 477.713759 693 
L 477.713759 95.04 
" clip-path="url(#p5b82b9f1f6)" style="fill: none; stroke: #303030; stroke-width: 1.12; stroke-linecap: square"/>
     </g>
     <g id="line2d_6"/>
     <g id="text_3">
      <!-- 3400 -->
      <g style="fill: #bbbbbb" transform="translate(454.999634 712.163211)scale(0.1785 -0.1785)">
       <defs>
        <path id="DejaVuSans-34" d="M 2419 4116 
L 825 1625 
L 2419 1625 
L 2419 4116 
z
M 2253 4666 
L 3047 4666 
L 3047 1625 
L 3713 1625 
L 3713 1100 
L 3047 1100 
L 3047 0 
L 2419 0 
L 2419 1100 
L 313 1100 
L 313 1709 
L 2253 4666 
z
" transform="scale(0.015625)"/>
       </defs>
       <use xlink:href="#DejaVuSans-33"/>
       <use xlink:href="#DejaVuSans-34" x="63.623047"/>
       <use xlink:href="#DejaVuSans-30" x="127.246094"/>
       <use xlink:href="#DejaVuSans-30" x="190.869141"/>
      </g>
     </g>
    </g>
    <g id="xtick_4">
     <g id="line2d_7">
      <path d="M 630.047912 693 
L 630.047912 95.04 
" clip-path="url(#p5b82b9f1f6)" style="fill: none; stroke: #303030; stroke-width: 1.12; stroke-linecap: square"/>
     </g>
     <g id="line2d_8"/>
     <g id="text_4">
      <!-- 3600 -->
      <g style="fill: #bbbbbb" transform="translate(607.333787 712.163211)scale(0.1785 -0.1785)">
       <defs>
        <path id="DejaVuSans-36" d="M 2113 2584 
Q 1688 2584 1439 2293 
Q 1191 2003 1191 1497 
Q 1191 994 1439 701 
Q 1688 409 2113 409 
Q 2538 409 2786 701 
Q 3034 994 3034 1497 
Q 3034 2003 2786 2293 
Q 2538 2584 2113 2584 
z
M 3366 4563 
L 3366 3988 
Q 3128 4100 2886 4159 
Q 2644 4219 2406 4219 
Q 1781 4219 1451 3797 
Q 1122 3375 1075 2522 
Q 1259 2794 1537 2939 
Q 1816 3084 2150 3084 
Q 2853 3084 3261 2657 
Q 3669 2231 3669 1497 
Q 3669 778 3244 343 
Q 2819 -91 2113 -91 
Q 1303 -91 875 529 
Q 447 1150 447 2328 
Q 447 3434 972 4092 
Q 1497 4750 2381 4750 
Q 2619 4750 2861 4703 
Q 3103 4656 3366 4563 
z
" transform="scale(0.015625)"/>
       </defs>
       <use xlink:href="#DejaVuSans-33"/>
       <use xlink:href="#DejaVuSans-36" x="63.623047"/>
       <use xlink:href="#DejaVuSans-30" x="127.246094"/>
       <use xlink:href="#DejaVuSans-30" x="190.869141"/>
      </g>
     </g>
    </g>
    <g id="xtick_5">
     <g id="line2d_9">
      <path d="M 782.382064 693 
L 782.382064 95.04 
" clip-path="url(#p5b82b9f1f6)" style="fill: none; stroke: #303030; stroke-width: 1.12; stroke-linecap: square"/>
     </g>
     <g id="line2d_10"/>
     <g id="text_5">
      <!-- 3800 -->
      <g style="fill: #bbbbbb" transform="translate(759.667939 712.163211)scale(0.1785 -0.1785)">
       <defs>
        <path id="DejaVuSans-38" d="M 2034 2216 
Q 1584 2216 1326 1975 
Q 1069 1734 1069 1313 
Q 1069 891 1326 650 
Q 1584 409 2034 409 
Q 2484 409 2743 651 
Q 3003 894 3003 1313 
Q 3003 1734 2745 1975 
Q 2488 2216 2034 2216 
z
M 1403 2484 
Q 997 2584 770 2862 
Q 544 3141 544 3541 
Q 544 4100 942 4425 
Q 1341 4750 2034 4750 
Q 2731 4750 3128 4425 
Q 3525 4100 3525 3541 
Q 3525 3141 3298 2862 
Q 3072 2584 2669 2484 
Q 3125 2378 3379 2068 
Q 3634 1759 3634 1313 
Q 3634 634 3220 271 
Q 2806 -91 2034 -91 
Q 1263 -91 848 271 
Q 434 634 434 1313 
Q 434 1759 690 2068 
Q 947 2378 1403 2484 
z
M 1172 3481 
Q 1172 3119 1398 2916 
Q 1625 2713 2034 2713 
Q 2441 2713 2670 2916 
Q 2900 3119 2900 3481 
Q 2900 3844 2670 4047 
Q 2441 4250 2034 4250 
Q 1625 4250 1398 4047 
Q 1172 3844 1172 3481 
z
" transform="scale(0.015625)"/>
       </defs>
       <use xlink:href="#DejaVuSans-33"/>
       <use xlink:href="#DejaVuSans-38" x="63.623047"/>
       <use xlink:href="#DejaVuSans-30" x="127.246094"/>
       <use xlink:href="#DejaVuSans-30" x="190.869141"/>
      </g>
     </g>
    </g>
    <g id="xtick_6">
     <g id="line2d_11">
      <path d="M 934.716216 693 
L 934.716216 95.04 
" clip-path="url(#p5b82b9f1f6)" style="fill: none; stroke: #303030; stroke-width: 1.12; stroke-linecap: square"/>
     </g>
     <g id="line2d_12"/>
     <g id="text_6">
      <!-- 4000 -->
      <g style="fill: #bbbbbb" transform="translate(912.002091 712.163211)scale(0.1785 -0.1785)">
       <use xlink:href="#DejaVuSans-34"/>
       <use xlink:href="#DejaVuSans-30" x="63.623047"/>
       <use xlink:href="#DejaVuSans-30" x="127.246094"/>
       <use xlink:href="#DejaVuSans-30" x="190.869141"/>
      </g>
     </g>
    </g>
   </g>
   <g id="matplotlib.axis_2">
    <g id="ytick_1">
     <g id="line2d_13">
      <path d="M 135 659.655899 
L 972 659.655899 
" clip-path="url(#p5b82b9f1f6)" style="fill: none; stroke: #303030; stroke-width: 1.12; stroke-linecap: square"/>
     </g>
     <g id="line2d_14"/>
     <g id="text_7">
      <!-- 0 -->
      <g style="fill: #bbbbbb" transform="translate(118.042938 666.437505)scale(0.1785 -0.1785)">
       <use xlink:href="#DejaVuSans-30"/>
      </g>
     </g>
    </g>
    <g id="ytick_2">
     <g id="line2d_15">
      <path d="M 135 557.955474 
L 972 557.955474 
" clip-path="url(#p5b82b9f1f6)" style="fill: none; stroke: #303030; stroke-width: 1.12; stroke-linecap: square"/>
     </g>
     <g id="line2d_16"/>
     <g id="text_8">
      <!-- 1000 -->
      <g style="fill: #bbbbbb" transform="translate(83.97175 564.737079)scale(0.1785 -0.1785)">
       <defs>
        <path id="DejaVuSans-31" d="M 794 531 
L 1825 531 
L 1825 4091 
L 703 3866 
L 703 4441 
L 1819 4666 
L 2450 4666 
L 2450 531 
L 3481 531 
L 3481 0 
L 794 0 
L 794 531 
z
" transform="scale(0.015625)"/>
       </defs>
       <use xlink:href="#DejaVuSans-31"/>
       <use xlink:href="#DejaVuSans-30" x="63.623047"/>
       <use xlink:href="#DejaVuSans-30" x="127.246094"/>
       <use xlink:href="#DejaVuSans-30" x="190.869141"/>
      </g>
     </g>
    </g>
    <g id="ytick_3">
     <g id="line2d_17">
      <path d="M 135 456.255048 
L 972 456.255048 
" clip-path="url(#p5b82b9f1f6)" style="fill: none; stroke: #303030; stroke-width: 1.12; stroke-linecap: square"/>
     </g>
     <g id="line2d_18"/>
     <g id="text_9">
      <!-- 2000 -->
      <g style="fill: #bbbbbb" transform="translate(83.97175 463.036653)scale(0.1785 -0.1785)">
       <use xlink:href="#DejaVuSans-32"/>
       <use xlink:href="#DejaVuSans-30" x="63.623047"/>
       <use xlink:href="#DejaVuSans-30" x="127.246094"/>
       <use xlink:href="#DejaVuSans-30" x="190.869141"/>
      </g>
     </g>
    </g>
    <g id="ytick_4">
     <g id="line2d_19">
      <path d="M 135 354.554622 
L 972 354.554622 
" clip-path="url(#p5b82b9f1f6)" style="fill: none; stroke: #303030; stroke-width: 1.12; stroke-linecap: square"/>
     </g>
     <g id="line2d_20"/>
     <g id="text_10">
      <!-- 3000 -->
      <g style="fill: #bbbbbb" transform="translate(83.97175 361.336228)scale(0.1785 -0.1785)">
       <use xlink:href="#DejaVuSans-33"/>
       <use xlink:href="#DejaVuSans-30" x="63.623047"/>
       <use xlink:href="#DejaVuSans-30" x="127.246094"/>
       <use xlink:href="#DejaVuSans-30" x="190.869141"/>
      </g>
     </g>
    </g>
    <g id="ytick_5">
     <g id="line2d_21">
      <path d="M 135 252.854197 
L 972 252.854197 
" clip-path="url(#p5b82b9f1f6)" style="fill: none; stroke: #303030; stroke-width: 1.12; stroke-linecap: square"/>
     </g>
     <g id="line2d_22"/>
     <g id="text_11">
      <!-- 4000 -->
      <g style="fill: #bbbbbb" transform="translate(83.97175 259.635802)scale(0.1785 -0.1785)">
       <use xlink:href="#DejaVuSans-34"/>
       <use xlink:href="#DejaVuSans-30" x="63.623047"/>
       <use xlink:href="#DejaVuSans-30" x="127.246094"/>
       <use xlink:href="#DejaVuSans-30" x="190.869141"/>
      </g>
     </g>
    </g>
    <g id="ytick_6">
     <g id="line2d_23">
      <path d="M 135 151.153771 
L 972 151.153771 
" clip-path="url(#p5b82b9f1f6)" style="fill: none; stroke: #303030; stroke-width: 1.12; stroke-linecap: square"/>
     </g>
     <g id="line2d_24"/>
     <g id="text_12">
      <!-- 5000 -->
      <g style="fill: #bbbbbb" transform="translate(83.97175 157.935377)scale(0.1785 -0.1785)">
       <defs>
        <path id="DejaVuSans-35" d="M 691 4666 
L 3169 4666 
L 3169 4134 
L 1269 4134 
L 1269 2991 
Q 1406 3038 1543 3061 
Q 1681 3084 1819 3084 
Q 2600 3084 3056 2656 
Q 3513 2228 3513 1497 
Q 3513 744 3044 326 
Q 2575 -91 1722 -91 
Q 1428 -91 1123 -41 
Q 819 9 494 109 
L 494 744 
Q 775 591 1075 516 
Q 1375 441 1709 441 
Q 2250 441 2565 725 
Q 2881 1009 2881 1497 
Q 2881 1984 2565 2268 
Q 2250 2553 1709 2553 
Q 1456 2553 1204 2497 
Q 953 2441 691 2322 
L 691 4666 
z
" transform="scale(0.015625)"/>
       </defs>
       <use xlink:href="#DejaVuSans-35"/>
       <use xlink:href="#DejaVuSans-30" x="63.623047"/>
       <use xlink:href="#DejaVuSans-30" x="127.246094"/>
       <use xlink:href="#DejaVuSans-30" x="190.869141"/>
      </g>
     </g>
    </g>
   </g>
   <g id="line2d_25">
    <path d="M 173.045455 643.406542 
L 173.807125 654.528978 
L 174.568796 656.323211 
L 175.330467 622.688983 
L 176.092138 657.54194 
L 176.853808 661.670922 
L 177.615479 651.777461 
L 178.37715 503.867408 
L 179.138821 625.4741 
L 179.900491 641.110014 
L 180.662162 662.606691 
L 181.423833 657.593277 
L 182.185504 537.782998 
L 182.947174 586.679115 
L 183.708845 662.435577 
L 184.470516 637.265921 
L 185.232187 623.871809 
L 185.993857 628.423651 
L 186.755528 657.839542 
L 187.517199 584.807204 
L 188.27887 612.375847 
L 189.040541 651.611341 
L 189.802211 642.451744 
L 190.563882 421.991762 
L 191.325553 658.114088 
L 192.087224 638.242624 
L 192.848894 410.93415 
L 193.610565 489.973817 
L 194.372236 638.024849 
L 195.133907 649.023005 
L 195.895577 647.862547 
L 197.418919 661.792821 
L 198.18059 648.393715 
L 199.703931 659.31936 
L 200.465602 631.026199 
L 201.227273 638.179024 
L 201.988943 647.956526 
L 202.750614 645.73968 
L 203.512285 660.640854 
L 204.273956 570.323937 
L 205.035627 636.105196 
L 205.797297 644.965127 
L 206.558968 658.856249 
L 207.320639 639.277534 
L 208.08231 651.815512 
L 208.84398 610.818481 
L 209.605651 651.885943 
L 210.367322 643.602677 
L 211.128993 643.801028 
L 211.890663 641.842619 
L 212.652334 657.428299 
L 213.414005 653.294774 
L 214.175676 605.183707 
L 214.937346 657.233716 
L 215.699017 585.856002 
L 216.460688 650.194609 
L 217.222359 522.133857 
L 217.984029 634.68882 
L 218.7457 659.565507 
L 219.507371 636.618951 
L 220.269042 498.172333 
L 221.030713 648.739353 
L 221.792383 464.192411 
L 222.554054 654.700526 
L 223.315725 622.908414 
L 224.077396 597.441104 
L 224.839066 630.654605 
L 225.600737 514.714729 
L 226.362408 517.994543 
L 227.124079 562.608181 
L 227.885749 652.227726 
L 228.64742 616.760837 
L 229.409091 641.300422 
L 230.170762 643.606209 
L 230.932432 567.052063 
L 231.694103 641.56854 
L 232.455774 611.724738 
L 233.217445 472.985215 
L 233.979115 638.281252 
L 234.740786 617.945857 
L 235.502457 655.486752 
L 236.264128 608.483648 
L 237.025799 652.065073 
L 237.787469 544.918862 
L 238.54914 564.533096 
L 239.310811 657.062807 
L 240.072482 659.987129 
L 240.834152 639.018225 
L 241.595823 516.053595 
L 242.357494 594.439303 
L 243.119165 643.510275 
L 243.880835 656.690062 
L 244.642506 611.132105 
L 245.404177 641.300876 
L 246.165848 660.963935 
L 246.927518 601.262034 
L 247.689189 653.880892 
L 248.45086 650.22702 
L 249.212531 617.701835 
L 249.974201 661.031033 
L 250.735872 655.351147 
L 251.497543 443.836373 
L 252.259214 644.644874 
L 253.020885 649.864315 
L 253.782555 659.220462 
L 254.544226 507.287457 
L 255.305897 636.581925 
L 256.829238 647.556347 
L 257.590909 661.367183 
L 258.35258 507.2159 
L 259.114251 637.520462 
L 259.875921 660.940713 
L 260.637592 585.223509 
L 261.399263 649.656889 
L 262.160934 656.370755 
L 262.922604 549.899936 
L 263.684275 632.697114 
L 264.445946 303.611871 
L 265.207617 643.297924 
L 265.969287 625.533085 
L 266.730958 656.240408 
L 267.492629 536.536659 
L 268.2543 658.302617 
L 269.015971 659.918504 
L 269.777641 589.241023 
L 270.539312 642.734097 
L 271.300983 657.700971 
L 272.062654 658.048645 
L 272.824324 641.189576 
L 273.585995 583.452982 
L 274.347666 554.673239 
L 275.109337 493.914187 
L 275.871007 587.223657 
L 276.632678 646.346404 
L 277.394349 652.280581 
L 278.15602 649.021993 
L 278.91769 628.651829 
L 279.679361 617.714756 
L 280.441032 553.788351 
L 281.202703 649.222244 
L 281.964373 647.569634 
L 282.726044 607.470918 
L 283.487715 647.590742 
L 284.249386 659.459602 
L 285.011057 659.759715 
L 285.772727 585.599169 
L 286.534398 657.522899 
L 287.296069 652.362987 
L 288.05774 659.719129 
L 288.81941 657.668932 
L 289.581081 656.605283 
L 290.342752 644.348087 
L 291.104423 645.756288 
L 291.866093 598.493583 
L 292.627764 654.967946 
L 293.389435 638.045997 
L 294.151106 656.501301 
L 294.912776 648.91574 
L 295.674447 661.052153 
L 296.436118 659.745352 
L 297.959459 548.889548 
L 298.72113 660.772353 
L 299.482801 660.686394 
L 300.244472 622.538413 
L 301.006143 656.188559 
L 301.767813 658.748521 
L 302.529484 646.750733 
L 303.291155 593.360859 
L 304.052826 585.432043 
L 304.814496 605.610112 
L 305.576167 633.540469 
L 306.337838 576.582648 
L 307.099509 644.16369 
L 307.861179 662.015979 
L 308.62285 645.605208 
L 309.384521 655.45705 
L 310.146192 650.552106 
L 310.907862 633.155337 
L 311.669533 636.35195 
L 312.431204 610.161333 
L 313.192875 657.592917 
L 313.954545 637.641072 
L 314.716216 638.933815 
L 315.477887 644.112169 
L 316.239558 654.686162 
L 317.001229 649.231257 
L 317.762899 638.124954 
L 318.52457 656.407676 
L 319.286241 660.109705 
L 320.047912 607.91834 
L 320.809582 618.149624 
L 321.571253 573.938592 
L 322.332924 643.658239 
L 323.094595 647.371503 
L 323.856265 645.144872 
L 324.617936 638.411475 
L 325.379607 616.85398 
L 326.902948 661.143289 
L 327.664619 642.08932 
L 328.42629 583.334075 
L 329.187961 620.276478 
L 329.949631 640.737253 
L 330.711302 655.200996 
L 331.472973 652.464138 
L 332.234644 659.934947 
L 332.996314 630.046479 
L 333.757985 654.618565 
L 334.519656 651.801986 
L 335.281327 652.571592 
L 336.042998 658.73192 
L 336.804668 646.392943 
L 337.566339 622.999913 
L 338.32801 631.256611 
L 339.089681 658.307868 
L 339.851351 657.736681 
L 340.613022 660.685032 
L 341.374693 654.754377 
L 342.136364 633.189344 
L 342.898034 660.725624 
L 343.659705 662.91566 
L 344.421376 648.376813 
L 345.183047 656.146824 
L 345.944717 659.618431 
L 346.706388 638.362231 
L 347.468059 641.034225 
L 348.22973 613.512233 
L 348.9914 661.54626 
L 349.753071 622.584272 
L 350.514742 608.677124 
L 351.276413 636.615833 
L 352.038084 648.282639 
L 352.799754 647.104285 
L 353.561425 627.878538 
L 354.323096 602.28874 
L 355.084767 658.20703 
L 355.846437 659.748334 
L 356.608108 646.917144 
L 357.369779 612.066673 
L 358.13145 663.201273 
L 358.89312 406.443118 
L 359.654791 661.971603 
L 360.416462 642.836103 
L 361.178133 659.926959 
L 361.939803 628.721952 
L 362.701474 627.560979 
L 363.463145 587.527306 
L 364.224816 656.135378 
L 364.986486 658.039731 
L 365.748157 659.116943 
L 366.509828 589.753213 
L 367.271499 629.916833 
L 368.03317 663.489674 
L 368.79484 602.459397 
L 369.556511 574.631991 
L 370.318182 654.678772 
L 371.079853 505.849325 
L 371.841523 659.621147 
L 372.603194 645.155067 
L 373.364865 597.476244 
L 374.126536 655.394257 
L 374.888206 656.020127 
L 375.649877 661.661086 
L 376.411548 604.419291 
L 377.173219 655.228687 
L 377.934889 609.676611 
L 378.69656 610.864828 
L 379.458231 639.268299 
L 380.219902 659.853508 
L 380.981572 588.856972 
L 381.743243 603.14955 
L 382.504914 612.888778 
L 383.266585 583.963818 
L 384.028256 651.9421 
L 384.789926 611.400639 
L 385.551597 614.102355 
L 386.313268 643.531228 
L 387.074939 665.228956 
L 387.836609 662.972621 
L 388.59828 583.127837 
L 389.359951 633.441339 
L 390.121622 639.229508 
L 390.883292 612.221782 
L 391.644963 535.526321 
L 392.406634 653.219566 
L 393.168305 613.943386 
L 393.929975 659.11775 
L 394.691646 431.196644 
L 395.453317 634.624713 
L 396.214988 639.285029 
L 396.976658 627.698635 
L 397.738329 638.183402 
L 398.5 659.036807 
L 399.261671 560.999236 
L 400.023342 584.911785 
L 400.785012 518.303431 
L 401.546683 659.488568 
L 402.308354 632.136313 
L 403.070025 630.776051 
L 403.831695 651.865921 
L 404.593366 607.367541 
L 405.355037 659.064808 
L 406.116708 613.498897 
L 406.878378 550.76789 
L 407.640049 610.774717 
L 408.40172 652.102935 
L 409.163391 500.934272 
L 409.925061 657.046172 
L 410.686732 659.991729 
L 411.448403 592.873356 
L 412.210074 643.567743 
L 412.971744 546.456423 
L 413.733415 644.649582 
L 414.495086 642.123732 
L 415.256757 628.721946 
L 416.018428 652.492881 
L 416.780098 657.884887 
L 417.541769 587.834542 
L 418.30344 657.342775 
L 419.065111 629.076082 
L 419.826781 636.96563 
L 420.588452 590.590584 
L 421.350123 635.486283 
L 422.111794 656.131864 
L 422.873464 661.215927 
L 423.635135 538.542176 
L 424.396806 661.86264 
L 425.158477 652.104226 
L 425.920147 451.091616 
L 426.681818 540.285484 
L 427.443489 605.359734 
L 428.20516 646.454029 
L 428.96683 513.126964 
L 429.728501 537.09724 
L 430.490172 634.78704 
L 431.251843 549.220273 
L 432.013514 597.218492 
L 432.775184 586.35235 
L 433.536855 509.983797 
L 434.298526 599.30075 
L 435.060197 652.738376 
L 435.821867 651.054205 
L 436.583538 656.790834 
L 437.345209 663.730942 
L 438.10688 658.877819 
L 438.86855 656.903509 
L 439.630221 648.245472 
L 440.391892 292.138742 
L 441.153563 574.726919 
L 441.915233 661.567139 
L 442.676904 661.429678 
L 443.438575 652.285777 
L 444.200246 653.476536 
L 444.961916 659.249075 
L 445.723587 434.724676 
L 446.485258 642.650431 
L 447.246929 650.245707 
L 448.0086 654.877806 
L 448.77027 642.220968 
L 449.531941 484.232708 
L 450.293612 656.191203 
L 451.055283 523.779252 
L 451.816953 659.497569 
L 452.578624 598.201486 
L 453.340295 658.446933 
L 454.101966 200.212209 
L 454.863636 637.830767 
L 455.625307 643.141121 
L 456.386978 649.641864 
L 457.148649 616.869756 
L 457.910319 654.860147 
L 458.67199 639.133543 
L 459.433661 552.113397 
L 460.195332 605.580199 
L 460.957002 638.85114 
L 461.718673 611.273135 
L 462.480344 607.790231 
L 463.242015 656.673498 
L 464.003686 601.639568 
L 464.765356 657.783127 
L 465.527027 616.31388 
L 466.288698 489.085577 
L 467.050369 568.634353 
L 467.812039 601.513076 
L 468.57371 656.446851 
L 469.335381 631.967722 
L 470.097052 639.580062 
L 470.858722 541.219472 
L 471.620393 568.325869 
L 472.382064 659.395064 
L 473.143735 533.779835 
L 473.905405 615.17335 
L 474.667076 656.576779 
L 475.428747 601.64197 
L 476.190418 658.001168 
L 476.952088 648.109691 
L 477.713759 659.861425 
L 478.47543 634.857777 
L 479.237101 574.845621 
L 479.998771 634.451903 
L 480.760442 657.314656 
L 481.522113 657.888295 
L 482.283784 582.025222 
L 483.045455 659.033635 
L 483.807125 642.763098 
L 484.568796 660.305173 
L 485.330467 648.86065 
L 486.092138 591.202971 
L 486.853808 657.05106 
L 487.615479 526.778719 
L 488.37715 624.014152 
L 489.138821 655.865245 
L 489.900491 588.69236 
L 490.662162 637.381884 
L 491.423833 660.486286 
L 492.185504 659.425008 
L 492.947174 569.360229 
L 493.708845 550.32824 
L 494.470516 648.488926 
L 495.232187 656.808941 
L 495.993857 583.50269 
L 496.755528 660.697459 
L 497.517199 350.122857 
L 498.27887 648.120305 
L 499.040541 543.432201 
L 499.802211 656.093243 
L 500.563882 650.560954 
L 501.325553 659.951226 
L 502.087224 619.87039 
L 502.848894 656.240197 
L 503.610565 525.529115 
L 504.372236 556.724088 
L 505.133907 657.614813 
L 505.895577 652.817162 
L 506.657248 641.08167 
L 507.418919 608.460446 
L 508.94226 648.980554 
L 509.703931 607.854613 
L 510.465602 501.376691 
L 511.227273 610.238915 
L 511.988943 593.753012 
L 513.512285 657.850501 
L 514.273956 658.488323 
L 515.035627 549.304519 
L 515.797297 647.110921 
L 516.558968 580.058556 
L 517.320639 627.955869 
L 518.08231 620.835523 
L 518.84398 661.498768 
L 519.605651 641.028768 
L 520.367322 657.947692 
L 521.128993 648.796578 
L 521.890663 632.15202 
L 522.652334 496.632476 
L 523.414005 604.788389 
L 524.175676 658.115957 
L 524.937346 656.525528 
L 525.699017 641.479131 
L 526.460688 576.748085 
L 527.222359 591.334988 
L 527.984029 653.699387 
L 528.7457 462.861255 
L 529.507371 658.657209 
L 530.269042 578.171239 
L 531.030713 640.57318 
L 531.792383 643.777503 
L 532.554054 658.423448 
L 533.315725 446.666431 
L 534.839066 656.811396 
L 535.600737 632.930925 
L 536.362408 652.460991 
L 537.885749 557.303279 
L 538.64742 526.116561 
L 539.409091 640.915006 
L 540.170762 602.292086 
L 540.932432 649.090733 
L 541.694103 658.663183 
L 542.455774 656.925508 
L 543.217445 660.081216 
L 544.740786 585.71342 
L 545.502457 558.354677 
L 546.264128 623.198947 
L 547.025799 652.958071 
L 547.787469 652.171457 
L 548.54914 646.000642 
L 549.310811 613.651506 
L 550.072482 597.386809 
L 550.834152 650.418031 
L 551.595823 604.934745 
L 552.357494 650.513115 
L 553.119165 588.197793 
L 553.880835 565.557587 
L 554.642506 496.457032 
L 555.404177 607.959268 
L 556.165848 650.455629 
L 557.689189 662.159225 
L 558.45086 652.844257 
L 559.212531 657.480233 
L 559.974201 632.180115 
L 560.735872 484.218245 
L 561.497543 659.425958 
L 562.259214 576.104865 
L 563.020885 611.443103 
L 563.782555 575.280312 
L 564.544226 660.479967 
L 565.305897 501.422203 
L 566.067568 642.730264 
L 566.829238 653.931429 
L 567.590909 537.232919 
L 568.35258 631.927037 
L 569.114251 659.799653 
L 569.875921 660.175037 
L 570.637592 518.924968 
L 571.399263 647.787498 
L 572.160934 654.508373 
L 572.922604 659.636441 
L 573.684275 638.102766 
L 574.445946 632.255012 
L 575.207617 657.275454 
L 575.969287 645.339207 
L 576.730958 588.087198 
L 577.492629 651.982985 
L 578.2543 578.551796 
L 579.015971 659.219376 
L 579.777641 649.013095 
L 580.539312 657.709735 
L 581.300983 656.927857 
L 582.062654 519.484792 
L 582.824324 659.118802 
L 583.585995 537.973103 
L 584.347666 593.934774 
L 585.109337 585.770614 
L 585.871007 624.645953 
L 586.632678 636.491816 
L 587.394349 640.167456 
L 588.15602 649.335652 
L 588.91769 660.92473 
L 589.679361 660.020419 
L 590.441032 635.218638 
L 591.202703 631.103076 
L 591.964373 660.540836 
L 592.726044 580.60465 
L 593.487715 558.139551 
L 594.249386 657.313939 
L 595.011057 566.782144 
L 595.772727 650.262889 
L 596.534398 400.42648 
L 597.296069 621.577383 
L 598.05774 663.00241 
L 598.81941 640.929532 
L 599.581081 658.752984 
L 600.342752 610.628594 
L 601.104423 594.460036 
L 601.866093 638.230574 
L 602.627764 626.762984 
L 603.389435 658.421744 
L 604.151106 659.972489 
L 605.674447 542.284881 
L 606.436118 650.675349 
L 607.197789 656.063261 
L 607.959459 656.761902 
L 608.72113 619.895154 
L 609.482801 627.562422 
L 610.244472 658.10191 
L 611.006143 624.961035 
L 611.767813 646.535857 
L 612.529484 650.453413 
L 613.291155 656.190644 
L 614.052826 627.976527 
L 614.814496 631.889299 
L 615.576167 658.328597 
L 616.337838 658.115299 
L 617.099509 619.803975 
L 617.861179 556.711288 
L 618.62285 635.834353 
L 619.384521 603.591528 
L 620.146192 628.321268 
L 620.907862 656.958494 
L 621.669533 530.983321 
L 622.431204 625.1592 
L 623.192875 655.698607 
L 623.954545 660.588384 
L 624.716216 634.142983 
L 625.477887 654.93919 
L 626.239558 655.069702 
L 627.762899 451.130573 
L 628.52457 653.852376 
L 629.286241 652.718233 
L 630.047912 622.90505 
L 630.809582 648.658801 
L 631.571253 624.147631 
L 632.332924 622.359552 
L 633.094595 660.368139 
L 633.856265 658.477973 
L 634.617936 630.542585 
L 635.379607 656.256932 
L 636.141278 543.164641 
L 636.902948 486.55229 
L 637.664619 644.197439 
L 638.42629 593.613527 
L 639.187961 635.586452 
L 639.949631 585.092206 
L 640.711302 656.755263 
L 641.472973 610.929375 
L 642.234644 657.451083 
L 642.996314 661.799354 
L 643.757985 645.357885 
L 644.519656 660.58074 
L 645.281327 644.950568 
L 646.042998 654.714377 
L 646.804668 606.12587 
L 647.566339 656.24818 
L 648.32801 455.557484 
L 649.089681 586.927848 
L 649.851351 660.346026 
L 650.613022 631.54071 
L 651.374693 536.52078 
L 652.136364 660.588322 
L 652.898034 556.40065 
L 653.659705 589.644895 
L 654.421376 662.597824 
L 655.183047 495.869747 
L 655.944717 625.823375 
L 656.706388 626.814117 
L 657.468059 467.19559 
L 658.22973 581.448483 
L 658.9914 636.270706 
L 659.753071 652.654537 
L 660.514742 616.253241 
L 661.276413 638.101925 
L 662.038084 648.439901 
L 663.561425 600.522589 
L 664.323096 621.736761 
L 665.084767 657.579664 
L 665.846437 640.965538 
L 666.608108 657.64779 
L 667.369779 658.794682 
L 668.13145 586.921237 
L 668.89312 658.48994 
L 669.654791 599.087436 
L 670.416462 603.742279 
L 671.178133 648.044343 
L 671.939803 582.653103 
L 672.701474 653.422815 
L 673.463145 598.701621 
L 674.224816 655.633604 
L 674.986486 646.322841 
L 676.509828 425.762499 
L 677.271499 643.395667 
L 678.03317 648.364966 
L 678.79484 648.431471 
L 679.556511 592.641687 
L 680.318182 658.863046 
L 681.079853 576.675583 
L 681.841523 609.660084 
L 682.603194 626.133126 
L 683.364865 594.389428 
L 684.126536 626.082586 
L 684.888206 450.116077 
L 685.649877 656.44272 
L 686.411548 645.0068 
L 687.173219 574.299186 
L 688.69656 662.674344 
L 689.458231 512.258798 
L 690.219902 642.737977 
L 690.981572 654.141264 
L 691.743243 626.527578 
L 692.504914 651.923243 
L 693.266585 585.876194 
L 695.551597 657.639804 
L 696.313268 458.963753 
L 697.074939 650.868669 
L 697.836609 640.496357 
L 698.59828 647.266929 
L 699.359951 647.548144 
L 700.883292 661.296631 
L 701.644963 661.372527 
L 703.168305 466.095756 
L 703.929975 540.50413 
L 704.691646 660.009916 
L 705.453317 660.808467 
L 706.214988 653.374684 
L 706.976658 636.400369 
L 707.738329 543.245808 
L 708.5 483.803771 
L 709.261671 651.838985 
L 710.023342 640.594856 
L 710.785012 657.792091 
L 711.546683 620.698963 
L 712.308354 643.927887 
L 713.070025 456.497406 
L 713.831695 632.354813 
L 714.593366 454.240642 
L 715.355037 643.745243 
L 716.116708 659.057278 
L 716.878378 629.994151 
L 717.640049 634.306424 
L 718.40172 656.12071 
L 719.163391 629.891153 
L 719.925061 641.696901 
L 720.686732 650.177343 
L 721.448403 656.778386 
L 722.210074 652.52627 
L 722.971744 634.564167 
L 723.733415 664.443221 
L 724.495086 612.789085 
L 725.256757 623.288937 
L 726.018428 659.511976 
L 726.780098 618.155747 
L 727.541769 565.21567 
L 728.30344 627.512454 
L 729.065111 649.319398 
L 729.826781 634.754346 
L 730.588452 563.816923 
L 731.350123 639.059904 
L 732.111794 602.679738 
L 732.873464 655.301039 
L 733.635135 658.965032 
L 734.396806 658.56184 
L 735.158477 665.82 
L 735.920147 582.684425 
L 736.681818 656.223993 
L 737.443489 590.986101 
L 738.20516 593.95717 
L 738.96683 648.412179 
L 739.728501 660.178305 
L 740.490172 593.526066 
L 741.251843 606.608401 
L 742.013514 656.849559 
L 742.775184 605.647517 
L 743.536855 646.847331 
L 744.298526 654.022195 
L 745.060197 612.0747 
L 745.821867 643.056109 
L 746.583538 661.056954 
L 747.345209 657.854536 
L 748.10688 646.46785 
L 748.86855 613.098845 
L 749.630221 652.467105 
L 750.391892 656.28353 
L 751.153563 653.322216 
L 751.915233 496.06596 
L 752.676904 542.796461 
L 753.438575 656.07985 
L 754.200246 607.331707 
L 754.961916 579.740618 
L 755.723587 657.694726 
L 756.485258 654.415691 
L 757.246929 570.548102 
L 758.0086 660.523781 
L 758.77027 631.633009 
L 759.531941 643.80484 
L 760.293612 654.166602 
L 761.055283 645.641391 
L 761.816953 661.323077 
L 762.578624 579.647167 
L 763.340295 632.210298 
L 764.101966 660.627611 
L 764.863636 495.259197 
L 765.625307 651.705646 
L 766.386978 658.744927 
L 767.148649 653.742168 
L 767.910319 634.89532 
L 768.67199 601.301673 
L 769.433661 658.895398 
L 770.195332 645.606801 
L 770.957002 496.929321 
L 771.718673 619.86431 
L 772.480344 658.884734 
L 773.242015 555.203752 
L 774.003686 654.675197 
L 774.765356 621.706252 
L 775.527027 597.337312 
L 776.288698 653.715561 
L 777.050369 658.005588 
L 777.812039 627.763135 
L 778.57371 442.367105 
L 779.335381 649.531644 
L 780.097052 249.949229 
L 780.858722 657.829561 
L 781.620393 464.0377 
L 782.382064 616.072152 
L 783.143735 520.232536 
L 783.905405 634.918841 
L 784.667076 622.181096 
L 785.428747 577.597374 
L 786.190418 658.638947 
L 786.952088 652.550733 
L 787.713759 127.813176 
L 788.47543 487.401126 
L 789.237101 641.193808 
L 789.998771 659.146539 
L 790.760442 637.942449 
L 791.522113 660.242768 
L 792.283784 659.043539 
L 793.045455 637.189799 
L 793.807125 562.575804 
L 794.568796 534.055538 
L 795.330467 541.976775 
L 796.092138 661.342692 
L 796.853808 660.488263 
L 797.615479 606.807053 
L 798.37715 658.140395 
L 799.138821 599.259682 
L 799.900491 516.359627 
L 800.662162 660.079903 
L 801.423833 658.662333 
L 802.185504 623.767464 
L 802.947174 599.934733 
L 803.708845 657.056144 
L 804.470516 652.414305 
L 805.232187 645.194574 
L 805.993857 648.767472 
L 806.755528 608.900155 
L 807.517199 420.705436 
L 808.27887 624.16156 
L 809.040541 657.174858 
L 809.802211 657.949185 
L 810.563882 628.052684 
L 811.325553 569.247486 
L 812.087224 659.247734 
L 812.848894 563.466502 
L 813.610565 650.007244 
L 814.372236 647.697337 
L 815.133907 654.478093 
L 815.895577 647.790595 
L 816.657248 528.272009 
L 817.418919 659.480747 
L 818.18059 620.951054 
L 818.94226 605.081976 
L 819.703931 642.409755 
L 820.465602 631.195587 
L 821.227273 660.807756 
L 821.988943 587.816758 
L 822.750614 645.968863 
L 823.512285 607.483587 
L 824.273956 600.533054 
L 825.035627 649.649272 
L 825.797297 594.247032 
L 826.558968 451.791129 
L 827.320639 656.843423 
L 828.08231 632.545039 
L 828.84398 627.928001 
L 829.605651 633.177234 
L 830.367322 569.75862 
L 831.128993 565.175353 
L 831.890663 599.006238 
L 832.652334 647.553526 
L 833.414005 623.607316 
L 834.175676 615.522557 
L 834.937346 656.262199 
L 835.699017 623.033268 
L 836.460688 638.589111 
L 837.222359 659.244053 
L 837.984029 594.583462 
L 838.7457 638.005017 
L 839.507371 652.943375 
L 840.269042 631.82402 
L 841.030713 491.964026 
L 841.792383 653.380165 
L 842.554054 634.069611 
L 843.315725 661.218875 
L 844.077396 636.635413 
L 844.839066 657.09944 
L 845.600737 592.167946 
L 846.362408 636.9298 
L 847.124079 651.648914 
L 847.885749 660.131024 
L 848.64742 654.578025 
L 849.409091 658.561747 
L 850.170762 550.902961 
L 850.932432 599.043221 
L 851.694103 657.813438 
L 852.455774 579.10406 
L 853.217445 547.898751 
L 853.979115 570.267023 
L 854.740786 655.852378 
L 855.502457 649.122837 
L 856.264128 636.187084 
L 857.025799 638.491008 
L 857.787469 606.521641 
L 858.54914 551.713374 
L 859.310811 652.313719 
L 860.072482 645.293937 
L 860.834152 652.93233 
L 861.595823 644.994534 
L 862.357494 587.837149 
L 863.119165 659.445741 
L 863.880835 641.85593 
L 864.642506 632.323705 
L 865.404177 613.597037 
L 866.165848 639.455573 
L 866.927518 653.746631 
L 867.689189 566.361929 
L 868.45086 658.411455 
L 869.212531 566.990908 
L 869.974201 654.062741 
L 870.735872 609.510656 
L 871.497543 634.844145 
L 872.259214 619.684699 
L 873.020885 656.071176 
L 873.782555 636.782486 
L 874.544226 592.89772 
L 875.305897 510.70922 
L 876.067568 660.817098 
L 876.829238 659.09365 
L 877.590909 555.70136 
L 878.35258 660.252389 
L 879.114251 648.871895 
L 879.875921 655.273047 
L 880.637592 657.047736 
L 881.399263 352.465046 
L 882.160934 622.785038 
L 882.922604 654.074979 
L 883.684275 624.346603 
L 884.445946 659.774191 
L 885.207617 660.594175 
L 885.969287 646.69748 
L 886.730958 644.131828 
L 887.492629 644.890689 
L 888.2543 651.299083 
L 889.015971 652.160883 
L 889.777641 545.313932 
L 890.539312 640.228397 
L 891.300983 658.153334 
L 892.062654 472.846444 
L 892.824324 660.114804 
L 893.585995 617.771159 
L 894.347666 525.66354 
L 895.109337 634.828584 
L 895.871007 612.129169 
L 896.632678 599.708923 
L 897.394349 656.842501 
L 898.15602 612.723406 
L 898.91769 557.943742 
L 899.679361 643.181201 
L 900.441032 608.113035 
L 901.202703 615.273216 
L 901.964373 647.066091 
L 902.726044 502.902682 
L 903.487715 655.583806 
L 904.249386 616.702385 
L 905.011057 648.73769 
L 905.772727 640.314985 
L 906.534398 643.573335 
L 907.296069 655.226784 
L 908.05774 656.546953 
L 908.81941 545.764495 
L 909.581081 374.75554 
L 910.342752 554.743543 
L 911.104423 614.190197 
L 911.866093 544.684896 
L 912.627764 586.45749 
L 913.389435 657.436015 
L 914.151106 367.831717 
L 914.912776 645.148097 
L 915.674447 633.016967 
L 916.436118 658.698217 
L 917.197789 637.791335 
L 917.959459 662.203095 
L 918.72113 655.984767 
L 919.482801 652.33825 
L 920.244472 649.760358 
L 921.006143 640.205213 
L 921.767813 401.199587 
L 922.529484 462.313014 
L 923.291155 646.885872 
L 924.052826 652.20736 
L 924.814496 642.584064 
L 925.576167 652.615664 
L 926.337838 632.190353 
L 927.099509 659.940165 
L 927.861179 582.710582 
L 928.62285 656.385277 
L 929.384521 649.992645 
L 930.146192 632.132452 
L 930.907862 537.594457 
L 931.669533 608.916878 
L 932.431204 656.044127 
L 933.192875 502.122623 
L 933.954545 635.898797 
L 933.954545 635.898797 
" clip-path="url(#p5b82b9f1f6)" style="fill: none; stroke-dasharray: 4.44,1.92; stroke-dashoffset: 0; stroke: #3572c6; stroke-width: 1.2"/>
   </g>
   <g id="line2d_26">
    <path d="M 173.045455 634.759635 
L 173.807125 649.384156 
L 174.568796 653.223347 
L 175.330467 628.027067 
L 176.092138 659.584709 
L 176.853808 659.208417 
L 177.615479 652.536869 
L 178.37715 463.679179 
L 179.138821 619.33168 
L 179.900491 641.675264 
L 180.662162 659.650814 
L 181.423833 657.947332 
L 182.185504 569.752723 
L 182.947174 590.49961 
L 183.708845 659.574539 
L 184.470516 635.9597 
L 185.232187 626.50156 
L 185.993857 622.89628 
L 186.755528 659.457583 
L 187.517199 590.49961 
L 188.27887 639.010713 
L 189.040541 650.502861 
L 189.802211 645.41784 
L 190.563882 400.218113 
L 191.325553 659.544029 
L 192.087224 595.482931 
L 192.848894 400.218113 
L 193.610565 490.019589 
L 194.372236 640.912511 
L 195.133907 647.96035 
L 197.418919 659.650814 
L 198.18059 659.366053 
L 198.94226 659.350798 
L 199.703931 659.193162 
L 200.465602 628.159277 
L 201.988943 649.994359 
L 202.750614 646.500949 
L 203.512285 659.264352 
L 204.273956 589.380905 
L 205.035627 631.856088 
L 205.797297 647.451848 
L 206.558968 659.579624 
L 207.320639 650.121484 
L 208.08231 649.846893 
L 208.84398 613.992408 
L 209.605651 653.248772 
L 210.367322 637.342826 
L 211.128993 649.485857 
L 211.890663 642.671928 
L 212.652334 659.345713 
L 214.175676 614.3687 
L 214.937346 657.825291 
L 215.699017 635.451198 
L 216.460688 644.909337 
L 217.222359 527.445346 
L 217.984029 634.759635 
L 218.7457 659.264352 
L 219.507371 636.163101 
L 220.269042 485.860042 
L 221.030713 641.349823 
L 221.792383 451.358172 
L 222.554054 653.503023 
L 223.315725 622.89628 
L 224.077396 597.267773 
L 224.839066 631.800153 
L 225.600737 529.067468 
L 226.362408 514.427691 
L 227.124079 550.765253 
L 227.885749 646.887411 
L 228.64742 621.58943 
L 229.409091 645.214439 
L 230.170762 634.230793 
L 230.932432 578.804061 
L 231.694103 629.552573 
L 232.455774 591.618314 
L 233.217445 476.900234 
L 233.979115 637.586907 
L 234.740786 615.426384 
L 235.502457 654.479347 
L 236.264128 581.346571 
L 237.025799 657.621891 
L 237.787469 557.406291 
L 238.54914 536.598384 
L 239.310811 658.577875 
L 240.834152 639.60566 
L 241.595823 500.047251 
L 242.357494 577.283639 
L 243.119165 638.705611 
L 243.880835 659.198247 
L 244.642506 605.754674 
L 245.404177 650.502861 
L 246.165848 659.040612 
L 246.927518 607.585281 
L 247.689189 648.468852 
L 248.45086 649.384156 
L 249.212531 640.84132 
L 249.974201 657.825291 
L 250.735872 656.604886 
L 251.497543 433.382622 
L 252.259214 634.230793 
L 253.020885 649.485857 
L 253.782555 656.35572 
L 254.544226 498.359024 
L 255.305897 652.745355 
L 256.067568 639.315814 
L 256.829238 651.519865 
L 257.590909 659.055867 
L 258.35258 496.935218 
L 259.114251 654.464092 
L 259.875921 659.472838 
L 260.637592 587.774038 
L 261.399263 647.177257 
L 262.160934 656.798117 
L 262.922604 554.818015 
L 263.684275 632.745967 
L 264.445946 369.809686 
L 265.207617 654.97768 
L 265.969287 615.721315 
L 266.730958 658.435494 
L 267.492629 510.563075 
L 268.2543 657.433745 
L 269.015971 659.249097 
L 269.777641 586.431593 
L 270.539312 638.37 
L 271.300983 658.130393 
L 272.062654 659.147397 
L 272.824324 644.28388 
L 274.347666 545.390386 
L 275.109337 497.44372 
L 275.871007 586.431593 
L 276.632678 642.366827 
L 277.394349 651.59614 
L 278.15602 617.958725 
L 278.91769 637.688607 
L 279.679361 623.933625 
L 280.441032 554.512914 
L 281.202703 650.243525 
L 281.964373 651.107978 
L 282.726044 594.974428 
L 283.487715 647.772204 
L 284.249386 657.484595 
L 285.011057 659.391478 
L 285.772727 588.669002 
L 286.534398 657.830376 
L 287.296069 657.184579 
L 288.05774 659.650814 
L 288.81941 659.620304 
L 289.581081 651.367314 
L 290.342752 648.524788 
L 291.104423 657.46934 
L 291.866093 590.906411 
L 292.627764 654.367477 
L 293.389435 642.773628 
L 294.151106 654.875979 
L 294.912776 649.796043 
L 295.674447 659.569454 
L 296.436118 659.050782 
L 297.197789 609.446399 
L 297.959459 612.873703 
L 298.72113 657.718506 
L 299.482801 659.554199 
L 300.244472 618.462142 
L 301.006143 655.587882 
L 301.767813 659.427073 
L 302.529484 613.890708 
L 303.291155 599.449247 
L 304.052826 560.803085 
L 304.814496 641.446438 
L 305.576167 630.671278 
L 306.337838 580.838069 
L 307.099509 632.196784 
L 307.861179 659.589794 
L 308.62285 643.383831 
L 309.384521 659.264352 
L 310.146192 653.858975 
L 310.907862 634.337578 
L 311.669533 633.808736 
L 312.431204 612.365201 
L 313.192875 657.53036 
L 313.954545 649.485857 
L 314.716216 636.671603 
L 315.477887 650.050294 
L 316.239558 656.320125 
L 317.001229 646.943346 
L 317.762899 633.112088 
L 318.52457 658.542279 
L 319.286241 659.350798 
L 320.047912 607.463241 
L 320.809582 630.610258 
L 321.571253 589.380905 
L 322.332924 649.485857 
L 323.094595 637.180105 
L 323.856265 646.134828 
L 324.617936 643.714357 
L 325.379607 619.565591 
L 326.141278 641.858325 
L 326.902948 659.345713 
L 327.664619 646.333143 
L 328.42629 586.685844 
L 329.187961 618.975729 
L 329.949631 638.603911 
L 330.711302 654.672578 
L 331.472973 653.330133 
L 332.234644 658.974506 
L 332.996314 631.17978 
L 333.757985 655.476012 
L 334.519656 648.473937 
L 335.281327 652.841971 
L 336.042998 658.857551 
L 336.804668 651.621565 
L 337.566339 593.04212 
L 338.32801 630.09667 
L 339.089681 656.604886 
L 339.851351 659.416903 
L 340.613022 658.943996 
L 341.374693 656.020109 
L 342.136364 625.586257 
L 342.898034 659.549114 
L 343.659705 659.605049 
L 344.421376 642.692268 
L 345.183047 658.069372 
L 345.944717 659.645729 
L 346.706388 640.587069 
L 347.468059 638.853077 
L 348.22973 618.929964 
L 348.9914 657.952417 
L 349.753071 626.39986 
L 350.514742 604.732584 
L 351.276413 642.468527 
L 352.038084 646.739945 
L 352.799754 647.451848 
L 354.323096 595.482931 
L 355.084767 658.537194 
L 355.846437 658.979591 
L 356.608108 649.485857 
L 357.369779 647.451848 
L 358.13145 659.289778 
L 358.89312 404.820058 
L 359.654791 659.610134 
L 360.416462 635.247797 
L 361.178133 658.257518 
L 361.939803 650.263865 
L 362.701474 625.077754 
L 363.463145 582.363576 
L 364.224816 659.121972 
L 364.986486 658.750765 
L 365.748157 659.564369 
L 366.509828 577.283639 
L 367.271499 629.323747 
L 368.03317 659.360968 
L 368.79484 610.89563 
L 369.556511 580.329567 
L 370.318182 657.41849 
L 371.079853 510.563075 
L 371.841523 659.162652 
L 372.603194 643.587232 
L 373.364865 616.306093 
L 374.126536 638.43102 
L 374.888206 657.037113 
L 375.649877 659.620304 
L 376.411548 629.755974 
L 377.173219 654.042036 
L 377.934889 584.453519 
L 378.69656 605.195321 
L 379.458231 641.192187 
L 380.219902 659.650814 
L 380.981572 592.198007 
L 381.743243 604.635969 
L 382.504914 624.330256 
L 383.266585 586.772289 
L 384.028256 635.247797 
L 384.789926 624.869269 
L 385.551597 621.009737 
L 386.313268 656.447251 
L 387.074939 655.409906 
L 387.836609 659.610134 
L 388.59828 604.8292 
L 389.359951 616.534919 
L 390.121622 631.17978 
L 390.883292 614.297509 
L 391.644963 545.039519 
L 392.406634 658.857551 
L 393.168305 626.39986 
L 393.929975 656.854052 
L 394.691646 453.509136 
L 395.453317 629.145771 
L 396.214988 598.635644 
L 396.976658 639.112413 
L 397.738329 636.513967 
L 398.5 659.650814 
L 399.261671 567.311913 
L 400.023342 583.080564 
L 400.785012 514.076825 
L 401.546683 659.421988 
L 402.308354 630.905189 
L 403.070025 633.47821 
L 403.831695 650.853727 
L 404.593366 626.603261 
L 405.355037 658.872806 
L 406.116708 615.619615 
L 406.878378 552.870452 
L 407.640049 597.61864 
L 408.40172 659.045697 
L 409.163391 497.44372 
L 409.925061 659.376223 
L 410.686732 659.523689 
L 411.448403 589.26395 
L 412.210074 640.892171 
L 412.971744 575.763218 
L 413.733415 648.646828 
L 414.495086 646.607735 
L 415.256757 630.147521 
L 416.018428 650.919833 
L 416.780098 659.528774 
L 417.541769 589.482605 
L 418.30344 658.130393 
L 419.065111 628.128767 
L 419.826781 646.333143 
L 420.588452 589.879237 
L 421.350123 630.467877 
L 422.111794 657.072708 
L 422.873464 659.650814 
L 423.635135 550.836444 
L 424.396806 659.279608 
L 425.158477 650.355395 
L 425.920147 466.389495 
L 426.681818 557.853773 
L 427.443489 598.533943 
L 428.20516 646.63316 
L 428.96683 516.863417 
L 429.728501 531.111646 
L 430.490172 639.214114 
L 431.251843 535.58138 
L 432.013514 593.926914 
L 432.775184 590.49961 
L 433.536855 623.236977 
L 434.298526 595.584631 
L 435.060197 649.485857 
L 435.821867 647.248447 
L 436.583538 657.977842 
L 437.345209 659.345713 
L 438.10688 659.640644 
L 438.86855 654.570878 
L 439.630221 645.524625 
L 440.391892 202.003984 
L 441.153563 579.200692 
L 441.915233 659.554199 
L 442.676904 659.350798 
L 443.438575 655.486182 
L 444.200246 656.655737 
L 444.961916 659.208417 
L 445.723587 450.498804 
L 446.485258 645.783961 
L 447.246929 648.265451 
L 448.0086 658.333794 
L 448.77027 641.044721 
L 449.531941 465.286046 
L 450.293612 659.411818 
L 451.055283 532.530367 
L 451.816953 658.74568 
L 452.578624 610.504083 
L 453.340295 659.350798 
L 454.101966 265.007398 
L 454.863636 634.983376 
L 455.625307 651.870732 
L 456.386978 633.213788 
L 457.910319 655.913323 
L 458.67199 630.823828 
L 459.433661 552.056849 
L 460.957002 633.605335 
L 461.718673 607.997168 
L 462.480344 600.613717 
L 463.242015 659.198247 
L 464.003686 598.559368 
L 464.765356 656.701502 
L 465.527027 616.94172 
L 466.288698 474.032282 
L 467.050369 563.732058 
L 467.812039 591.618314 
L 468.57371 657.59138 
L 469.335381 626.094759 
L 470.097052 646.536544 
L 470.858722 543.717414 
L 471.620393 552.870452 
L 472.382064 659.345713 
L 473.143735 532.530367 
L 473.905405 626.37952 
L 474.667076 659.650814 
L 475.428747 594.872728 
L 476.190418 659.488093 
L 476.952088 643.383831 
L 477.713759 659.345713 
L 478.47543 636.366502 
L 479.237101 577.888757 
L 479.998771 650.121484 
L 480.760442 655.348886 
L 481.522113 659.650814 
L 482.283784 587.545212 
L 483.045455 659.274523 
L 483.807125 640.434519 
L 484.568796 659.615219 
L 485.330467 655.715008 
L 486.092138 578.295559 
L 486.853808 652.841971 
L 487.615479 530.206512 
L 488.37715 619.33168 
L 489.138821 654.453922 
L 489.900491 586.940095 
L 490.662162 643.383831 
L 491.423833 659.650814 
L 492.185504 659.371138 
L 492.947174 573.82074 
L 493.708845 551.751748 
L 494.470516 645.717856 
L 495.232187 657.342214 
L 495.993857 581.346571 
L 496.755528 659.269438 
L 497.517199 357.783611 
L 498.27887 649.373986 
L 499.040541 537.615388 
L 499.802211 644.939848 
L 500.563882 648.977354 
L 501.325553 659.345713 
L 502.087224 616.94172 
L 502.848894 658.638895 
L 503.610565 525.406252 
L 504.372236 552.158549 
L 505.133907 658.404984 
L 505.895577 658.827041 
L 506.657248 634.230793 
L 507.418919 633.234129 
L 508.18059 598.635644 
L 508.94226 644.909337 
L 509.703931 608.302269 
L 510.465602 529.952261 
L 511.227273 604.386803 
L 511.988943 590.60131 
L 512.750614 619.33168 
L 513.512285 657.316789 
L 514.273956 659.472838 
L 515.035627 539.354466 
L 515.797297 645.926342 
L 516.558968 575.549647 
L 517.320639 631.586582 
L 518.08231 614.195809 
L 518.84398 659.605049 
L 519.605651 645.265289 
L 520.367322 656.711672 
L 521.128993 612.08044 
L 521.890663 634.352833 
L 522.652334 451.164942 
L 523.414005 600.862883 
L 524.175676 659.432158 
L 524.937346 656.706587 
L 525.699017 634.988461 
L 526.460688 586.533293 
L 527.222359 576.26155 
L 527.984029 654.992935 
L 528.7457 516.156599 
L 529.507371 659.528774 
L 530.269042 576.546311 
L 531.030713 633.62059 
L 531.792383 629.145771 
L 532.554054 659.294863 
L 533.315725 453.915938 
L 534.839066 655.384481 
L 535.600737 634.74438 
L 536.362408 653.94542 
L 537.124079 602.215499 
L 537.885749 568.379767 
L 538.64742 446.085005 
L 539.409091 643.994034 
L 540.170762 602.042608 
L 540.932432 651.519865 
L 541.694103 652.821631 
L 542.455774 658.943996 
L 543.217445 659.544029 
L 543.979115 616.94172 
L 544.740786 590.49961 
L 545.502457 546.361625 
L 546.264128 622.89628 
L 547.025799 653.238602 
L 547.787469 651.44359 
L 548.54914 650.36048 
L 549.310811 614.150044 
L 550.072482 599.774689 
L 550.834152 655.587882 
L 551.595823 604.737669 
L 552.357494 650.502861 
L 553.119165 543.717414 
L 553.880835 572.991881 
L 554.642506 462.357073 
L 555.404177 612.853363 
L 556.165848 649.129905 
L 556.927518 658.323624 
L 557.689189 659.350798 
L 558.45086 651.199509 
L 559.212531 659.269438 
L 559.974201 630.874679 
L 560.735872 470.437172 
L 561.497543 659.503348 
L 562.259214 574.227542 
L 563.020885 614.012748 
L 563.782555 574.92419 
L 564.544226 659.625389 
L 565.305897 505.071252 
L 566.067568 653.553874 
L 566.829238 649.20618 
L 567.590909 526.11307 
L 568.35258 631.891683 
L 569.114251 657.011688 
L 569.875921 657.698166 
L 570.637592 502.020239 
L 571.399263 653.182667 
L 572.160934 655.943834 
L 572.922604 659.218587 
L 573.684275 637.688607 
L 574.445946 624.06075 
L 575.207617 658.938911 
L 575.969287 643.002454 
L 576.730958 582.566977 
L 577.492629 657.047283 
L 578.2543 569.14252 
L 579.015971 658.842296 
L 579.777641 651.42325 
L 580.539312 657.728676 
L 581.300983 657.932077 
L 582.062654 513.207286 
L 582.824324 651.926667 
L 583.585995 540.849462 
L 584.347666 577.283639 
L 585.109337 567.617014 
L 585.871007 647.604399 
L 586.632678 588.28254 
L 587.394349 631.28148 
L 588.15602 647.350148 
L 588.91769 659.615219 
L 589.679361 659.645729 
L 590.441032 629.145771 
L 591.202703 619.077429 
L 591.964373 659.132142 
L 592.726044 588.669002 
L 593.487715 590.49961 
L 594.249386 656.126894 
L 595.011057 558.687717 
L 595.772727 646.82639 
L 596.534398 376.933801 
L 597.296069 619.33168 
L 598.05774 659.518604 
L 598.81941 636.264801 
L 599.581081 659.411818 
L 600.342752 579.312563 
L 601.104423 597.786445 
L 601.866093 638.771717 
L 602.627764 635.044396 
L 603.389435 658.608385 
L 604.151106 659.411818 
L 605.674447 539.445996 
L 606.436118 659.264352 
L 607.197789 654.072546 
L 607.959459 654.733599 
L 608.72113 586.431593 
L 609.482801 628.683035 
L 610.244472 658.69483 
L 611.006143 634.907101 
L 611.767813 588.363901 
L 612.529484 653.299623 
L 613.291155 656.579461 
L 614.052826 635.247797 
L 614.814496 635.756299 
L 615.576167 659.289778 
L 616.337838 659.030442 
L 617.099509 631.484881 
L 617.861179 557.955474 
L 618.62285 655.07938 
L 619.384521 610.026091 
L 620.146192 643.892333 
L 620.907862 656.187915 
L 621.669533 522.868827 
L 622.431204 617.877364 
L 623.192875 653.599639 
L 623.954545 659.345713 
L 624.716216 655.287866 
L 625.477887 646.150083 
L 626.239558 644.400835 
L 627.001229 567.184787 
L 627.762899 461.818061 
L 628.52457 648.265451 
L 629.286241 642.366827 
L 630.047912 620.918207 
L 630.809582 649.689257 
L 631.571253 618.792668 
L 632.332924 607.483581 
L 633.094595 659.401648 
L 633.856265 658.659235 
L 634.617936 635.344412 
L 635.379607 657.972757 
L 636.902948 432.86395 
L 637.664619 649.079055 
L 638.42629 600.761183 
L 639.187961 629.796654 
L 639.949631 598.483093 
L 640.711302 655.09972 
L 641.472973 630.671278 
L 642.234644 659.645729 
L 642.996314 659.569454 
L 643.757985 643.714357 
L 644.519656 657.011688 
L 645.281327 645.41784 
L 646.042998 656.431996 
L 646.804668 602.388389 
L 647.566339 638.003879 
L 648.32801 492.867201 
L 649.089681 587.646913 
L 649.851351 659.274523 
L 650.613022 639.519215 
L 651.374693 537.615388 
L 652.136364 658.455834 
L 652.898034 572.091833 
L 653.659705 610.809185 
L 654.421376 659.559284 
L 655.183047 496.630117 
L 655.944717 618.619777 
L 656.706388 624.1116 
L 657.468059 453.509136 
L 658.22973 584.397584 
L 658.9914 637.983538 
L 659.753071 652.841971 
L 660.514742 613.178805 
L 661.276413 634.230793 
L 662.038084 646.028042 
L 662.799754 616.73832 
L 663.561425 596.077878 
L 664.323096 624.670953 
L 665.084767 659.386393 
L 665.846437 639.417514 
L 666.608108 659.650814 
L 667.369779 659.594879 
L 668.13145 588.465601 
L 668.89312 628.128767 
L 669.654791 585.592564 
L 670.416462 594.567627 
L 671.178133 649.790958 
L 671.939803 543.717414 
L 672.701474 657.474425 
L 673.463145 596.662656 
L 674.224816 659.650814 
L 674.986486 644.888997 
L 675.748157 543.595373 
L 676.509828 619.077429 
L 677.271499 645.199184 
L 678.03317 646.841645 
L 678.79484 648.026455 
L 679.556511 619.016409 
L 680.318182 659.147397 
L 681.079853 579.307478 
L 681.841523 639.010713 
L 682.603194 627.925366 
L 683.364865 588.669002 
L 684.126536 618.467227 
L 684.888206 463.88258 
L 685.649877 653.660659 
L 686.411548 645.316139 
L 687.173219 572.702035 
L 687.934889 624.279406 
L 688.69656 659.264352 
L 689.458231 500.377778 
L 690.219902 635.349497 
L 690.981572 655.587882 
L 691.743243 622.636944 
L 692.504914 649.577387 
L 693.266585 587.855399 
L 694.028256 597.110137 
L 694.789926 646.129743 
L 695.551597 656.986263 
L 696.313268 449.425864 
L 697.074939 644.299135 
L 697.836609 644.319475 
L 698.59828 653.080967 
L 699.359951 648.112901 
L 700.121622 640.84132 
L 700.883292 659.477923 
L 701.644963 659.477923 
L 702.406634 562.531993 
L 703.168305 439.306672 
L 703.929975 540.43249 
L 704.691646 659.533859 
L 705.453317 632.084914 
L 706.214988 656.198085 
L 706.976658 634.012137 
L 707.738329 549.616039 
L 708.5 502.020239 
L 709.261671 645.824641 
L 710.023342 647.451848 
L 710.785012 659.589794 
L 711.546683 615.60436 
L 712.308354 645.107653 
L 713.070025 438.965976 
L 713.831695 602.703661 
L 714.593366 450.153022 
L 715.355037 629.145771 
L 716.116708 659.045697 
L 716.878378 631.891683 
L 717.640049 645.143248 
L 718.40172 653.228432 
L 719.163391 630.610258 
L 719.925061 633.213788 
L 720.686732 652.536869 
L 721.448403 656.965923 
L 722.210074 652.943671 
L 722.971744 633.722291 
L 723.733415 658.277858 
L 724.495086 595.889732 
L 725.256757 622.026742 
L 726.018428 656.930328 
L 726.780098 616.458643 
L 727.541769 556.735068 
L 728.30344 633.112088 
L 729.065111 654.565793 
L 729.826781 626.094759 
L 730.588452 564.596511 
L 731.350123 637.673352 
L 732.111794 604.152892 
L 732.873464 654.97768 
L 733.635135 657.947332 
L 735.158477 659.640644 
L 735.920147 650.502861 
L 736.681818 659.477923 
L 737.443489 588.465601 
L 738.20516 598.177992 
L 738.96683 649.485857 
L 739.728501 659.503348 
L 740.490172 594.059125 
L 741.251843 600.16115 
L 742.013514 652.536869 
L 742.775184 607.793767 
L 743.536855 646.445014 
L 744.298526 653.553874 
L 745.060197 614.39921 
L 746.583538 659.213502 
L 747.345209 658.130393 
L 748.10688 641.049806 
L 748.86855 604.402058 
L 749.630221 658.425324 
L 750.391892 659.259267 
L 751.153563 644.909337 
L 751.915233 470.996525 
L 752.676904 544.886969 
L 753.438575 651.621565 
L 754.200246 601.971418 
L 754.961916 581.138086 
L 755.723587 657.728676 
L 756.485258 649.485857 
L 757.246929 560.497984 
L 758.0086 656.401486 
L 758.77027 638.542891 
L 759.531941 630.584832 
L 760.293612 655.587882 
L 761.055283 642.875329 
L 761.816953 659.452498 
L 762.578624 561.006486 
L 763.340295 633.956202 
L 764.101966 659.554199 
L 764.863636 517.275303 
L 765.625307 659.477923 
L 766.386978 654.97768 
L 767.148649 652.999606 
L 767.910319 621.009737 
L 768.67199 582.658507 
L 769.433661 657.637146 
L 770.195332 650.294375 
L 770.957002 503.342345 
L 771.718673 622.026742 
L 772.480344 654.570878 
L 773.242015 557.04017 
L 774.003686 649.485857 
L 774.765356 634.907101 
L 775.527027 598.066121 
L 776.288698 658.63381 
L 777.050369 657.59138 
L 777.812039 588.465601 
L 778.57371 451.419193 
L 779.335381 642.875329 
L 780.097052 282.30664 
L 780.858722 659.381308 
L 781.620393 458.289056 
L 782.382064 597.61864 
L 783.143735 557.650372 
L 783.905405 643.18043 
L 784.667076 629.145771 
L 785.428747 582.566977 
L 786.190418 659.238927 
L 786.952088 639.315814 
L 787.713759 122.22 
L 788.47543 516.47187 
L 789.237101 640.231118 
L 789.998771 657.911737 
L 791.522113 644.909337 
L 792.283784 659.472838 
L 793.045455 641.654924 
L 793.807125 556.735068 
L 794.568796 568.227217 
L 795.330467 537.615388 
L 796.092138 659.376223 
L 796.853808 653.630149 
L 797.615479 613.687307 
L 798.37715 658.618555 
L 799.138821 593.550622 
L 799.900491 544.225916 
L 800.662162 654.057291 
L 801.423833 659.325373 
L 802.185504 608.805686 
L 802.947174 576.770052 
L 803.708845 657.5507 
L 804.470516 638.43102 
L 805.232187 628.550824 
L 805.993857 643.790633 
L 806.755528 605.775014 
L 807.517199 393.877092 
L 808.27887 618.645202 
L 809.040541 659.513519 
L 809.802211 659.574539 
L 810.563882 626.089674 
L 811.325553 563.548997 
L 812.087224 659.238927 
L 812.848894 554.436639 
L 813.610565 652.536869 
L 814.372236 648.672253 
L 815.133907 655.587882 
L 815.895577 650.853727 
L 816.657248 486.663475 
L 817.418919 656.833712 
L 818.18059 619.33168 
L 818.94226 590.49961 
L 819.703931 634.739295 
L 820.465602 627.111763 
L 821.227273 655.648902 
L 821.988943 598.645814 
L 822.750614 637.281805 
L 823.512285 596.652485 
L 824.273956 604.585119 
L 825.035627 651.621565 
L 825.797297 586.350232 
L 826.558968 492.770586 
L 827.320639 656.498101 
L 828.08231 626.704961 
L 828.84398 623.450548 
L 829.605651 643.236365 
L 830.367322 517.275303 
L 831.128993 574.227542 
L 831.890663 599.408567 
L 832.652334 649.994359 
L 833.414005 659.213502 
L 834.175676 614.800926 
L 834.937346 656.818457 
L 835.699017 625.001479 
L 837.222359 659.574539 
L 837.984029 595.584631 
L 838.7457 645.41784 
L 839.507371 652.953841 
L 840.269042 624.269236 
L 841.030713 510.868176 
L 841.792383 652.902991 
L 842.554054 598.635644 
L 843.315725 659.427073 
L 844.077396 642.168511 
L 844.839066 658.949081 
L 845.600737 590.296209 
L 846.362408 647.451848 
L 847.124079 646.83656 
L 847.885749 658.527024 
L 848.64742 653.421663 
L 849.409091 659.101632 
L 850.170762 559.104688 
L 850.932432 647.456933 
L 851.694103 657.825291 
L 852.455774 588.526621 
L 853.217445 601.142559 
L 853.979115 552.870452 
L 854.740786 658.059202 
L 855.502457 651.214764 
L 856.264128 640.536219 
L 857.025799 637.719117 
L 857.787469 642.366827 
L 858.54914 544.754758 
L 859.310811 656.218425 
L 860.072482 646.938261 
L 860.834152 652.933501 
L 861.595823 645.214439 
L 862.357494 589.238524 
L 863.119165 659.488093 
L 863.880835 639.519215 
L 864.642506 631.276395 
L 865.404177 552.36195 
L 866.165848 628.942371 
L 866.927518 653.325048 
L 867.689189 590.49961 
L 868.45086 658.384644 
L 869.212531 603.822365 
L 869.974201 656.320125 
L 870.735872 615.924716 
L 871.497543 640.907426 
L 872.259214 628.438953 
L 873.020885 659.325373 
L 873.782555 630.549237 
L 874.544226 577.283639 
L 875.305897 514.819238 
L 876.067568 656.503186 
L 876.829238 659.650814 
L 877.590909 575.753048 
L 878.35258 659.360968 
L 879.114251 649.404496 
L 880.637592 658.943996 
L 881.399263 381.576425 
L 882.160934 620.602936 
L 882.922604 653.594554 
L 883.684275 629.959375 
L 884.445946 657.896482 
L 885.207617 659.538944 
L 885.969287 638.807312 
L 886.730958 649.689257 
L 887.492629 648.443427 
L 888.2543 654.367477 
L 889.015971 656.676077 
L 889.777641 527.23686 
L 890.539312 655.389566 
L 891.300983 658.120223 
L 892.062654 461.446855 
L 892.824324 659.528774 
L 893.585995 630.610258 
L 894.347666 522.934932 
L 895.109337 624.065835 
L 895.871007 633.061238 
L 896.632678 643.383831 
L 897.394349 659.427073 
L 898.15602 597.110137 
L 898.91769 563.548997 
L 899.679361 646.383994 
L 900.441032 614.155129 
L 901.202703 619.560506 
L 901.964373 644.400835 
L 902.726044 494.240157 
L 903.487715 655.587882 
L 904.249386 606.736083 
L 905.011057 643.12958 
L 905.772727 639.092073 
L 906.534398 588.363901 
L 907.296069 657.164239 
L 908.05774 657.123559 
L 908.81941 551.111035 
L 909.581081 385.06475 
L 910.342752 552.056849 
L 911.104423 607.793767 
L 911.866093 525.411337 
L 913.389435 656.142149 
L 914.151106 400.218113 
L 914.912776 631.688282 
L 915.674447 630.559407 
L 916.436118 657.596466 
L 917.197789 638.29881 
L 917.959459 658.959251 
L 918.72113 659.091462 
L 919.482801 639.829401 
L 920.244472 642.875329 
L 921.006143 638.807312 
L 921.767813 405.145499 
L 922.529484 474.357724 
L 923.291155 650.29946 
L 924.052826 651.718181 
L 924.814496 646.943346 
L 925.576167 655.013275 
L 926.337838 639.620915 
L 927.099509 644.568641 
L 927.861179 576.770052 
L 928.62285 658.943996 
L 929.384521 647.655249 
L 930.146192 632.806987 
L 930.907862 551.736492 
L 931.669533 613.382205 
L 932.431204 654.565793 
L 933.192875 507.105261 
L 933.954545 597.201668 
L 933.954545 597.201668 
" clip-path="url(#p5b82b9f1f6)" style="fill: none; stroke: #c44e52; stroke-width: 1.2; stroke-linecap: square"/>
   </g>
   <g id="patch_3">
    <path d="M 135 693 
L 135 95.04 
" style="fill: none; stroke: #888888; stroke-width: 1.12; stroke-linejoin: miter; stroke-linecap: square"/>
   </g>
   <g id="patch_4">
    <path d="M 972 693 
L 972 95.04 
" style="fill: none; stroke: #888888; stroke-width: 1.12; stroke-linejoin: miter; stroke-linecap: square"/>
   </g>
   <g id="patch_5">
    <path d="M 135 693 
L 972 693 
" style="fill: none; stroke: #888888; stroke-width: 1.12; stroke-linejoin: miter; stroke-linecap: square"/>
   </g>
   <g id="patch_6">
    <path d="M 135 95.04 
L 972 95.04 
" style="fill: none; stroke: #888888; stroke-width: 1.12; stroke-linejoin: miter; stroke-linecap: square"/>
   </g>
   <g id="legend_1">
    <g id="patch_7">
     <path d="M 147.495 161.720906 
L 447.093305 161.720906 
Q 450.663305 161.720906 450.663305 158.150906 
L 450.663305 107.535 
Q 450.663305 103.965 447.093305 103.965 
L 147.495 103.965 
Q 143.925 103.965 143.925 107.535 
L 143.925 158.150906 
Q 143.925 161.720906 147.495 161.720906 
z
" style="fill: #232323; opacity: 0.8; stroke: #cccccc; stroke-width: 0.16; stroke-linejoin: miter"/>
    </g>
    <g id="line2d_27">
     <path d="M 151.065 118.420711 
L 168.915 118.420711 
L 186.765 118.420711 
" style="fill: none; stroke-dasharray: 4.44,1.92; stroke-dashoffset: 0; stroke: #3572c6; stroke-width: 1.2"/>
    </g>
    <g id="text_13">
     <!-- Predicted (Neural Network) -->
     <g style="fill: #bbbbbb" transform="translate(201.045 124.668211)scale(0.1785 -0.1785)">
      <defs>
       <path id="DejaVuSans-50" d="M 1259 4147 
L 1259 2394 
L 2053 2394 
Q 2494 2394 2734 2622 
Q 2975 2850 2975 3272 
Q 2975 3691 2734 3919 
Q 2494 4147 2053 4147 
L 1259 4147 
z
M 628 4666 
L 2053 4666 
Q 2838 4666 3239 4311 
Q 3641 3956 3641 3272 
Q 3641 2581 3239 2228 
Q 2838 1875 2053 1875 
L 1259 1875 
L 1259 0 
L 628 0 
L 628 4666 
z
" transform="scale(0.015625)"/>
       <path id="DejaVuSans-72" d="M 2631 2963 
Q 2534 3019 2420 3045 
Q 2306 3072 2169 3072 
Q 1681 3072 1420 2755 
Q 1159 2438 1159 1844 
L 1159 0 
L 581 0 
L 581 3500 
L 1159 3500 
L 1159 2956 
Q 1341 3275 1631 3429 
Q 1922 3584 2338 3584 
Q 2397 3584 2469 3576 
Q 2541 3569 2628 3553 
L 2631 2963 
z
" transform="scale(0.015625)"/>
       <path id="DejaVuSans-65" d="M 3597 1894 
L 3597 1613 
L 953 1613 
Q 991 1019 1311 708 
Q 1631 397 2203 397 
Q 2534 397 2845 478 
Q 3156 559 3463 722 
L 3463 178 
Q 3153 47 2828 -22 
Q 2503 -91 2169 -91 
Q 1331 -91 842 396 
Q 353 884 353 1716 
Q 353 2575 817 3079 
Q 1281 3584 2069 3584 
Q 2775 3584 3186 3129 
Q 3597 2675 3597 1894 
z
M 3022 2063 
Q 3016 2534 2758 2815 
Q 2500 3097 2075 3097 
Q 1594 3097 1305 2825 
Q 1016 2553 972 2059 
L 3022 2063 
z
" transform="scale(0.015625)"/>
       <path id="DejaVuSans-64" d="M 2906 2969 
L 2906 4863 
L 3481 4863 
L 3481 0 
L 2906 0 
L 2906 525 
Q 2725 213 2448 61 
Q 2172 -91 1784 -91 
Q 1150 -91 751 415 
Q 353 922 353 1747 
Q 353 2572 751 3078 
Q 1150 3584 1784 3584 
Q 2172 3584 2448 3432 
Q 2725 3281 2906 2969 
z
M 947 1747 
Q 947 1113 1208 752 
Q 1469 391 1925 391 
Q 2381 391 2643 752 
Q 2906 1113 2906 1747 
Q 2906 2381 2643 2742 
Q 2381 3103 1925 3103 
Q 1469 3103 1208 2742 
Q 947 2381 947 1747 
z
" transform="scale(0.015625)"/>
       <path id="DejaVuSans-69" d="M 603 3500 
L 1178 3500 
L 1178 0 
L 603 0 
L 603 3500 
z
M 603 4863 
L 1178 4863 
L 1178 4134 
L 603 4134 
L 603 4863 
z
" transform="scale(0.015625)"/>
       <path id="DejaVuSans-63" d="M 3122 3366 
L 3122 2828 
Q 2878 2963 2633 3030 
Q 2388 3097 2138 3097 
Q 1578 3097 1268 2742 
Q 959 2388 959 1747 
Q 959 1106 1268 751 
Q 1578 397 2138 397 
Q 2388 397 2633 464 
Q 2878 531 3122 666 
L 3122 134 
Q 2881 22 2623 -34 
Q 2366 -91 2075 -91 
Q 1284 -91 818 406 
Q 353 903 353 1747 
Q 353 2603 823 3093 
Q 1294 3584 2113 3584 
Q 2378 3584 2631 3529 
Q 2884 3475 3122 3366 
z
" transform="scale(0.015625)"/>
       <path id="DejaVuSans-74" d="M 1172 4494 
L 1172 3500 
L 2356 3500 
L 2356 3053 
L 1172 3053 
L 1172 1153 
Q 1172 725 1289 603 
Q 1406 481 1766 481 
L 2356 481 
L 2356 0 
L 1766 0 
Q 1100 0 847 248 
Q 594 497 594 1153 
L 594 3053 
L 172 3053 
L 172 3500 
L 594 3500 
L 594 4494 
L 1172 4494 
z
" transform="scale(0.015625)"/>
       <path id="DejaVuSans-20" transform="scale(0.015625)"/>
       <path id="DejaVuSans-28" d="M 1984 4856 
Q 1566 4138 1362 3434 
Q 1159 2731 1159 2009 
Q 1159 1288 1364 580 
Q 1569 -128 1984 -844 
L 1484 -844 
Q 1016 -109 783 600 
Q 550 1309 550 2009 
Q 550 2706 781 3412 
Q 1013 4119 1484 4856 
L 1984 4856 
z
" transform="scale(0.015625)"/>
       <path id="DejaVuSans-4e" d="M 628 4666 
L 1478 4666 
L 3547 763 
L 3547 4666 
L 4159 4666 
L 4159 0 
L 3309 0 
L 1241 3903 
L 1241 0 
L 628 0 
L 628 4666 
z
" transform="scale(0.015625)"/>
       <path id="DejaVuSans-75" d="M 544 1381 
L 544 3500 
L 1119 3500 
L 1119 1403 
Q 1119 906 1312 657 
Q 1506 409 1894 409 
Q 2359 409 2629 706 
Q 2900 1003 2900 1516 
L 2900 3500 
L 3475 3500 
L 3475 0 
L 2900 0 
L 2900 538 
Q 2691 219 2414 64 
Q 2138 -91 1772 -91 
Q 1169 -91 856 284 
Q 544 659 544 1381 
z
M 1991 3584 
L 1991 3584 
z
" transform="scale(0.015625)"/>
       <path id="DejaVuSans-61" d="M 2194 1759 
Q 1497 1759 1228 1600 
Q 959 1441 959 1056 
Q 959 750 1161 570 
Q 1363 391 1709 391 
Q 2188 391 2477 730 
Q 2766 1069 2766 1631 
L 2766 1759 
L 2194 1759 
z
M 3341 1997 
L 3341 0 
L 2766 0 
L 2766 531 
Q 2569 213 2275 61 
Q 1981 -91 1556 -91 
Q 1019 -91 701 211 
Q 384 513 384 1019 
Q 384 1609 779 1909 
Q 1175 2209 1959 2209 
L 2766 2209 
L 2766 2266 
Q 2766 2663 2505 2880 
Q 2244 3097 1772 3097 
Q 1472 3097 1187 3025 
Q 903 2953 641 2809 
L 641 3341 
Q 956 3463 1253 3523 
Q 1550 3584 1831 3584 
Q 2591 3584 2966 3190 
Q 3341 2797 3341 1997 
z
" transform="scale(0.015625)"/>
       <path id="DejaVuSans-6c" d="M 603 4863 
L 1178 4863 
L 1178 0 
L 603 0 
L 603 4863 
z
" transform="scale(0.015625)"/>
       <path id="DejaVuSans-77" d="M 269 3500 
L 844 3500 
L 1563 769 
L 2278 3500 
L 2956 3500 
L 3675 769 
L 4391 3500 
L 4966 3500 
L 4050 0 
L 3372 0 
L 2619 2869 
L 1863 0 
L 1184 0 
L 269 3500 
z
" transform="scale(0.015625)"/>
       <path id="DejaVuSans-6f" d="M 1959 3097 
Q 1497 3097 1228 2736 
Q 959 2375 959 1747 
Q 959 1119 1226 758 
Q 1494 397 1959 397 
Q 2419 397 2687 759 
Q 2956 1122 2956 1747 
Q 2956 2369 2687 2733 
Q 2419 3097 1959 3097 
z
M 1959 3584 
Q 2709 3584 3137 3096 
Q 3566 2609 3566 1747 
Q 3566 888 3137 398 
Q 2709 -91 1959 -91 
Q 1206 -91 779 398 
Q 353 888 353 1747 
Q 353 2609 779 3096 
Q 1206 3584 1959 3584 
z
" transform="scale(0.015625)"/>
       <path id="DejaVuSans-6b" d="M 581 4863 
L 1159 4863 
L 1159 1991 
L 2875 3500 
L 3609 3500 
L 1753 1863 
L 3688 0 
L 2938 0 
L 1159 1709 
L 1159 0 
L 581 0 
L 581 4863 
z
" transform="scale(0.015625)"/>
       <path id="DejaVuSans-29" d="M 513 4856 
L 1013 4856 
Q 1481 4119 1714 3412 
Q 1947 2706 1947 2009 
Q 1947 1309 1714 600 
Q 1481 -109 1013 -844 
L 513 -844 
Q 928 -128 1133 580 
Q 1338 1288 1338 2009 
Q 1338 2731 1133 3434 
Q 928 4138 513 4856 
z
" transform="scale(0.015625)"/>
      </defs>
      <use xlink:href="#DejaVuSans-50"/>
      <use xlink:href="#DejaVuSans-72" x="58.552734"/>
      <use xlink:href="#DejaVuSans-65" x="97.416016"/>
      <use xlink:href="#DejaVuSans-64" x="158.939453"/>
      <use xlink:href="#DejaVuSans-69" x="222.416016"/>
      <use xlink:href="#DejaVuSans-63" x="250.199219"/>
      <use xlink:href="#DejaVuSans-74" x="305.179688"/>
      <use xlink:href="#DejaVuSans-65" x="344.388672"/>
      <use xlink:href="#DejaVuSans-64" x="405.912109"/>
      <use xlink:href="#DejaVuSans-20" x="469.388672"/>
      <use xlink:href="#DejaVuSans-28" x="501.175781"/>
      <use xlink:href="#DejaVuSans-4e" x="540.189453"/>
      <use xlink:href="#DejaVuSans-65" x="614.994141"/>
      <use xlink:href="#DejaVuSans-75" x="676.517578"/>
      <use xlink:href="#DejaVuSans-72" x="739.896484"/>
      <use xlink:href="#DejaVuSans-61" x="781.009766"/>
      <use xlink:href="#DejaVuSans-6c" x="842.289062"/>
      <use xlink:href="#DejaVuSans-20" x="870.072266"/>
      <use xlink:href="#DejaVuSans-4e" x="901.859375"/>
      <use xlink:href="#DejaVuSans-65" x="976.664062"/>
      <use xlink:href="#DejaVuSans-74" x="1038.1875"/>
      <use xlink:href="#DejaVuSans-77" x="1077.396484"/>
      <use xlink:href="#DejaVuSans-6f" x="1159.183594"/>
      <use xlink:href="#DejaVuSans-72" x="1220.365234"/>
      <use xlink:href="#DejaVuSans-6b" x="1261.478516"/>
      <use xlink:href="#DejaVuSans-29" x="1319.388672"/>
     </g>
    </g>
    <g id="line2d_28">
     <path d="M 151.065 144.621164 
L 168.915 144.621164 
L 186.765 144.621164 
" style="fill: none; stroke: #c44e52; stroke-width: 1.2; stroke-linecap: square"/>
    </g>
    <g id="text_14">
     <!-- LTP -->
     <g style="fill: #bbbbbb" transform="translate(201.045 150.868664)scale(0.1785 -0.1785)">
      <defs>
       <path id="DejaVuSans-4c" d="M 628 4666 
L 1259 4666 
L 1259 531 
L 3531 531 
L 3531 0 
L 628 0 
L 628 4666 
z
" transform="scale(0.015625)"/>
       <path id="DejaVuSans-54" d="M -19 4666 
L 3928 4666 
L 3928 4134 
L 2272 4134 
L 2272 0 
L 1638 0 
L 1638 4134 
L -19 4134 
L -19 4666 
z
" transform="scale(0.015625)"/>
      </defs>
      <use xlink:href="#DejaVuSans-4c"/>
      <use xlink:href="#DejaVuSans-54" x="41.962891"/>
      <use xlink:href="#DejaVuSans-50" x="103.046875"/>
     </g>
    </g>
   </g>
  </g>
 </g>
 <defs>
  <clipPath id="p5b82b9f1f6">
   <rect x="135" y="95.04" width="837" height="597.96"/>
  </clipPath>
 </defs>
</svg>
